<svg width="48" height="48" viewBox="0 0 48 48" fill="none" xmlns="http://www.w3.org/2000/svg">
<rect width="48" height="48" rx="8" fill="#E4EBFC"/>
<path d="M23.333 34.666H15.333C14.9794 34.666 14.6402 34.5255 14.3902 34.2755C14.1402 34.0254 13.9997 33.6863 13.9997 33.3327V14.666C13.9997 14.3124 14.1402 13.9733 14.3902 13.7232C14.6402 13.4732 14.9794 13.3327 15.333 13.3327H21.9997V17.3327C21.9997 18.3935 22.4211 19.411 23.1712 20.1611C23.9214 20.9113 24.9388 21.3327 25.9997 21.3327H29.9997V27.9993C29.9997 28.353 30.1401 28.6921 30.3902 28.9422C30.6402 29.1922 30.9794 29.3327 31.333 29.3327C31.6866 29.3327 32.0258 29.1922 32.2758 28.9422C32.5259 28.6921 32.6663 28.353 32.6663 27.9993V19.9993C32.6663 19.9993 32.6663 19.9993 32.6663 19.9193C32.6525 19.7969 32.6256 19.6762 32.5863 19.5593V19.4393C32.5222 19.3023 32.4367 19.1762 32.333 19.066V19.066L24.333 11.066C24.2228 10.9623 24.0968 10.8768 23.9597 10.8127C23.9156 10.805 23.8705 10.805 23.8263 10.8127C23.6967 10.7434 23.5574 10.6939 23.413 10.666H15.333C14.2721 10.666 13.2547 11.0874 12.5046 11.8376C11.7544 12.5877 11.333 13.6051 11.333 14.666V33.3327C11.333 34.3935 11.7544 35.411 12.5046 36.1611C13.2547 36.9113 14.2721 37.3327 15.333 37.3327H23.333C23.6866 37.3327 24.0258 37.1922 24.2758 36.9422C24.5259 36.6921 24.6663 36.353 24.6663 35.9993C24.6663 35.6457 24.5259 35.3066 24.2758 35.0565C24.0258 34.8065 23.6866 34.666 23.333 34.666ZM24.6663 15.2127L28.1197 18.666H25.9997C25.6461 18.666 25.3069 18.5255 25.0569 18.2755C24.8068 18.0254 24.6663 17.6863 24.6663 17.3327V15.2127ZM17.9997 26.666H25.9997C26.3533 26.666 26.6924 26.5255 26.9425 26.2755C27.1925 26.0254 27.333 25.6863 27.333 25.3327C27.333 24.9791 27.1925 24.6399 26.9425 24.3899C26.6924 24.1398 26.3533 23.9993 25.9997 23.9993H17.9997C17.6461 23.9993 17.3069 24.1398 17.0569 24.3899C16.8068 24.6399 16.6663 24.9791 16.6663 25.3327C16.6663 25.6863 16.8068 26.0254 17.0569 26.2755C17.3069 26.5255 17.6461 26.666 17.9997 26.666ZM23.333 29.3327H17.9997C17.6461 29.3327 17.3069 29.4732 17.0569 29.7232C16.8068 29.9733 16.6663 30.3124 16.6663 30.666C16.6663 31.0196 16.8068 31.3588 17.0569 31.6088C17.3069 31.8589 17.6461 31.9993 17.9997 31.9993H23.333C23.6866 31.9993 24.0258 31.8589 24.2758 31.6088C24.5259 31.3588 24.6663 31.0196 24.6663 30.666C24.6663 30.3124 24.5259 29.9733 24.2758 29.7232C24.0258 29.4732 23.6866 29.3327 23.333 29.3327ZM17.9997 21.3327H19.333C19.6866 21.3327 20.0258 21.1922 20.2758 20.9422C20.5259 20.6921 20.6663 20.353 20.6663 19.9993C20.6663 19.6457 20.5259 19.3066 20.2758 19.0565C20.0258 18.8065 19.6866 18.666 19.333 18.666H17.9997C17.6461 18.666 17.3069 18.8065 17.0569 19.0565C16.8068 19.3066 16.6663 19.6457 16.6663 19.9993C16.6663 20.353 16.8068 20.6921 17.0569 20.9422C17.3069 21.1922 17.6461 21.3327 17.9997 21.3327ZM36.2797 29.7194C36.1557 29.5944 36.0083 29.4952 35.8458 29.4275C35.6833 29.3598 35.509 29.325 35.333 29.325C35.157 29.325 34.9827 29.3598 34.8202 29.4275C34.6578 29.4952 34.5103 29.5944 34.3863 29.7194L29.9997 34.1193L28.2797 32.386C28.1554 32.2617 28.0078 32.1631 27.8453 32.0958C27.6829 32.0285 27.5088 31.9939 27.333 31.9939C27.1572 31.9939 26.9831 32.0285 26.8207 32.0958C26.6582 32.1631 26.5107 32.2617 26.3863 32.386C26.262 32.5103 26.1634 32.6579 26.0961 32.8204C26.0288 32.9828 25.9942 33.1569 25.9942 33.3327C25.9942 33.5085 26.0288 33.6826 26.0961 33.845C26.1634 34.0074 26.262 34.155 26.3863 34.2793L29.053 36.946C29.177 37.071 29.3244 37.1702 29.4869 37.2379C29.6494 37.3056 29.8237 37.3404 29.9997 37.3404C30.1757 37.3404 30.35 37.3056 30.5124 37.2379C30.6749 37.1702 30.8224 37.071 30.9463 36.946L36.2797 31.6127C36.4046 31.4887 36.5038 31.3413 36.5715 31.1788C36.6392 31.0163 36.6741 30.842 36.6741 30.666C36.6741 30.49 36.6392 30.3157 36.5715 30.1532C36.5038 29.9908 36.4046 29.8433 36.2797 29.7194V29.7194Z" fill="#3767E1"/>
</svg>
