<svg width="49" height="48" viewBox="0 0 49 48" fill="none" xmlns="http://www.w3.org/2000/svg">
<rect x="0.5" width="48" height="48" rx="24" fill="#9BE59B"/>
<path d="M24.5 14C22.5605 14.0037 20.6639 14.5713 19.0413 15.6337C17.4186 16.6962 16.1399 18.2075 15.361 19.9838C14.582 21.76 14.3364 23.7244 14.6541 25.6378C14.9717 27.5511 15.8389 29.3308 17.15 30.76C18.0865 31.775 19.223 32.5851 20.488 33.1392C21.753 33.6933 23.119 33.9793 24.5 33.9793C25.8811 33.9793 27.2471 33.6933 28.5121 33.1392C29.7771 32.5851 30.9136 31.775 31.85 30.76C33.1612 29.3308 34.0284 27.5511 34.346 25.6378C34.6637 23.7244 34.4181 21.76 33.6391 19.9838C32.8602 18.2075 31.5815 16.6962 29.9588 15.6337C28.3362 14.5713 26.4396 14.0037 24.5 14ZM24.5 32C22.4285 31.9969 20.439 31.1903 18.95 29.75C19.4021 28.6495 20.1711 27.7083 21.1593 27.0459C22.1475 26.3835 23.3104 26.0298 24.5 26.0298C25.6897 26.0298 26.8526 26.3835 27.8408 27.0459C28.829 27.7083 29.598 28.6495 30.05 29.75C28.5611 31.1903 26.5716 31.9969 24.5 32ZM22.5 22C22.5 21.6044 22.6173 21.2178 22.8371 20.8889C23.0569 20.56 23.3692 20.3036 23.7347 20.1522C24.1001 20.0009 24.5023 19.9613 24.8902 20.0384C25.2782 20.1156 25.6346 20.3061 25.9143 20.5858C26.194 20.8655 26.3844 21.2219 26.4616 21.6098C26.5388 21.9978 26.4992 22.3999 26.3478 22.7654C26.1964 23.1308 25.9401 23.4432 25.6112 23.6629C25.2823 23.8827 24.8956 24 24.5 24C23.9696 24 23.4609 23.7893 23.0858 23.4142C22.7108 23.0391 22.5 22.5304 22.5 22ZM31.41 28C30.5166 26.4718 29.1415 25.283 27.5 24.62C28.0092 24.0427 28.341 23.3307 28.4555 22.5694C28.5701 21.8082 28.4625 21.0301 28.1458 20.3285C27.8291 19.6269 27.3166 19.0316 26.67 18.614C26.0233 18.1964 25.2698 17.9742 24.5 17.9742C23.7303 17.9742 22.9768 18.1964 22.3301 18.614C21.6835 19.0316 21.171 19.6269 20.8543 20.3285C20.5376 21.0301 20.43 21.8082 20.5446 22.5694C20.6591 23.3307 20.9909 24.0427 21.5 24.62C19.8586 25.283 18.4835 26.4718 17.59 28C16.878 26.7871 16.5018 25.4065 16.5 24C16.5 21.8783 17.3429 19.8434 18.8432 18.3431C20.3435 16.8429 22.3783 16 24.5 16C26.6218 16 28.6566 16.8429 30.1569 18.3431C31.6572 19.8434 32.5 21.8783 32.5 24C32.4983 25.4065 32.1221 26.7871 31.41 28Z" fill="black"/>
</svg>
