<svg width="57" height="56" viewBox="0 0 57 56" fill="none" xmlns="http://www.w3.org/2000/svg">
<g filter="url(#filter0_d_917_4921)">
<rect x="4.66699" width="48" height="48" rx="24" fill="#9BE59B" shape-rendering="crispEdges"/>
<path d="M36.8273 17.0002C35.7672 15.9374 34.3621 15.2887 32.8656 15.1713C31.3691 15.054 29.88 15.4756 28.6673 16.3602C27.3949 15.4138 25.8113 14.9847 24.2352 15.1592C22.6591 15.3337 21.2077 16.0989 20.1732 17.3008C19.1388 18.5026 18.5981 20.0517 18.6601 21.6362C18.722 23.2207 19.3821 24.7228 20.5073 25.8402L26.7173 32.0602C27.2373 32.5719 27.9377 32.8588 28.6673 32.8588C29.3969 32.8588 30.0973 32.5719 30.6173 32.0602L36.8273 25.8402C37.9948 24.6654 38.6502 23.0764 38.6502 21.4202C38.6502 19.7639 37.9948 18.1749 36.8273 17.0002V17.0002ZM35.4173 24.4602L29.2073 30.6702C29.1366 30.7415 29.0525 30.7982 28.9598 30.8368C28.8671 30.8755 28.7677 30.8954 28.6673 30.8954C28.5668 30.8954 28.4674 30.8755 28.3747 30.8368C28.282 30.7982 28.1979 30.7415 28.1273 30.6702L21.9173 24.4302C21.133 23.6285 20.6939 22.5516 20.6939 21.4302C20.6939 20.3087 21.133 19.2318 21.9173 18.4302C22.7164 17.6412 23.7942 17.1987 24.9173 17.1987C26.0403 17.1987 27.1181 17.6412 27.9173 18.4302C28.0102 18.5239 28.1208 18.5983 28.2427 18.6491C28.3646 18.6998 28.4953 18.726 28.6273 18.726C28.7593 18.726 28.89 18.6998 29.0118 18.6491C29.1337 18.5983 29.2443 18.5239 29.3373 18.4302C30.1364 17.6412 31.2142 17.1987 32.3373 17.1987C33.4603 17.1987 34.5381 17.6412 35.3373 18.4302C36.1323 19.2213 36.5859 20.2924 36.6008 21.4139C36.6158 22.5353 36.1909 23.6181 35.4173 24.4302V24.4602Z" fill="black"/>
</g>
<defs>
<filter id="filter0_d_917_4921" x="0.666992" y="0" width="56" height="56" filterUnits="userSpaceOnUse" color-interpolation-filters="sRGB">
<feFlood flood-opacity="0" result="BackgroundImageFix"/>
<feColorMatrix in="SourceAlpha" type="matrix" values="0 0 0 0 0 0 0 0 0 0 0 0 0 0 0 0 0 0 127 0" result="hardAlpha"/>
<feOffset dy="4"/>
<feGaussianBlur stdDeviation="2"/>
<feComposite in2="hardAlpha" operator="out"/>
<feColorMatrix type="matrix" values="0 0 0 0 0 0 0 0 0 0 0 0 0 0 0 0 0 0 0.25 0"/>
<feBlend mode="normal" in2="BackgroundImageFix" result="effect1_dropShadow_917_4921"/>
<feBlend mode="normal" in="SourceGraphic" in2="effect1_dropShadow_917_4921" result="shape"/>
</filter>
</defs>
</svg>
