<svg width="56" height="56" viewBox="0 0 56 56" fill="none" xmlns="http://www.w3.org/2000/svg">
<g filter="url(#filter0_d_917_4909)">
<rect x="4" width="48" height="48" rx="24" fill="#9BE59B" shape-rendering="crispEdges"/>
<path d="M37 22.5H36V21.5C36 21.2348 35.8946 20.9804 35.7071 20.7929C35.5196 20.6054 35.2652 20.5 35 20.5C34.7348 20.5 34.4804 20.6054 34.2929 20.7929C34.1054 20.9804 34 21.2348 34 21.5V22.5H33C32.7348 22.5 32.4804 22.6054 32.2929 22.7929C32.1054 22.9804 32 23.2348 32 23.5C32 23.7652 32.1054 24.0196 32.2929 24.2071C32.4804 24.3946 32.7348 24.5 33 24.5H34V25.5C34 25.7652 34.1054 26.0196 34.2929 26.2071C34.4804 26.3946 34.7348 26.5 35 26.5C35.2652 26.5 35.5196 26.3946 35.7071 26.2071C35.8946 26.0196 36 25.7652 36 25.5V24.5H37C37.2652 24.5 37.5196 24.3946 37.7071 24.2071C37.8946 24.0196 38 23.7652 38 23.5C38 23.2348 37.8946 22.9804 37.7071 22.7929C37.5196 22.6054 37.2652 22.5 37 22.5ZM29.3 24.22C29.8336 23.7581 30.2616 23.1869 30.5549 22.545C30.8482 21.9032 31 21.2057 31 20.5C31 19.1739 30.4732 17.9021 29.5355 16.9645C28.5979 16.0268 27.3261 15.5 26 15.5C24.6739 15.5 23.4021 16.0268 22.4645 16.9645C21.5268 17.9021 21 19.1739 21 20.5C21 21.2057 21.1518 21.9032 21.4451 22.545C21.7384 23.1869 22.1664 23.7581 22.7 24.22C21.3001 24.8539 20.1125 25.8775 19.279 27.1685C18.4455 28.4596 18.0015 29.9633 18 31.5C18 31.7652 18.1054 32.0196 18.2929 32.2071C18.4804 32.3946 18.7348 32.5 19 32.5C19.2652 32.5 19.5196 32.3946 19.7071 32.2071C19.8946 32.0196 20 31.7652 20 31.5C20 29.9087 20.6321 28.3826 21.7574 27.2574C22.8826 26.1321 24.4087 25.5 26 25.5C27.5913 25.5 29.1174 26.1321 30.2426 27.2574C31.3679 28.3826 32 29.9087 32 31.5C32 31.7652 32.1054 32.0196 32.2929 32.2071C32.4804 32.3946 32.7348 32.5 33 32.5C33.2652 32.5 33.5196 32.3946 33.7071 32.2071C33.8946 32.0196 34 31.7652 34 31.5C33.9985 29.9633 33.5545 28.4596 32.721 27.1685C31.8875 25.8775 30.6999 24.8539 29.3 24.22V24.22ZM26 23.5C25.4067 23.5 24.8266 23.3241 24.3333 22.9944C23.8399 22.6648 23.4554 22.1962 23.2284 21.6481C23.0013 21.0999 22.9419 20.4967 23.0576 19.9147C23.1734 19.3328 23.4591 18.7982 23.8787 18.3787C24.2982 17.9591 24.8328 17.6734 25.4147 17.5576C25.9967 17.4419 26.5999 17.5013 27.1481 17.7284C27.6962 17.9554 28.1648 18.3399 28.4944 18.8333C28.8241 19.3266 29 19.9067 29 20.5C29 21.2956 28.6839 22.0587 28.1213 22.6213C27.5587 23.1839 26.7956 23.5 26 23.5Z" fill="black"/>
</g>
<defs>
<filter id="filter0_d_917_4909" x="0" y="0" width="56" height="56" filterUnits="userSpaceOnUse" color-interpolation-filters="sRGB">
<feFlood flood-opacity="0" result="BackgroundImageFix"/>
<feColorMatrix in="SourceAlpha" type="matrix" values="0 0 0 0 0 0 0 0 0 0 0 0 0 0 0 0 0 0 127 0" result="hardAlpha"/>
<feOffset dy="4"/>
<feGaussianBlur stdDeviation="2"/>
<feComposite in2="hardAlpha" operator="out"/>
<feColorMatrix type="matrix" values="0 0 0 0 0 0 0 0 0 0 0 0 0 0 0 0 0 0 0.25 0"/>
<feBlend mode="normal" in2="BackgroundImageFix" result="effect1_dropShadow_917_4909"/>
<feBlend mode="normal" in="SourceGraphic" in2="effect1_dropShadow_917_4909" result="shape"/>
</filter>
</defs>
</svg>
