<svg width="57" height="56" viewBox="0 0 57 56" fill="none" xmlns="http://www.w3.org/2000/svg">
<g filter="url(#filter0_d_917_4915)">
<rect x="4.33301" width="48" height="48" rx="24" fill="#9BE59B" shape-rendering="crispEdges"/>
<path d="M22.333 25H18.333C18.0678 25 17.8134 25.1054 17.6259 25.2929C17.4384 25.4804 17.333 25.7348 17.333 26V34C17.333 34.2652 17.4384 34.5196 17.6259 34.7071C17.8134 34.8946 18.0678 35 18.333 35H22.333C22.5982 35 22.8526 34.8946 23.0401 34.7071C23.2277 34.5196 23.333 34.2652 23.333 34V26C23.333 25.7348 23.2277 25.4804 23.0401 25.2929C22.8526 25.1054 22.5982 25 22.333 25ZM21.333 33H19.333V27H21.333V33ZM38.333 21H34.333C34.0678 21 33.8134 21.1054 33.6259 21.2929C33.4384 21.4804 33.333 21.7348 33.333 22V34C33.333 34.2652 33.4384 34.5196 33.6259 34.7071C33.8134 34.8946 34.0678 35 34.333 35H38.333C38.5982 35 38.8526 34.8946 39.0401 34.7071C39.2277 34.5196 39.333 34.2652 39.333 34V22C39.333 21.7348 39.2277 21.4804 39.0401 21.2929C38.8526 21.1054 38.5982 21 38.333 21ZM37.333 33H35.333V23H37.333V33ZM30.333 13H26.333C26.0678 13 25.8134 13.1054 25.6259 13.2929C25.4384 13.4804 25.333 13.7348 25.333 14V34C25.333 34.2652 25.4384 34.5196 25.6259 34.7071C25.8134 34.8946 26.0678 35 26.333 35H30.333C30.5982 35 30.8526 34.8946 31.0401 34.7071C31.2277 34.5196 31.333 34.2652 31.333 34V14C31.333 13.7348 31.2277 13.4804 31.0401 13.2929C30.8526 13.1054 30.5982 13 30.333 13ZM29.333 33H27.333V15H29.333V33Z" fill="black"/>
</g>
<defs>
<filter id="filter0_d_917_4915" x="0.333008" y="0" width="56" height="56" filterUnits="userSpaceOnUse" color-interpolation-filters="sRGB">
<feFlood flood-opacity="0" result="BackgroundImageFix"/>
<feColorMatrix in="SourceAlpha" type="matrix" values="0 0 0 0 0 0 0 0 0 0 0 0 0 0 0 0 0 0 127 0" result="hardAlpha"/>
<feOffset dy="4"/>
<feGaussianBlur stdDeviation="2"/>
<feComposite in2="hardAlpha" operator="out"/>
<feColorMatrix type="matrix" values="0 0 0 0 0 0 0 0 0 0 0 0 0 0 0 0 0 0 0.25 0"/>
<feBlend mode="normal" in2="BackgroundImageFix" result="effect1_dropShadow_917_4915"/>
<feBlend mode="normal" in="SourceGraphic" in2="effect1_dropShadow_917_4915" result="shape"/>
</filter>
</defs>
</svg>
