<svg width="56" height="56" viewBox="0 0 56 56" fill="none" xmlns="http://www.w3.org/2000/svg">
<rect width="56" height="56" rx="28" fill="#74CFE8"/>
<path d="M20.0002 29.334H14.6668C14.3132 29.334 13.9741 29.4745 13.724 29.7245C13.474 29.9746 13.3335 30.3137 13.3335 30.6673V41.334C13.3335 41.6876 13.474 42.0267 13.724 42.2768C13.9741 42.5268 14.3132 42.6673 14.6668 42.6673H20.0002C20.3538 42.6673 20.6929 42.5268 20.943 42.2768C21.193 42.0267 21.3335 41.6876 21.3335 41.334V30.6673C21.3335 30.3137 21.193 29.9746 20.943 29.7245C20.6929 29.4745 20.3538 29.334 20.0002 29.334ZM18.6668 40.0006H16.0002V32.0006H18.6668V40.0006ZM41.3335 24.0007H36.0002C35.6465 24.0007 35.3074 24.1411 35.0574 24.3912C34.8073 24.6412 34.6668 24.9804 34.6668 25.334V41.334C34.6668 41.6876 34.8073 42.0267 35.0574 42.2768C35.3074 42.5268 35.6465 42.6673 36.0002 42.6673H41.3335C41.6871 42.6673 42.0263 42.5268 42.2763 42.2768C42.5264 42.0267 42.6668 41.6876 42.6668 41.334V25.334C42.6668 24.9804 42.5264 24.6412 42.2763 24.3912C42.0263 24.1411 41.6871 24.0007 41.3335 24.0007ZM40.0002 40.0006H37.3335V26.6673H40.0002V40.0006ZM30.6668 13.334H25.3335C24.9799 13.334 24.6407 13.4745 24.3907 13.7245C24.1406 13.9746 24.0002 14.3137 24.0002 14.6673V41.334C24.0002 41.6876 24.1406 42.0267 24.3907 42.2768C24.6407 42.5268 24.9799 42.6673 25.3335 42.6673H30.6668C31.0205 42.6673 31.3596 42.5268 31.6096 42.2768C31.8597 42.0267 32.0002 41.6876 32.0002 41.334V14.6673C32.0002 14.3137 31.8597 13.9746 31.6096 13.7245C31.3596 13.4745 31.0205 13.334 30.6668 13.334ZM29.3335 40.0006H26.6668V16.0007H29.3335V40.0006Z" fill="black"/>
</svg>
