<svg width="64" height="64" viewBox="0 0 64 64" fill="none" xmlns="http://www.w3.org/2000/svg">
<g filter="url(#filter0_d_911_3462)">
<rect x="4" width="56" height="56" rx="28" fill="#FFAC66" shape-rendering="crispEdges"/>
<path d="M32.4002 28.2927C33.1116 27.6769 33.6822 26.9152 34.0733 26.0594C34.4644 25.2036 34.6668 24.2736 34.6668 23.3327C34.6668 21.5646 33.9645 19.8689 32.7142 18.6186C31.464 17.3684 29.7683 16.666 28.0002 16.666C26.2321 16.666 24.5364 17.3684 23.2861 18.6186C22.0359 19.8689 21.3335 21.5646 21.3335 23.3327C21.3335 24.2736 21.5359 25.2036 21.927 26.0594C22.3181 26.9152 22.8887 27.6769 23.6002 28.2927C21.7337 29.1379 20.1501 30.5027 19.0388 32.2241C17.9275 33.9454 17.3355 35.9504 17.3335 37.9993C17.3335 38.353 17.474 38.6921 17.724 38.9422C17.9741 39.1922 18.3132 39.3327 18.6668 39.3327C19.0205 39.3327 19.3596 39.1922 19.6096 38.9422C19.8597 38.6921 20.0002 38.353 20.0002 37.9993C20.0002 35.8776 20.843 33.8428 22.3433 32.3425C23.8436 30.8422 25.8784 29.9993 28.0002 29.9993C30.1219 29.9993 32.1567 30.8422 33.657 32.3425C35.1573 33.8428 36.0002 35.8776 36.0002 37.9993C36.0002 38.353 36.1406 38.6921 36.3907 38.9422C36.6407 39.1922 36.9799 39.3327 37.3335 39.3327C37.6871 39.3327 38.0263 39.1922 38.2763 38.9422C38.5264 38.6921 38.6668 38.353 38.6668 37.9993C38.6649 35.9504 38.0728 33.9454 36.9615 32.2241C35.8502 30.5027 34.2666 29.1379 32.4002 28.2927V28.2927ZM28.0002 27.3327C27.209 27.3327 26.4357 27.0981 25.7779 26.6586C25.1201 26.219 24.6074 25.5943 24.3046 24.8634C24.0019 24.1325 23.9227 23.3282 24.077 22.5523C24.2314 21.7764 24.6123 21.0637 25.1717 20.5043C25.7311 19.9448 26.4439 19.5639 27.2198 19.4095C27.9957 19.2552 28.8 19.3344 29.5309 19.6372C30.2618 19.9399 30.8865 20.4526 31.326 21.1104C31.7656 21.7682 32.0002 22.5416 32.0002 23.3327C32.0002 24.3935 31.5787 25.411 30.8286 26.1611C30.0784 26.9113 29.061 27.3327 28.0002 27.3327ZM40.9868 27.7593C41.8401 26.7985 42.3975 25.6114 42.5919 24.3411C42.7863 23.0708 42.6094 21.7714 42.0825 20.5993C41.5556 19.4273 40.7012 18.4324 39.6221 17.7346C38.543 17.0367 37.2852 16.6657 36.0002 16.666C35.6465 16.666 35.3074 16.8065 35.0574 17.0565C34.8073 17.3066 34.6668 17.6457 34.6668 17.9993C34.6668 18.353 34.8073 18.6921 35.0574 18.9422C35.3074 19.1922 35.6465 19.3327 36.0002 19.3327C37.061 19.3327 38.0784 19.7541 38.8286 20.5043C39.5787 21.2544 40.0002 22.2718 40.0002 23.3327C39.9983 24.033 39.8126 24.7206 39.4616 25.3266C39.1106 25.9326 38.6067 26.4359 38.0002 26.786C37.8025 26.9 37.6374 27.0629 37.5206 27.259C37.4039 27.4551 37.3395 27.6779 37.3335 27.906C37.3279 28.1324 37.3801 28.3564 37.485 28.557C37.59 28.7576 37.7444 28.9282 37.9335 29.0527L38.4535 29.3993L38.6268 29.4927C40.234 30.255 41.5899 31.4607 42.5348 32.9678C43.4797 34.4749 43.9742 36.2206 43.9602 37.9993C43.9602 38.353 44.1006 38.6921 44.3507 38.9422C44.6007 39.1922 44.9399 39.3327 45.2935 39.3327C45.6471 39.3327 45.9863 39.1922 46.2363 38.9422C46.4864 38.6921 46.6268 38.353 46.6268 37.9993C46.6377 35.9533 46.1253 33.9384 45.1381 32.1461C44.151 30.3538 42.722 28.8438 40.9868 27.7593V27.7593Z" fill="black"/>
</g>
<defs>
<filter id="filter0_d_911_3462" x="0" y="0" width="64" height="64" filterUnits="userSpaceOnUse" color-interpolation-filters="sRGB">
<feFlood flood-opacity="0" result="BackgroundImageFix"/>
<feColorMatrix in="SourceAlpha" type="matrix" values="0 0 0 0 0 0 0 0 0 0 0 0 0 0 0 0 0 0 127 0" result="hardAlpha"/>
<feOffset dy="4"/>
<feGaussianBlur stdDeviation="2"/>
<feComposite in2="hardAlpha" operator="out"/>
<feColorMatrix type="matrix" values="0 0 0 0 0 0 0 0 0 0 0 0 0 0 0 0 0 0 0.25 0"/>
<feBlend mode="normal" in2="BackgroundImageFix" result="effect1_dropShadow_911_3462"/>
<feBlend mode="normal" in="SourceGraphic" in2="effect1_dropShadow_911_3462" result="shape"/>
</filter>
</defs>
</svg>
