<svg width="56" height="56" viewBox="0 0 56 56" fill="none" xmlns="http://www.w3.org/2000/svg">
<rect width="56" height="56" rx="28" fill="#74CFE8"/>
<path d="M16.6668 20C16.4031 20 16.1453 20.0782 15.9261 20.2247C15.7068 20.3712 15.5359 20.5795 15.435 20.8231C15.3341 21.0667 15.3077 21.3348 15.3591 21.5935C15.4106 21.8521 15.5376 22.0897 15.724 22.2761C15.9105 22.4626 16.1481 22.5896 16.4067 22.641C16.6654 22.6925 16.9334 22.6661 17.1771 22.5652C17.4207 22.4643 17.6289 22.2934 17.7755 22.0741C17.922 21.8548 18.0002 21.597 18.0002 21.3333C18.0002 20.9797 17.8597 20.6406 17.6096 20.3905C17.3596 20.1405 17.0205 20 16.6668 20ZM22.0002 22.6667H40.6668C41.0205 22.6667 41.3596 22.5262 41.6096 22.2761C41.8597 22.0261 42.0002 21.687 42.0002 21.3333C42.0002 20.9797 41.8597 20.6406 41.6096 20.3905C41.3596 20.1405 41.0205 20 40.6668 20H22.0002C21.6465 20 21.3074 20.1405 21.0574 20.3905C20.8073 20.6406 20.6668 20.9797 20.6668 21.3333C20.6668 21.687 20.8073 22.0261 21.0574 22.2761C21.3074 22.5262 21.6465 22.6667 22.0002 22.6667ZM22.0002 26.6667C21.7365 26.6667 21.4787 26.7449 21.2594 26.8914C21.0401 27.0379 20.8692 27.2461 20.7683 27.4898C20.6674 27.7334 20.641 28.0015 20.6924 28.2601C20.7439 28.5188 20.8709 28.7563 21.0574 28.9428C21.2438 29.1293 21.4814 29.2563 21.74 29.3077C21.9987 29.3592 22.2668 29.3328 22.5104 29.2318C22.754 29.1309 22.9623 28.96 23.1088 28.7408C23.2553 28.5215 23.3335 28.2637 23.3335 28C23.3335 27.6464 23.193 27.3072 22.943 27.0572C22.6929 26.8071 22.3538 26.6667 22.0002 26.6667ZM27.3335 33.3333C27.0698 33.3333 26.812 33.4115 26.5927 33.558C26.3735 33.7045 26.2026 33.9128 26.1017 34.1564C26.0007 34.4001 25.9743 34.6681 26.0258 34.9268C26.0772 35.1854 26.2042 35.423 26.3907 35.6095C26.5772 35.7959 26.8147 35.9229 27.0734 35.9744C27.332 36.0258 27.6001 35.9994 27.8437 35.8985C28.0874 35.7976 28.2956 35.6267 28.4421 35.4074C28.5886 35.1882 28.6668 34.9304 28.6668 34.6667C28.6668 34.313 28.5264 33.9739 28.2763 33.7239C28.0263 33.4738 27.6871 33.3333 27.3335 33.3333ZM40.6668 26.6667H27.3335C26.9799 26.6667 26.6407 26.8071 26.3907 27.0572C26.1406 27.3072 26.0002 27.6464 26.0002 28C26.0002 28.3536 26.1406 28.6928 26.3907 28.9428C26.6407 29.1929 26.9799 29.3333 27.3335 29.3333H40.6668C41.0205 29.3333 41.3596 29.1929 41.6096 28.9428C41.8597 28.6928 42.0002 28.3536 42.0002 28C42.0002 27.6464 41.8597 27.3072 41.6096 27.0572C41.3596 26.8071 41.0205 26.6667 40.6668 26.6667ZM40.6668 33.3333H32.6668C32.3132 33.3333 31.9741 33.4738 31.724 33.7239C31.474 33.9739 31.3335 34.313 31.3335 34.6667C31.3335 35.0203 31.474 35.3594 31.724 35.6095C31.9741 35.8595 32.3132 36 32.6668 36H40.6668C41.0205 36 41.3596 35.8595 41.6096 35.6095C41.8597 35.3594 42.0002 35.0203 42.0002 34.6667C42.0002 34.313 41.8597 33.9739 41.6096 33.7239C41.3596 33.4738 41.0205 33.3333 40.6668 33.3333Z" fill="black"/>
</svg>
