<svg width="56" height="56" viewBox="0 0 56 56" fill="none" xmlns="http://www.w3.org/2000/svg">
<rect width="56" height="56" rx="28" fill="#FFAC66"/>
<path d="M33.3333 38.666H22.6667C21.6058 38.666 20.5884 38.2446 19.8382 37.4944C19.0881 36.7443 18.6667 35.7269 18.6667 34.666V21.3327C18.6667 20.9791 18.5262 20.6399 18.2761 20.3899C18.0261 20.1398 17.687 19.9993 17.3333 19.9993C16.9797 19.9993 16.6406 20.1398 16.3905 20.3899C16.1405 20.6399 16 20.9791 16 21.3327V34.666C16 36.4341 16.7024 38.1298 17.9526 39.3801C19.2029 40.6303 20.8986 41.3327 22.6667 41.3327H33.3333C33.687 41.3327 34.0261 41.1922 34.2761 40.9422C34.5262 40.6921 34.6667 40.353 34.6667 39.9993C34.6667 39.6457 34.5262 39.3066 34.2761 39.0565C34.0261 38.8065 33.687 38.666 33.3333 38.666ZM25.3333 29.3327C25.3333 29.6863 25.4738 30.0254 25.7239 30.2755C25.9739 30.5255 26.313 30.666 26.6667 30.666H33.3333C33.687 30.666 34.0261 30.5255 34.2761 30.2755C34.5262 30.0254 34.6667 29.6863 34.6667 29.3327C34.6667 28.9791 34.5262 28.6399 34.2761 28.3899C34.0261 28.1398 33.687 27.9993 33.3333 27.9993H26.6667C26.313 27.9993 25.9739 28.1398 25.7239 28.3899C25.4738 28.6399 25.3333 28.9791 25.3333 29.3327ZM40 23.9193C39.9861 23.7969 39.9593 23.6762 39.92 23.5593V23.4393C39.8559 23.3023 39.7704 23.1762 39.6667 23.066V23.066L31.6667 15.066C31.5564 14.9623 31.4304 14.8768 31.2933 14.8127C31.2535 14.807 31.2131 14.807 31.1733 14.8127C31.0379 14.735 30.8883 14.6851 30.7333 14.666H25.3333C24.2725 14.666 23.2551 15.0874 22.5049 15.8376C21.7548 16.5877 21.3333 17.6051 21.3333 18.666V31.9993C21.3333 33.0602 21.7548 34.0776 22.5049 34.8278C23.2551 35.5779 24.2725 35.9993 25.3333 35.9993H36C37.0609 35.9993 38.0783 35.5779 38.8284 34.8278C39.5786 34.0776 40 33.0602 40 31.9993V23.9993C40 23.9993 40 23.9993 40 23.9193ZM32 19.2127L35.4533 22.666H33.3333C32.9797 22.666 32.6406 22.5255 32.3905 22.2755C32.1405 22.0254 32 21.6863 32 21.3327V19.2127ZM37.3333 31.9993C37.3333 32.353 37.1929 32.6921 36.9428 32.9422C36.6928 33.1922 36.3536 33.3327 36 33.3327H25.3333C24.9797 33.3327 24.6406 33.1922 24.3905 32.9422C24.1405 32.6921 24 32.353 24 31.9993V18.666C24 18.3124 24.1405 17.9733 24.3905 17.7232C24.6406 17.4732 24.9797 17.3327 25.3333 17.3327H29.3333V21.3327C29.3369 21.7875 29.4181 22.2385 29.5733 22.666H26.6667C26.313 22.666 25.9739 22.8065 25.7239 23.0565C25.4738 23.3066 25.3333 23.6457 25.3333 23.9993C25.3333 24.353 25.4738 24.6921 25.7239 24.9422C25.9739 25.1922 26.313 25.3327 26.6667 25.3327H37.3333V31.9993Z" fill="black"/>
</svg>
