<svg width="64" height="64" viewBox="0 0 64 64" fill="none" xmlns="http://www.w3.org/2000/svg">
<g filter="url(#filter0_d_911_3468)">
<rect x="4" width="56" height="56" rx="28" fill="#FFAC66" shape-rendering="crispEdges"/>
<path d="M25.3332 31.9993H29.3332C29.6868 31.9993 30.0259 31.8589 30.276 31.6088C30.526 31.3588 30.6665 31.0196 30.6665 30.666C30.6665 30.3124 30.526 29.9733 30.276 29.7232C30.0259 29.4732 29.6868 29.3327 29.3332 29.3327H25.3332C24.9795 29.3327 24.6404 29.4732 24.3904 29.7232C24.1403 29.9733 23.9998 30.3124 23.9998 30.666C23.9998 31.0196 24.1403 31.3588 24.3904 31.6088C24.6404 31.8589 24.9795 31.9993 25.3332 31.9993ZM41.3332 18.666H22.6665C21.6056 18.666 20.5882 19.0874 19.8381 19.8376C19.0879 20.5877 18.6665 21.6051 18.6665 22.666V34.666C18.6665 35.7269 19.0879 36.7443 19.8381 37.4944C20.5882 38.2446 21.6056 38.666 22.6665 38.666H41.3332C42.394 38.666 43.4115 38.2446 44.1616 37.4944C44.9117 36.7443 45.3332 35.7269 45.3332 34.666V22.666C45.3332 21.6051 44.9117 20.5877 44.1616 19.8376C43.4115 19.0874 42.394 18.666 41.3332 18.666ZM42.6665 34.666C42.6665 35.0196 42.526 35.3588 42.276 35.6088C42.0259 35.8589 41.6868 35.9993 41.3332 35.9993H22.6665C22.3129 35.9993 21.9737 35.8589 21.7237 35.6088C21.4736 35.3588 21.3332 35.0196 21.3332 34.666V26.666H42.6665V34.666ZM42.6665 23.9993H21.3332V22.666C21.3332 22.3124 21.4736 21.9733 21.7237 21.7232C21.9737 21.4732 22.3129 21.3327 22.6665 21.3327H41.3332C41.6868 21.3327 42.0259 21.4732 42.276 21.7232C42.526 21.9733 42.6665 22.3124 42.6665 22.666V23.9993Z" fill="black"/>
</g>
<defs>
<filter id="filter0_d_911_3468" x="0" y="0" width="64" height="64" filterUnits="userSpaceOnUse" color-interpolation-filters="sRGB">
<feFlood flood-opacity="0" result="BackgroundImageFix"/>
<feColorMatrix in="SourceAlpha" type="matrix" values="0 0 0 0 0 0 0 0 0 0 0 0 0 0 0 0 0 0 127 0" result="hardAlpha"/>
<feOffset dy="4"/>
<feGaussianBlur stdDeviation="2"/>
<feComposite in2="hardAlpha" operator="out"/>
<feColorMatrix type="matrix" values="0 0 0 0 0 0 0 0 0 0 0 0 0 0 0 0 0 0 0.25 0"/>
<feBlend mode="normal" in2="BackgroundImageFix" result="effect1_dropShadow_911_3468"/>
<feBlend mode="normal" in="SourceGraphic" in2="effect1_dropShadow_911_3468" result="shape"/>
</filter>
</defs>
</svg>
