<svg width="56" height="56" viewBox="0 0 56 56" fill="none" xmlns="http://www.w3.org/2000/svg">
<rect width="56" height="56" rx="28" fill="#74CFE8"/>
<path d="M39.6133 34.2793L36.3867 31.0527C36.2627 30.9277 36.1152 30.8285 35.9528 30.7608C35.7903 30.6931 35.616 30.6583 35.44 30.6583C35.264 30.6583 35.0897 30.6931 34.9272 30.7608C34.7648 30.8285 34.6173 30.9277 34.4933 31.0527L29.72 35.826C29.5964 35.9506 29.4987 36.0984 29.4323 36.2608C29.366 36.4233 29.3323 36.5972 29.3333 36.7727V39.9993C29.3333 40.353 29.4738 40.6921 29.7239 40.9422C29.9739 41.1922 30.313 41.3327 30.6667 41.3327H33.8933C34.0688 41.3337 34.2428 41.3001 34.4052 41.2337C34.5677 41.1674 34.7154 41.0696 34.84 40.946L39.6133 36.1727C39.7383 36.0487 39.8375 35.9013 39.9052 35.7388C39.9729 35.5763 40.0077 35.402 40.0077 35.226C40.0077 35.05 39.9729 34.8757 39.9052 34.7132C39.8375 34.5508 39.7383 34.4033 39.6133 34.2793V34.2793ZM33.3333 38.666H32V37.3327L35.44 33.8927L36.7733 35.226L33.3333 38.666ZM25.3333 38.666H20C19.6464 38.666 19.3072 38.5255 19.0572 38.2755C18.8071 38.0254 18.6667 37.6863 18.6667 37.3327V18.666C18.6667 18.3124 18.8071 17.9733 19.0572 17.7232C19.3072 17.4732 19.6464 17.3327 20 17.3327H26.6667V21.3327C26.6667 22.3935 27.0881 23.411 27.8382 24.1611C28.5884 24.9113 29.6058 25.3327 30.6667 25.3327H34.6667V26.666C34.6667 27.0196 34.8071 27.3588 35.0572 27.6088C35.3072 27.8589 35.6464 27.9993 36 27.9993C36.3536 27.9993 36.6928 27.8589 36.9428 27.6088C37.1929 27.3588 37.3333 27.0196 37.3333 26.666V23.9993C37.3333 23.9993 37.3333 23.9993 37.3333 23.9193C37.3194 23.7969 37.2926 23.6762 37.2533 23.5593V23.4393C37.1892 23.3023 37.1037 23.1762 37 23.066L29 15.066C28.8898 14.9623 28.7638 14.8768 28.6267 14.8127C28.5869 14.807 28.5465 14.807 28.5067 14.8127L28.08 14.666H20C18.9391 14.666 17.9217 15.0874 17.1716 15.8376C16.4214 16.5877 16 17.6051 16 18.666V37.3327C16 38.3935 16.4214 39.411 17.1716 40.1611C17.9217 40.9113 18.9391 41.3327 20 41.3327H25.3333C25.687 41.3327 26.0261 41.1922 26.2761 40.9422C26.5262 40.6921 26.6667 40.353 26.6667 39.9993C26.6667 39.6457 26.5262 39.3066 26.2761 39.0565C26.0261 38.8065 25.687 38.666 25.3333 38.666ZM29.3333 19.2127L32.7867 22.666H30.6667C30.313 22.666 29.9739 22.5255 29.7239 22.2755C29.4738 22.0254 29.3333 21.6863 29.3333 21.3327V19.2127ZM22.6667 30.666H30.6667C31.0203 30.666 31.3594 30.5255 31.6095 30.2755C31.8595 30.0254 32 29.6863 32 29.3327C32 28.9791 31.8595 28.6399 31.6095 28.3899C31.3594 28.1398 31.0203 27.9993 30.6667 27.9993H22.6667C22.313 27.9993 21.9739 28.1398 21.7239 28.3899C21.4738 28.6399 21.3333 28.9791 21.3333 29.3327C21.3333 29.6863 21.4738 30.0254 21.7239 30.2755C21.9739 30.5255 22.313 30.666 22.6667 30.666ZM22.6667 25.3327H24C24.3536 25.3327 24.6928 25.1922 24.9428 24.9422C25.1929 24.6921 25.3333 24.353 25.3333 23.9993C25.3333 23.6457 25.1929 23.3066 24.9428 23.0565C24.6928 22.8065 24.3536 22.666 24 22.666H22.6667C22.313 22.666 21.9739 22.8065 21.7239 23.0565C21.4738 23.3066 21.3333 23.6457 21.3333 23.9993C21.3333 24.353 21.4738 24.6921 21.7239 24.9422C21.9739 25.1922 22.313 25.3327 22.6667 25.3327ZM25.3333 33.3327H22.6667C22.313 33.3327 21.9739 33.4732 21.7239 33.7232C21.4738 33.9733 21.3333 34.3124 21.3333 34.666C21.3333 35.0196 21.4738 35.3588 21.7239 35.6088C21.9739 35.8589 22.313 35.9993 22.6667 35.9993H25.3333C25.687 35.9993 26.0261 35.8589 26.2761 35.6088C26.5262 35.3588 26.6667 35.0196 26.6667 34.666C26.6667 34.3124 26.5262 33.9733 26.2761 33.7232C26.0261 33.4732 25.687 33.3327 25.3333 33.3327Z" fill="black"/>
</svg>
