<svg width="64" height="64" viewBox="0 0 64 64" fill="none" xmlns="http://www.w3.org/2000/svg">
<g filter="url(#filter0_d_911_3474)">
<rect x="4" width="56" height="56" rx="28" fill="#FFAC66" shape-rendering="crispEdges"/>
<path d="M26.6667 22.666C26.313 22.666 25.9739 22.8065 25.7239 23.0565C25.4738 23.3066 25.3333 23.6457 25.3333 23.9993C25.3333 24.353 25.4738 24.6921 25.7239 24.9422C25.9739 25.1922 26.313 25.3327 26.6667 25.3327H28C28.3536 25.3327 28.6928 25.1922 28.9428 24.9422C29.1929 24.6921 29.3333 24.353 29.3333 23.9993C29.3333 23.6457 29.1929 23.3066 28.9428 23.0565C28.6928 22.8065 28.3536 22.666 28 22.666H26.6667ZM33.3333 38.666H24C23.6464 38.666 23.3072 38.5255 23.0572 38.2755C22.8071 38.0254 22.6667 37.6863 22.6667 37.3327V18.666C22.6667 18.3124 22.8071 17.9733 23.0572 17.7232C23.3072 17.4732 23.6464 17.3327 24 17.3327H30.6667V21.3327C30.6667 22.3935 31.0881 23.411 31.8382 24.1611C32.5884 24.9113 33.6058 25.3327 34.6667 25.3327H38.6667V27.9993C38.6667 28.353 38.8071 28.6921 39.0572 28.9422C39.3072 29.1922 39.6464 29.3327 40 29.3327C40.3536 29.3327 40.6928 29.1922 40.9428 28.9422C41.1929 28.6921 41.3333 28.353 41.3333 27.9993V23.9993C41.3333 23.9993 41.3333 23.9993 41.3333 23.9193C41.3194 23.7969 41.2926 23.6762 41.2533 23.5593V23.4393C41.1892 23.3023 41.1037 23.1762 41 23.066L33 15.066C32.8898 14.9623 32.7638 14.8768 32.6267 14.8127C32.5826 14.805 32.5374 14.805 32.4933 14.8127C32.3637 14.7434 32.2243 14.6939 32.08 14.666H24C22.9391 14.666 21.9217 15.0874 21.1716 15.8376C20.4214 16.5877 20 17.6051 20 18.666V37.3327C20 38.3935 20.4214 39.411 21.1716 40.1611C21.9217 40.9113 22.9391 41.3327 24 41.3327H33.3333C33.687 41.3327 34.0261 41.1922 34.2761 40.9422C34.5262 40.6921 34.6667 40.353 34.6667 39.9993C34.6667 39.6457 34.5262 39.3066 34.2761 39.0565C34.0261 38.8065 33.687 38.666 33.3333 38.666ZM33.3333 19.2127L36.7867 22.666H34.6667C34.313 22.666 33.9739 22.5255 33.7239 22.2755C33.4738 22.0254 33.3333 21.6863 33.3333 21.3327V19.2127ZM34.6667 27.9993H26.6667C26.313 27.9993 25.9739 28.1398 25.7239 28.3899C25.4738 28.6399 25.3333 28.9791 25.3333 29.3327C25.3333 29.6863 25.4738 30.0254 25.7239 30.2755C25.9739 30.5255 26.313 30.666 26.6667 30.666H34.6667C35.0203 30.666 35.3594 30.5255 35.6095 30.2755C35.8595 30.0254 36 29.6863 36 29.3327C36 28.9791 35.8595 28.6399 35.6095 28.3899C35.3594 28.1398 35.0203 27.9993 34.6667 27.9993ZM43.6133 36.386C43.4894 36.261 43.3419 36.1619 43.1794 36.0942C43.017 36.0265 42.8427 35.9916 42.6667 35.9916C42.4906 35.9916 42.3164 36.0265 42.1539 36.0942C41.9914 36.1619 41.844 36.261 41.72 36.386L41.3333 36.786V33.3327C41.3333 32.9791 41.1929 32.6399 40.9428 32.3899C40.6928 32.1398 40.3536 31.9993 40 31.9993C39.6464 31.9993 39.3072 32.1398 39.0572 32.3899C38.8071 32.6399 38.6667 32.9791 38.6667 33.3327V36.786L38.28 36.386C38.0289 36.1349 37.6884 35.9939 37.3333 35.9939C36.9783 35.9939 36.6377 36.1349 36.3867 36.386C36.1356 36.6371 35.9945 36.9776 35.9945 37.3327C35.9945 37.6878 36.1356 38.0283 36.3867 38.2793L39.0533 40.946C39.1801 41.0674 39.3297 41.1626 39.4933 41.226C39.6529 41.2966 39.8255 41.333 40 41.333C40.1745 41.333 40.3471 41.2966 40.5067 41.226C40.6703 41.1626 40.8199 41.0674 40.9467 40.946L43.6133 38.2793C43.7383 38.1554 43.8375 38.0079 43.9052 37.8455C43.9729 37.683 44.0077 37.5087 44.0077 37.3327C44.0077 37.1567 43.9729 36.9824 43.9052 36.8199C43.8375 36.6574 43.7383 36.51 43.6133 36.386ZM32 35.9993C32.3536 35.9993 32.6928 35.8589 32.9428 35.6088C33.1929 35.3588 33.3333 35.0196 33.3333 34.666C33.3333 34.3124 33.1929 33.9733 32.9428 33.7232C32.6928 33.4732 32.3536 33.3327 32 33.3327H26.6667C26.313 33.3327 25.9739 33.4732 25.7239 33.7232C25.4738 33.9733 25.3333 34.3124 25.3333 34.666C25.3333 35.0196 25.4738 35.3588 25.7239 35.6088C25.9739 35.8589 26.313 35.9993 26.6667 35.9993H32Z" fill="black"/>
</g>
<defs>
<filter id="filter0_d_911_3474" x="0" y="0" width="64" height="64" filterUnits="userSpaceOnUse" color-interpolation-filters="sRGB">
<feFlood flood-opacity="0" result="BackgroundImageFix"/>
<feColorMatrix in="SourceAlpha" type="matrix" values="0 0 0 0 0 0 0 0 0 0 0 0 0 0 0 0 0 0 127 0" result="hardAlpha"/>
<feOffset dy="4"/>
<feGaussianBlur stdDeviation="2"/>
<feComposite in2="hardAlpha" operator="out"/>
<feColorMatrix type="matrix" values="0 0 0 0 0 0 0 0 0 0 0 0 0 0 0 0 0 0 0.25 0"/>
<feBlend mode="normal" in2="BackgroundImageFix" result="effect1_dropShadow_911_3474"/>
<feBlend mode="normal" in="SourceGraphic" in2="effect1_dropShadow_911_3474" result="shape"/>
</filter>
</defs>
</svg>
