<svg width="20" height="20" viewBox="0 0 20 20" fill="none" xmlns="http://www.w3.org/2000/svg">
<path d="M18.2085 14.5589L14.0419 7.8922C13.9671 7.77161 13.8628 7.6721 13.7389 7.60309C13.6149 7.53408 13.4754 7.49786 13.3335 7.49786C13.1917 7.49786 13.0521 7.53408 12.9282 7.60309C12.8042 7.6721 12.6999 7.77161 12.6252 7.8922L11.7919 9.25054L9.0502 4.58387C8.97641 4.45952 8.87154 4.3565 8.74588 4.28495C8.62023 4.21341 8.47813 4.17578 8.33353 4.17578C8.18893 4.17578 8.04683 4.21341 7.92117 4.28495C7.79552 4.3565 7.69065 4.45952 7.61686 4.58387L1.78353 14.5839C1.7106 14.7102 1.6721 14.8534 1.67188 14.9993C1.67165 15.1451 1.70972 15.2885 1.78227 15.415C1.85481 15.5416 1.9593 15.6469 2.08529 15.7204C2.21127 15.7938 2.35434 15.833 2.5002 15.8339H17.5002C17.6491 15.8342 17.7953 15.7946 17.9238 15.7192C18.0522 15.6438 18.158 15.5354 18.2303 15.4052C18.3026 15.2751 18.3388 15.1279 18.3349 14.9791C18.3311 14.8302 18.2874 14.6851 18.2085 14.5589ZM8.70853 14.1672H3.9502L8.33353 6.6672L10.7752 10.8339L8.70853 14.1672ZM10.6669 14.1672L12.5002 11.3089L13.3335 9.90887L16.0002 14.1672H10.6669Z" fill="black"/>
</svg>
