<svg width="56" height="56" viewBox="0 0 56 56" fill="none" xmlns="http://www.w3.org/2000/svg">
<rect width="56" height="56" rx="28" fill="#F08787"/>
<path d="M38.6668 23.9193C38.6529 23.7969 38.6261 23.6762 38.5868 23.5593V23.4393C38.5227 23.3023 38.4372 23.1762 38.3335 23.066V23.066L30.3335 15.066C30.2233 14.9623 30.0973 14.8768 29.9602 14.8127H29.8402C29.7047 14.735 29.5551 14.6851 29.4002 14.666H21.3335C20.2726 14.666 19.2552 15.0874 18.5051 15.8376C17.7549 16.5877 17.3335 17.6051 17.3335 18.666V37.3327C17.3335 38.3935 17.7549 39.411 18.5051 40.1611C19.2552 40.9113 20.2726 41.3327 21.3335 41.3327H34.6668C35.7277 41.3327 36.7451 40.9113 37.4953 40.1611C38.2454 39.411 38.6668 38.3935 38.6668 37.3327V23.9993C38.6668 23.9993 38.6668 23.9993 38.6668 23.9193ZM30.6668 19.2127L34.1202 22.666H32.0002C31.6465 22.666 31.3074 22.5255 31.0574 22.2755C30.8073 22.0254 30.6668 21.6863 30.6668 21.3327V19.2127ZM36.0002 37.3327C36.0002 37.6863 35.8597 38.0254 35.6096 38.2755C35.3596 38.5255 35.0205 38.666 34.6668 38.666H21.3335C20.9799 38.666 20.6407 38.5255 20.3907 38.2755C20.1406 38.0254 20.0002 37.6863 20.0002 37.3327V18.666C20.0002 18.3124 20.1406 17.9733 20.3907 17.7232C20.6407 17.4732 20.9799 17.3327 21.3335 17.3327H28.0002V21.3327C28.0002 22.3935 28.4216 23.411 29.1717 24.1611C29.9219 24.9113 30.9393 25.3327 32.0002 25.3327H36.0002V37.3327Z" fill="black"/>
</svg>
