<svg width="56" height="56" viewBox="0 0 56 56" fill="none" xmlns="http://www.w3.org/2000/svg">
<rect width="56" height="56" rx="28" fill="#F08787"/>
<path d="M24.0002 25.3327H25.3335C25.6871 25.3327 26.0263 25.1922 26.2763 24.9422C26.5264 24.6921 26.6668 24.353 26.6668 23.9993C26.6668 23.6457 26.5264 23.3066 26.2763 23.0565C26.0263 22.8065 25.6871 22.666 25.3335 22.666H24.0002C23.6465 22.666 23.3074 22.8065 23.0574 23.0565C22.8073 23.3066 22.6668 23.6457 22.6668 23.9993C22.6668 24.353 22.8073 24.6921 23.0574 24.9422C23.3074 25.1922 23.6465 25.3327 24.0002 25.3327V25.3327ZM32.0002 27.9993H24.0002C23.6465 27.9993 23.3074 28.1398 23.0574 28.3899C22.8073 28.6399 22.6668 28.9791 22.6668 29.3327C22.6668 29.6863 22.8073 30.0254 23.0574 30.2755C23.3074 30.5255 23.6465 30.666 24.0002 30.666H32.0002C32.3538 30.666 32.6929 30.5255 32.943 30.2755C33.193 30.0254 33.3335 29.6863 33.3335 29.3327C33.3335 28.9791 33.193 28.6399 32.943 28.3899C32.6929 28.1398 32.3538 27.9993 32.0002 27.9993ZM32.0002 33.3327H24.0002C23.6465 33.3327 23.3074 33.4732 23.0574 33.7232C22.8073 33.9733 22.6668 34.3124 22.6668 34.666C22.6668 35.0196 22.8073 35.3588 23.0574 35.6088C23.3074 35.8589 23.6465 35.9993 24.0002 35.9993H32.0002C32.3538 35.9993 32.6929 35.8589 32.943 35.6088C33.193 35.3588 33.3335 35.0196 33.3335 34.666C33.3335 34.3124 33.193 33.9733 32.943 33.7232C32.6929 33.4732 32.3538 33.3327 32.0002 33.3327ZM38.2802 39.0527C38.2168 38.9953 38.15 38.9419 38.0802 38.8927C38.0058 38.8422 37.9251 38.8019 37.8402 38.7727L37.6002 38.666C37.3402 38.6153 37.0709 38.6431 36.8268 38.746C36.6614 38.8059 36.5111 38.9014 36.3867 39.0259C36.2622 39.1503 36.1667 39.3006 36.1068 39.466C36.028 39.6323 35.9914 39.8155 36.0002 39.9993C35.9978 40.1977 36.0398 40.3941 36.123 40.5742C36.2062 40.7542 36.3285 40.9135 36.481 41.0403C36.6335 41.1671 36.8125 41.2583 37.0047 41.3072C37.1969 41.3561 37.3977 41.3615 37.5923 41.323C37.7869 41.2845 37.9704 41.203 38.1295 41.0846C38.2887 40.9661 38.4193 40.8137 38.5121 40.6383C38.6048 40.463 38.6572 40.2691 38.6656 40.0709C38.6739 39.8727 38.6379 39.6752 38.5602 39.4927C38.4926 39.3311 38.3979 39.1823 38.2802 39.0527V39.0527ZM38.6668 23.9193C38.6529 23.7969 38.6261 23.6762 38.5868 23.5593V23.4393C38.5227 23.3023 38.4372 23.1762 38.3335 23.066V23.066L30.3335 15.066C30.2233 14.9623 30.0973 14.8768 29.9602 14.8127C29.9204 14.807 29.88 14.807 29.8402 14.8127C29.7047 14.735 29.5551 14.6851 29.4002 14.666H21.3335C20.2726 14.666 19.2552 15.0874 18.5051 15.8376C17.7549 16.5877 17.3335 17.6051 17.3335 18.666V37.3327C17.3335 38.3935 17.7549 39.411 18.5051 40.1611C19.2552 40.9113 20.2726 41.3327 21.3335 41.3327H32.0002C32.3538 41.3327 32.6929 41.1922 32.943 40.9422C33.193 40.6921 33.3335 40.353 33.3335 39.9993C33.3335 39.6457 33.193 39.3066 32.943 39.0565C32.6929 38.8065 32.3538 38.666 32.0002 38.666H21.3335C20.9799 38.666 20.6407 38.5255 20.3907 38.2755C20.1406 38.0254 20.0002 37.6863 20.0002 37.3327V18.666C20.0002 18.3124 20.1406 17.9733 20.3907 17.7232C20.6407 17.4732 20.9799 17.3327 21.3335 17.3327H28.0002V21.3327C28.0002 22.3935 28.4216 23.411 29.1717 24.1611C29.9219 24.9113 30.9393 25.3327 32.0002 25.3327H36.0002V27.9993C36.0002 28.353 36.1406 28.6921 36.3907 28.9422C36.6407 29.1922 36.9799 29.3327 37.3335 29.3327C37.6871 29.3327 38.0263 29.1922 38.2763 28.9422C38.5264 28.6921 38.6668 28.353 38.6668 27.9993V23.9993C38.6668 23.9993 38.6668 23.9993 38.6668 23.9193ZM32.0002 22.666C31.6465 22.666 31.3074 22.5255 31.0574 22.2755C30.8073 22.0254 30.6668 21.6863 30.6668 21.3327V19.2127L34.1202 22.666H32.0002ZM37.3335 31.9993C36.9799 31.9993 36.6407 32.1398 36.3907 32.3899C36.1406 32.6399 36.0002 32.9791 36.0002 33.3327V35.9993C36.0002 36.353 36.1406 36.6921 36.3907 36.9422C36.6407 37.1922 36.9799 37.3327 37.3335 37.3327C37.6871 37.3327 38.0263 37.1922 38.2763 36.9422C38.5264 36.6921 38.6668 36.353 38.6668 35.9993V33.3327C38.6668 32.9791 38.5264 32.6399 38.2763 32.3899C38.0263 32.1398 37.6871 31.9993 37.3335 31.9993Z" fill="black"/>
</svg>
