<svg width="56" height="56" viewBox="0 0 56 56" fill="none" xmlns="http://www.w3.org/2000/svg">
<rect width="56" height="56" rx="28" fill="#F08787"/>
<path d="M39.9998 30.6673H38.6665V21.334C38.6665 20.2731 38.2451 19.2557 37.4949 18.5056C36.7448 17.7554 35.7274 17.334 34.6665 17.334H21.3332C20.2723 17.334 19.2549 17.7554 18.5047 18.5056C17.7546 19.2557 17.3332 20.2731 17.3332 21.334V30.6673H15.9998C15.6462 30.6673 15.3071 30.8078 15.057 31.0578C14.807 31.3079 14.6665 31.647 14.6665 32.0007V34.6673C14.6665 35.7282 15.0879 36.7456 15.8381 37.4957C16.5882 38.2459 17.6056 38.6673 18.6665 38.6673H37.3332C38.394 38.6673 39.4115 38.2459 40.1616 37.4957C40.9117 36.7456 41.3332 35.7282 41.3332 34.6673V32.0007C41.3332 31.647 41.1927 31.3079 40.9426 31.0578C40.6926 30.8078 40.3535 30.6673 39.9998 30.6673ZM19.9998 21.334C19.9998 20.9804 20.1403 20.6412 20.3904 20.3912C20.6404 20.1411 20.9795 20.0007 21.3332 20.0007H34.6665C35.0201 20.0007 35.3593 20.1411 35.6093 20.3912C35.8594 20.6412 35.9998 20.9804 35.9998 21.334V30.6673H19.9998V21.334ZM38.6665 34.6673C38.6665 35.0209 38.526 35.3601 38.276 35.6101C38.0259 35.8602 37.6868 36.0006 37.3332 36.0006H18.6665C18.3129 36.0006 17.9737 35.8602 17.7237 35.6101C17.4736 35.3601 17.3332 35.0209 17.3332 34.6673V33.334H38.6665V34.6673Z" fill="black"/>
</svg>
