<svg width="23" height="22" viewBox="0 0 23 22" fill="none" xmlns="http://www.w3.org/2000/svg">
<path d="M0.5 22L2.0538 16.3506C1.09499 14.6969 0.591183 12.8223 0.592104 10.9001C0.594867 4.89042 5.50862 0 11.5461 0C14.4759 0.000916667 17.2261 1.13667 19.2948 3.19733C21.3625 5.258 22.5009 7.997 22.5 10.9102C22.4972 16.9208 17.5835 21.8112 11.5461 21.8112C9.71318 21.8103 7.90702 21.3528 6.30717 20.4838L0.5 22ZM6.57611 18.5103C8.11978 19.4223 9.59344 19.9687 11.5424 19.9696C16.5602 19.9696 20.6478 15.9051 20.6505 10.9083C20.6524 5.9015 16.5841 1.8425 11.5497 1.84067C6.52822 1.84067 2.4434 5.90517 2.44156 10.901C2.44063 12.9406 3.04115 14.4677 4.04969 16.0655L3.12957 19.4095L6.57611 18.5103ZM17.064 13.5016C16.9959 13.3879 16.8135 13.3201 16.539 13.1835C16.2655 13.0469 14.9198 12.3878 14.6684 12.2971C14.4179 12.2063 14.2355 12.1605 14.0522 12.4337C13.8698 12.7059 13.3448 13.3201 13.1855 13.5016C13.0262 13.6831 12.8659 13.706 12.5924 13.5694C12.3188 13.4328 11.4364 13.1459 10.3911 12.2173C9.57778 11.495 9.02792 10.6031 8.86858 10.3299C8.70924 10.0577 8.852 9.91008 8.98832 9.77442C9.11174 9.6525 9.26187 9.45633 9.3991 9.29683C9.53818 9.13917 9.58331 9.0255 9.67542 8.84308C9.7666 8.66158 9.72147 8.50208 9.65239 8.3655C9.58331 8.22983 9.03621 6.88875 8.80872 6.34333C8.58582 5.81258 8.36017 5.88408 8.19254 5.87583L7.66755 5.86667C7.48518 5.86667 7.1886 5.9345 6.93808 6.20767C6.68756 6.48083 5.9802 7.139 5.9802 8.48008C5.9802 9.82117 6.96111 11.1164 7.09742 11.2979C7.23466 11.4794 9.027 14.2313 11.7726 15.411C12.4256 15.6915 12.9359 15.8593 13.3329 15.9848C13.9887 16.192 14.5855 16.1627 15.0571 16.093C15.583 16.0151 16.6763 15.4339 16.9047 14.7977C17.1331 14.1607 17.1331 13.6153 17.064 13.5016Z" fill="white"/>
</svg>
