<svg width="413" height="190" viewBox="0 0 413 190" fill="none" xmlns="http://www.w3.org/2000/svg">
<path d="M214.408 170.738L221.678 172.635C218.975 183.757 211.144 189.186 200.703 189.186C187.276 189.186 178.049 180.326 178.049 167.032C178.049 153.737 187.28 144.873 200.703 144.873C211.144 144.873 218.975 150.297 221.678 161.423L214.408 163.321C212.545 154.007 208.348 151.115 200.61 151.115C190.261 151.115 185.412 156.179 185.412 167.032C185.412 177.884 190.261 182.948 200.61 182.948C208.348 182.948 212.545 180.056 214.408 170.738Z" fill="#E80537"/>
<path d="M287.599 170.738L294.869 172.635C292.166 183.757 284.335 189.186 273.893 189.186C260.466 189.186 251.239 180.326 251.239 167.032C251.239 153.737 260.471 144.873 273.893 144.873C284.335 144.873 292.166 150.297 294.869 161.423L287.599 163.321C285.735 154.007 281.539 151.115 273.801 151.115C263.452 151.115 258.602 156.179 258.602 167.032C258.602 177.884 263.452 182.948 273.801 182.948C281.539 182.948 285.735 180.056 287.599 170.738Z" fill="#E80537"/>
<path d="M306.062 130.187H313.239V188.279H306.062V130.187Z" fill="#E80537"/>
<path d="M369.742 167.025C369.742 180.319 359.671 189.179 347.088 189.179C334.504 189.179 324.434 180.319 324.434 167.025C324.434 153.731 334.504 144.866 347.088 144.866C359.671 144.866 369.742 153.731 369.742 167.025ZM362.374 167.025C362.374 156.263 357.432 151.199 347.083 151.199C336.734 151.199 331.792 156.263 331.792 167.025C331.792 177.787 336.734 182.851 347.083 182.851C357.432 182.851 362.374 177.787 362.374 167.025Z" fill="#E80537"/>
<path d="M377.015 176.069L384.1 173.807C385.31 180.679 388.852 183.031 396.127 183.031C402.748 183.031 405.915 181.223 405.915 177.243C405.915 173.627 404.612 172.359 399.294 171.365L390.716 169.737C384.378 168.563 378.504 165.487 378.504 157.616C378.504 149.746 384.939 144.866 394.634 144.866C403.026 144.866 410.389 148.122 412.253 158.34L405.168 160.238C404.236 152.188 400.694 151.014 394.912 151.014C388.667 151.014 385.774 152.912 385.774 157.072C385.774 160.508 387.081 162.136 391.087 162.86L402.09 164.938C408.525 166.112 412.999 169.278 412.999 176.06C412.999 183.931 406.1 189.174 395.659 189.174C386.149 189.174 379.065 184.835 377.011 176.06L377.015 176.069Z" fill="#E80537"/>
<path d="M232.911 145.72H240.098V188.283H232.911V145.72ZM232.87 133.747C231.868 132.835 231.307 131.553 231.321 130.222C231.298 128.868 231.859 127.568 232.87 126.637C233.834 125.684 235.16 125.153 236.537 125.166C237.905 125.148 239.222 125.679 240.172 126.637C241.164 127.577 241.711 128.877 241.688 130.222C241.679 132.974 239.379 135.205 236.537 135.218C235.16 135.232 233.834 134.701 232.87 133.747Z" fill="#E80537"/>
<path d="M93.0516 3.78965C92.9125 2.43593 92.486 0.843859 90.4459 0.227717C88.531 -0.347949 86.2313 0.268193 84.4231 0.951796C71.5475 5.84046 64.2821 14.4215 60.6563 23.3578C57.0259 14.426 49.7651 5.84046 36.8895 0.951796C35.0813 0.263696 32.7816 -0.347949 30.8667 0.227717C28.822 0.839361 28.4001 2.43144 28.261 3.78965C27.1065 14.8937 28.3537 26.6274 38.1738 36.1079C43.1906 40.9516 50.5997 45.7053 60.0628 46.4878C60.2066 46.5013 60.4477 46.5013 60.6656 46.5013C60.8835 46.5013 61.12 46.5013 61.2683 46.4878C70.7268 45.7053 78.1406 40.9516 83.1573 36.1079C92.9775 26.6229 94.22 14.8937 93.0702 3.78965H93.0516Z" fill="#59D359"/>
<path d="M95.6994 103.333C81.9892 103.333 71.0239 114.568 71.2325 128.447C71.3021 131.271 70.2357 134.01 68.2513 136.079C66.3132 138.085 63.6008 139.214 60.7633 139.2C57.8979 139.191 55.1624 138.049 53.1779 136.047C51.1425 133.992 49.9927 131.258 49.9602 128.406C49.7423 114.518 38.3133 103.203 24.5243 103.167C10.7399 103.131 -0.155891 114.402 0.0527517 128.28C0.303124 144.48 6.95189 159.969 18.622 171.559C29.8238 182.973 45.3283 189.472 61.5747 189.553C77.6448 189.616 93.0149 183.167 103.976 171.761C115.344 160.122 121.543 144.615 121.237 128.582C120.955 114.694 109.526 103.369 95.6994 103.333Z" fill="#E80537"/>
<path d="M95.6994 57.3081C81.9892 57.3081 71.0239 68.5426 71.2325 82.4215C71.3021 85.2459 70.2357 87.9848 68.2513 90.0536C66.3132 92.0594 63.6008 93.1882 60.7633 93.1748C57.8979 93.1658 55.1624 92.0234 53.1779 90.0221C51.1425 87.9668 49.9927 85.2324 49.9602 82.381C49.7423 68.4931 38.3133 57.1777 24.5243 57.1417C10.7399 57.1057 -0.155891 68.3762 0.0527517 82.2551C0.303124 98.4547 6.95189 113.944 18.622 125.533C29.8238 136.948 45.3283 143.447 61.5747 143.528C77.6448 143.59 93.0149 137.141 103.976 125.736C115.344 114.097 121.543 98.5896 121.237 82.5564C120.955 68.6685 109.526 57.3441 95.6994 57.3081Z" fill="#FF7500"/>
<path d="M182.316 82.1325C176.659 76.7851 173.831 69.261 173.831 59.6231C173.831 53.5021 175.139 48.0872 177.749 43.4414C180.285 38.8676 184.129 35.1393 188.775 32.6792C193.559 30.1472 199.072 28.8789 205.457 28.8789C222.718 28.8789 232.655 36.9697 235.265 53.2188H219.236C218.657 49.4185 217.28 46.5356 215.101 44.6378C212.926 42.7399 209.732 41.7549 205.675 41.7549C200.816 41.7549 196.972 43.374 194.069 46.5401C191.167 49.7063 189.716 54.0688 189.716 59.6231C189.716 65.1773 191.167 69.4004 193.995 72.4946C196.824 75.6607 200.811 77.2078 205.818 77.2078C209.954 77.2078 213.214 76.2229 215.611 74.1811C218.003 72.2112 219.454 69.2564 219.964 65.4562H235.993C235.701 69.958 234.324 74.3205 231.931 78.1883C229.608 81.9166 226.2 84.7994 221.703 86.9132C217.206 89.0225 211.911 90.0793 205.749 90.0793C195.813 90.1513 187.982 87.4754 182.325 82.128L182.316 82.1325Z" fill="#E80537"/>
<path d="M308.942 30.3548V88.6049H293.424V70.2421C292.844 77.0646 290.739 82.1287 287.188 85.2948C283.636 88.461 278.703 90.0801 272.611 90.0801C266.954 90.0801 262.095 88.8838 257.89 86.4237C253.684 84.0311 250.42 80.5141 248.097 75.9403C245.774 71.3664 244.615 65.8122 244.615 59.4079C244.615 53.0036 245.849 47.5888 248.315 42.9474C250.782 38.3061 254.115 34.7892 258.325 32.3966C262.679 29.9365 267.608 28.6682 272.611 28.7402C278.629 28.7402 283.418 30.3593 287.044 33.5254C290.67 36.7635 292.775 41.7556 293.424 48.5107V30.2918L308.942 30.3638V30.3548ZM289.798 72.5627C292.626 69.3966 294.003 65.0341 294.003 59.6193C294.003 54.2044 292.626 49.6306 289.798 46.4644C286.97 43.2982 283.052 41.6792 278.123 41.6792C272.828 41.6792 268.623 43.2263 265.359 46.3925C262.095 49.5586 260.5 53.9211 260.5 59.4753C260.5 65.0296 262.169 69.3246 265.433 72.5582C268.697 75.7244 272.977 77.3435 278.123 77.3435C283.057 77.2715 286.97 75.7244 289.798 72.5582V72.5627Z" fill="#E80537"/>
<path d="M305.1 115.76V100.707C308.072 101.62 311.192 102.043 314.312 102.043C318.156 102.043 320.91 101.198 322.51 99.5831C324.105 97.964 324.976 95.0092 324.976 90.7907V30.4268H340.495V91.5597C340.495 97.8921 339.623 102.956 337.884 106.684C336.289 110.273 333.387 113.084 329.761 114.703C326.061 116.322 321.202 117.163 315.11 117.163C311.048 117.091 307.784 116.601 305.1 115.756V115.76Z" fill="#E80537"/>
<path d="M408.951 88.605H393.432V68.8389H393.358C393.358 73.7636 392.486 77.7753 390.822 80.9369C389.153 84.1031 386.904 86.4237 384.15 87.9034C381.396 89.3785 378.35 90.1566 375.229 90.1566C368.775 90.1566 363.916 88.3981 360.652 84.9486C357.388 81.4316 355.793 76.0123 355.793 68.6276V30.4268H371.311V64.8273C371.311 68.9784 372.183 72.0006 373.922 73.903C375.66 75.8009 378.345 76.7858 381.901 76.7858C385.022 76.7858 387.994 75.5895 390.099 73.3408C392.421 71.0876 393.581 67.926 393.581 63.9863V30.4313H408.955V88.6095L408.951 88.605Z" fill="#E80537"/>
<path d="M326.349 18.2575C324.61 16.6385 323.595 14.3898 323.595 12.0691C323.52 9.67651 324.536 7.42782 326.349 5.7368C328.018 4.05028 330.41 3.13281 332.803 3.13281C335.195 3.13281 337.518 4.04578 339.183 5.7368C340.921 7.42332 341.867 9.67651 341.867 12.0691C341.867 16.9218 337.806 20.8615 332.803 20.8615C330.336 20.8615 328.018 19.9485 326.349 18.2575Z" fill="#59D359"/>
</svg>
