<svg width="869" height="885" viewBox="0 0 869 885" fill="none" xmlns="http://www.w3.org/2000/svg">
<path d="M523.946 262.737C467.171 300.683 452.856 377.555 492.132 434.452C500.237 445.955 503.402 460.249 500.91 474.309C498.436 487.979 490.328 500.161 478.54 507.958C466.649 515.852 452.159 518.692 438.402 515.897C424.285 513.019 411.955 504.878 403.929 493.16C364.589 436.251 285.942 421.025 228.741 459.04C171.558 497.042 157.631 573.87 196.908 630.767C242.78 697.159 313.182 742.899 393.587 758.594C471.566 774.859 553.759 758.859 621.261 714.23C687.984 670.013 733.784 600.766 747.607 523.199C762.472 443.534 745.224 362.161 699.582 296.612C659.973 239.883 581.302 224.62 523.946 262.737Z" fill="#FFE082"/>
<path d="M396.558 72.1336C339.783 110.079 325.467 186.951 364.744 243.848C372.849 255.352 376.014 269.646 373.522 283.705C371.047 297.375 362.94 309.557 351.152 317.355C339.261 325.248 324.771 328.089 311.014 325.293C296.897 322.415 284.567 314.274 276.541 302.556C237.201 245.648 158.554 230.421 101.353 268.436C44.1702 306.438 30.2426 383.267 69.5194 440.164C115.392 506.555 185.794 552.295 266.199 567.991C344.178 584.256 426.371 568.256 493.873 523.626C560.596 479.409 606.396 410.163 620.219 332.595C635.084 252.931 617.836 171.557 572.194 106.009C532.585 49.2799 453.913 34.0161 396.558 72.1336Z" fill="#FFCB2E"/>
</svg>
