<svg width="968" height="973" viewBox="0 0 968 973" fill="none" xmlns="http://www.w3.org/2000/svg">
<path d="M698.338 511.444C648.598 455.709 563.146 451.892 507.483 503.093C496.253 513.622 481.25 519.224 465.641 518.662C450.456 518.061 436.026 511.13 425.787 499.546C415.428 487.865 410.147 472.6 411.083 457.272C412.054 441.541 418.998 426.947 430.471 416.47C486.138 365.199 490.673 277.686 440.793 221.501C390.929 165.335 305.583 161.93 249.92 213.131C184.974 272.921 146.131 356.143 141.355 445.631C135.594 532.58 165.425 619.185 224.038 685.523C282.084 751.08 364.064 790.164 450.194 793.342C538.755 797.331 624.283 766.272 688.351 706.86C743.781 655.325 748.353 567.78 698.338 511.444Z" fill="#FFAC66"/>
<path d="M874.338 433.459C824.597 377.725 739.145 373.908 683.482 425.108C672.253 435.638 657.25 441.239 641.64 440.678C626.455 440.076 612.026 433.146 601.786 421.562C591.427 409.881 586.146 394.616 587.083 379.288C588.053 363.557 594.998 348.962 606.471 338.486C662.137 287.215 666.672 199.702 616.792 143.517C566.929 87.3503 481.583 83.946 425.92 135.147C360.974 194.936 322.13 278.158 317.355 367.647C311.593 454.595 341.425 541.201 400.037 607.539C458.084 673.095 540.063 712.179 626.193 715.358C714.754 719.347 800.283 688.288 864.35 628.876C919.781 577.341 924.352 489.795 874.338 433.459Z" fill="#FF7500"/>
</svg>
