<svg width="713" height="722" viewBox="0 0 713 722" fill="none" xmlns="http://www.w3.org/2000/svg">
<g clip-path="url(#clip0_938_1400)">
<path d="M234.993 216.22C291.769 254.165 306.084 331.037 266.807 387.934C258.702 399.438 255.538 413.732 258.03 427.791C260.504 441.461 268.612 453.643 280.4 461.441C292.291 469.334 306.781 472.175 320.537 469.379C334.655 466.501 346.985 458.36 355.011 446.642C394.351 389.734 472.997 374.507 530.199 412.522C587.381 450.524 601.309 527.353 562.032 584.25C516.16 650.641 445.757 696.381 365.353 712.077C287.373 728.342 205.181 712.342 137.678 667.712C70.9556 623.495 25.1559 554.248 11.3329 476.681C-3.5325 397.017 13.7154 315.643 59.3577 250.095C98.9666 193.366 177.638 178.102 234.993 216.22Z" fill="#FFE082"/>
<path d="M362.382 25.616C419.157 63.5617 433.473 140.434 394.196 197.331C386.091 208.834 382.927 223.128 385.418 237.187C387.893 250.858 396.001 263.04 407.789 270.837C419.679 278.73 434.169 281.571 447.926 278.776C462.044 275.898 474.373 267.757 482.399 256.039C521.739 199.13 600.386 183.904 657.588 221.919C714.77 259.921 728.698 336.749 689.421 393.646C643.548 460.038 573.146 505.778 492.742 521.473C414.762 537.738 332.569 521.738 265.067 477.109C198.344 432.892 152.545 363.645 138.722 286.078C123.856 206.413 141.104 125.04 186.746 59.4912C226.355 2.76228 305.027 -12.5015 362.382 25.616Z" fill="#FFCB2E"/>
</g>
<defs>
<clipPath id="clip0_938_1400">
<rect width="713" height="722" fill="white"/>
</clipPath>
</defs>
</svg>
