<svg width="960" height="940" viewBox="0 0 960 940" fill="none" xmlns="http://www.w3.org/2000/svg">
<path d="M287.561 363.569C326.458 427.345 409.827 446.481 473.797 406.135C486.738 397.798 502.504 394.988 517.758 398.35C532.587 401.675 545.533 411.089 553.52 424.327C561.608 437.682 564.055 453.648 560.375 468.557C556.589 483.856 547.131 496.963 533.96 505.203C469.975 545.618 449.763 630.886 488.716 695.131C527.655 759.354 610.995 778.064 674.965 737.718C749.611 690.594 802.799 615.722 823.603 528.555C844.92 444.063 831.163 353.503 785.447 277.699C740.148 202.766 666.542 149.565 582.391 130.936C495.994 111.073 406.272 126.231 332.558 173.141C268.757 213.858 248.503 299.151 287.561 363.569Z" fill="#FFAC66"/>
<path d="M73.4556 494.149C112.352 557.925 195.722 577.061 259.691 536.715C272.632 528.378 288.399 525.568 303.652 528.93C318.481 532.255 331.427 541.67 339.415 554.907C347.502 568.262 349.949 584.228 346.27 599.137C342.483 614.436 333.026 627.543 319.854 635.783C255.869 676.198 235.657 761.466 274.61 825.711C313.55 889.935 396.889 908.644 460.859 868.298C535.505 821.174 588.694 746.302 609.498 659.135C630.814 574.643 617.057 484.083 571.342 408.279C526.043 333.346 452.437 280.145 368.285 261.516C281.888 241.653 192.166 256.811 118.452 303.721C54.6511 344.438 34.3974 429.731 73.4556 494.149Z" fill="#FF7500"/>
</svg>
