<svg width="645" height="359" viewBox="0 0 645 359" fill="none" xmlns="http://www.w3.org/2000/svg">
<g clip-path="url(#clip0_916_4692)">
<path d="M159.418 318.861C216.731 347.537 286.067 323.508 314.224 265.054C319.84 253.102 330.027 243.883 342.649 239.385C354.946 235.054 368.646 236.008 380.479 241.999C392.439 248.03 401.485 258.527 405.594 271.044C409.804 283.893 408.892 297.728 403.064 309.716C374.927 368.227 399.036 439.434 456.603 468.425C514.151 497.406 583.271 473.082 611.428 414.627C644.264 346.385 648.867 267.73 624.323 194.872C601.37 123.727 550.149 64.1318 482.404 29.8129C415.358 -4.06226 337.618 -9.25011 267.943 15.5025C196.074 40.3794 137.727 92.2375 105.471 159.901C77.6058 218.548 101.696 289.792 159.418 318.861Z" fill="#E80537"/>
<path d="M63.1493 511.267C120.462 539.943 189.798 515.914 217.955 457.46C223.571 445.508 233.758 436.289 246.38 431.791C258.677 427.46 272.377 428.414 284.21 434.406C296.17 440.436 305.216 450.933 309.325 463.45C313.535 476.299 312.623 490.135 306.795 502.122C278.658 560.633 302.767 631.84 360.334 660.831C417.882 689.812 487.002 665.488 515.159 607.034C547.995 538.791 552.598 460.136 528.054 387.278C505.101 316.133 453.88 256.538 386.135 222.219C319.089 188.344 241.348 183.156 171.674 207.909C99.8052 232.786 41.4575 284.644 9.20209 352.307C-18.6633 410.954 5.42744 482.198 63.1493 511.267Z" fill="#FF7500"/>
</g>
<defs>
<clipPath id="clip0_916_4692">
<rect width="645" height="359" fill="white"/>
</clipPath>
</defs>
</svg>
