<svg width="616" height="669" viewBox="0 0 616 669" fill="none" xmlns="http://www.w3.org/2000/svg">
<path d="M474.528 230.293C407.919 233.006 356.869 289.757 360.629 357.144C361.526 370.852 356.887 384.369 347.656 394.813C338.637 404.942 325.683 410.963 311.894 411.459C297.972 411.982 284.455 406.973 274.418 397.643C264.123 388.06 257.995 375.003 257.274 361.157C253.467 293.728 195.702 241.016 128.703 243.569C61.7272 246.122 11.0221 303.034 14.7822 370.421C19.2043 449.074 54.5711 523.009 113.562 577.007C170.242 630.245 246.854 658.749 325.8 655.928C403.887 653.054 477.283 618.68 528.277 561.1C581.207 502.303 608.255 425.738 603.595 347.904C599.473 280.488 541.706 227.732 474.528 230.293Z" fill="#74CFE8"/>
<path d="M465.42 6.68009C398.811 9.39312 347.761 66.1437 351.521 133.531C352.418 147.239 347.779 160.756 338.548 171.2C329.529 181.328 316.575 187.349 302.786 187.845C288.864 188.369 275.348 183.36 265.31 174.03C255.015 164.447 248.888 151.39 248.166 137.544C244.359 70.1146 186.594 17.4023 119.595 19.9561C52.6193 22.509 1.91424 79.4206 5.67432 146.808C10.0964 225.461 45.4632 299.396 104.454 353.393C161.135 406.631 237.746 435.136 316.692 432.314C394.779 429.44 468.175 395.066 519.169 337.486C572.099 278.69 599.147 202.125 594.488 124.291C590.365 56.875 532.599 4.11892 465.42 6.68009Z" fill="#17AFD9"/>
</svg>
