<svg width="788" height="721" viewBox="0 0 788 721" fill="none" xmlns="http://www.w3.org/2000/svg">
<path d="M275.29 152.214C275.29 233.742 342.096 298.949 424.628 297.708C441.423 297.294 457.71 303.636 470.013 315.436C481.94 326.961 488.653 343.09 488.573 359.964C488.52 377.003 481.727 393.27 469.825 405.07C457.603 417.174 441.343 424.012 424.387 424.205C341.802 425.501 274.514 493.464 274.3 575.461C274.086 657.431 341.107 722.223 423.639 720.982C519.97 719.494 612.077 679.956 680.996 610.559C748.872 543.947 787.517 451.749 787.998 355.139C788.373 259.577 750.022 168.178 682.199 102.999C612.986 35.3945 520.773 -1.46831 425.43 0.351399C342.845 2.03325 275.504 69.9965 275.29 152.214Z" fill="#E80537"/>
<path d="M1.58863 152.214C1.58864 233.742 68.3951 298.949 150.927 297.708C167.722 297.294 184.009 303.636 196.311 315.436C208.239 326.961 214.952 343.09 214.872 359.964C214.818 377.003 208.025 393.27 196.124 405.07C183.902 417.174 167.642 424.012 150.686 424.205C68.1009 425.501 0.813085 493.464 0.599137 575.461C0.385189 657.431 67.4056 722.223 149.937 720.982C246.269 719.494 338.375 679.956 407.295 610.559C475.171 543.947 513.816 451.749 514.297 355.139C514.672 259.577 476.321 168.178 408.498 102.999C339.285 35.3945 247.072 -1.46831 151.729 0.351399C69.1439 2.03325 1.80258 69.9965 1.58863 152.214Z" fill="#FF7500"/>
</svg>
