<svg width="460" height="516" viewBox="0 0 460 516" fill="none" xmlns="http://www.w3.org/2000/svg">
<path d="M196.481 95.8985C181.555 104.182 169.118 116.259 159.501 130.393C152.042 141.343 136.394 157.777 105.935 167.697C54.2782 184.516 16.5483 221.569 32.4646 276.577C47.7029 329.241 113.786 351.444 141.764 387.12C169.752 422.805 223.238 499.873 325.614 432.573C427.991 365.274 380.188 281.515 373.274 272.703C366.351 263.892 340.353 220.889 327.274 180.454C314.194 140.01 278.356 80.4222 215.172 88.9386C209.213 89.7438 202.727 92.4364 196.472 95.9074L196.481 95.8985Z" fill="#FFCB2E"/>
<path d="M201.228 195.474L204.645 301.669L207.375 302.009L201.567 178.012L201.228 195.474Z" fill="#F18184"/>
<path d="M93.248 329.195L100.885 333.292L108.156 337.729L115.704 341.674L123.02 346.022L130.514 350.074L138.035 354.073L145.413 358.305L152.693 362.742L160.277 366.606L167.521 371.106L175.069 375.042L182.447 379.3L189.942 383.335L197.248 387.7L204.814 391.619L212.183 395.886L219.642 399.992L226.931 404.402L234.452 408.383L241.857 412.588L249.191 416.926L256.587 421.14L264.099 425.148L271.477 429.406L278.998 433.405L286.412 437.511L294.281 435.399L302.23 433.109L310.081 430.542L318.022 428.234L325.891 425.693L333.76 423.153L341.655 420.71L349.471 418.009L357.366 415.549L365.289 412.301L373.069 408.732L380.545 404.563L388.048 400.43L395.435 396.092L402.528 391.288L409.469 386.278L416.482 381.358L423.467 376.393L430.132 371.017L436.689 365.667L428.49 363.753L420.238 361.91L412.074 359.664L403.857 357.669L395.551 356.014L387.388 353.805L379.135 351.953L370.892 350.074L362.621 348.267L354.467 345.995L346.232 344.063L337.944 342.363L329.691 340.502L321.501 338.382L313.231 336.611L305.094 334.258L296.842 332.398L288.58 330.608L280.372 328.56L272.137 326.619L263.849 324.892L255.686 322.682L247.415 320.893L239.225 318.737L230.973 316.868L222.675 315.213L214.503 313.003L206.233 311.268L198.185 312.439L190.102 313.585L182.064 314.971L174.034 316.465L165.942 317.548L157.868 318.755L149.812 320.034L141.809 321.663L133.735 322.888L125.643 323.944L117.595 325.312L109.575 326.842L101.474 327.943L93.248 329.195Z" fill="#FFAC66"/>
<path d="M286.278 438.638L278.498 434.326L270.995 430.336L263.59 426.06L256.105 422.07L248.682 417.839L241.34 413.5L233.952 409.295L226.396 405.306L219.107 400.895L211.684 396.807L204.315 392.549L196.722 388.613L189.433 384.256L181.957 380.23L174.561 375.963L166.977 372.009L159.777 367.536L152.158 363.645L144.887 359.208L137.527 354.985L130.041 351.005L122.547 346.952L115.213 342.596L107.63 338.633L100.385 334.213L89.9917 328.631L101.34 326.905L109.423 325.804L117.417 324.283L125.482 322.915L133.619 321.85L141.639 320.634L149.615 319.005L157.725 317.717L165.808 316.51L173.891 315.436L181.885 313.942L189.942 312.556L198.051 311.41L206.286 310.221L214.789 312.001L222.925 314.202L231.196 315.848L239.475 317.726L247.692 319.882L255.971 321.671L264.108 323.881L272.36 325.599L280.622 327.54L288.848 329.588L297.082 331.369L305.397 333.256L313.498 335.591L321.733 337.353L329.968 339.491L338.185 341.343L346.455 343.034L354.717 344.975L362.88 347.256L371.115 349.054L379.367 350.933L387.665 352.794L395.792 355.003L404.054 356.64L412.315 358.644L420.479 360.899L428.704 362.741L439 365.148L430.783 371.848L424.065 377.269L417.079 382.234L410.058 387.155L403.126 392.164L395.944 397.022L388.557 401.36L381.036 405.502L373.488 409.707L365.708 413.267L357.661 416.568L349.765 419.028L341.985 421.721L334.054 424.172L318.334 429.244L310.367 431.561L302.543 434.129L294.567 436.428L286.269 438.655L286.278 438.638ZM227.448 403.49L234.952 407.453L242.383 411.675L249.735 416.014L257.113 420.227L264.607 424.217L272.012 428.493L279.507 432.474L286.564 436.383L294.022 434.379L301.945 432.098L309.769 429.54L317.745 427.223L333.456 422.15L341.37 419.708L349.15 417.016L357.036 414.564L364.914 411.326L372.623 407.792L380.063 403.642L387.566 399.509L394.9 395.197L401.966 390.411L408.88 385.41L415.902 380.49L422.852 375.543L429.49 370.184L434.379 366.203L428.267 364.772L419.97 362.92L411.807 360.666L403.617 358.68L395.293 357.025L387.147 354.815L378.912 352.973L370.66 351.094L362.345 349.278L354.19 346.997L346 345.074L337.739 343.383L329.468 341.522L321.242 339.393L312.945 337.613L304.835 335.278L296.619 333.417L288.357 331.628L280.113 329.57L271.896 327.638L263.581 325.903L255.436 323.693L247.192 321.913L238.966 319.757L230.75 317.896L222.408 316.232L214.262 314.032L206.206 312.341L198.337 313.486L190.254 314.631L182.242 316.009L174.177 317.512L166.085 318.585L158.029 319.793L149.981 321.072L141.97 322.709L133.895 323.935L125.777 324.99L117.765 326.35L109.709 327.88L101.617 328.98L96.5224 329.758L101.429 332.397L108.674 336.817L116.239 340.771L123.564 345.118L131.023 349.144L138.535 353.134L145.949 357.383L153.211 361.811L160.839 365.703L168.048 370.175L175.569 374.094L182.983 378.37L190.495 382.413L197.775 386.77L205.349 390.697L212.719 394.964L220.159 399.061L227.457 403.472L227.448 403.49Z" fill="#36393D"/>
<path d="M135.644 388.326C137.161 387.619 187.158 381.697 187.158 381.697L214.878 404.912L156.316 403.552L135.644 388.326Z" fill="#E80537"/>
<path d="M99.0292 441.144C99.0292 441.144 98.4761 440.58 97.6999 439.614C94.5505 435.705 87.654 425.211 98.3244 419.012C111.645 411.283 155.557 414.208 159.411 417.724C163.266 421.239 192.234 436.402 188.728 440.974C185.222 445.545 176.113 446.073 176.113 446.073" fill="#FFAC66"/>
<path d="M101.5 390.636C101.5 390.636 96.1027 412.92 109.753 422.823C123.412 432.717 201.548 430.624 201.548 430.624L208.891 444.32C210.229 446.824 219.793 463.777 219.793 463.777C219.793 463.777 226.003 468.822 248.129 468.196L222.764 418.913C222.764 418.913 203.948 408.501 196.356 405.736C179.985 399.769 159.607 392.04 157.564 391.343C154.585 390.314 101.5 390.627 101.5 390.627V390.636Z" fill="#E80537"/>
<path d="M180.172 431.543C180.351 431.66 184.232 434.12 185.285 435.229C186.337 436.338 189.558 440.918 189.558 440.918C189.558 440.918 190.352 438.288 185.971 432.814C185.186 431.838 183.063 431.248 183.063 431.248L180.172 431.543Z" fill="#36393D"/>
<path d="M202.914 428.924C202.914 428.924 152.542 432.001 142.737 429.541C132.923 427.081 119.844 427.546 115.989 425.086C112.135 422.626 109.914 419.934 109.914 419.934L107.442 422.608C107.442 422.608 112.135 426.491 122.297 428.486C132.459 430.481 154.888 433.173 159.911 433.173C164.934 433.173 201.611 432.824 201.611 432.824L206.072 442.656L208.971 447.701C208.971 447.701 214.458 462.131 216.243 464.215C217.046 464.341 219.446 464.287 219.802 463.786C219.231 462.954 211.782 448.059 211.309 447.111C208.035 440.554 202.923 428.924 202.923 428.924H202.914Z" fill="#36393D"/>
<path d="M249.084 465.744C249.084 465.744 240.251 446.43 240.073 446.037C239.894 445.643 233.56 434.684 233.56 434.684L229.715 426.982C229.715 426.982 224.585 417.33 224.272 417.088C220.365 414.127 204.538 408.679 198.105 405.655L203.119 405.727L206.447 405.45L210.631 405.834L216.047 405.906C216.047 405.906 212.032 402.542 211.916 402.444C211.8 402.345 188.487 402.05 188.479 402.05C187.47 401.674 185.686 400.977 183.456 400.109C181.27 399.259 178.647 398.23 175.908 397.166C173.642 396.28 169.627 394.151 169.627 394.151C169.627 394.151 164.8 392.809 162.98 392.093C159.09 390.564 156.369 389.49 156.369 389.49L154.781 392.451L167.111 396.03L172.027 398.749L178.816 401.227L193.377 406.55C193.555 406.612 219.258 418.036 219.258 418.036L224.049 422.026L244.81 461.862L248.093 469.018L250.458 468.804L249.066 465.753L249.084 465.744Z" fill="#36393D"/>
<path d="M95.9158 440.122C98.1462 444.569 97.6198 447.995 114.446 448.523C136.875 449.229 188.38 449.927 189.79 441.849C191.191 433.771 147.037 427.088 134.074 426.74C121.111 426.391 94.8273 430.953 95.5322 434.818C95.5322 434.818 95.2734 438.816 95.9247 440.122H95.9158Z" fill="#FFAC66"/>
<path d="M123.832 215.074L123.974 201.27L123.154 187.556L122.877 175.641L110.262 176.66L95.7461 178.745L81.177 180.078L66.6703 181.661L52.0833 182.726L37.5498 184.792L24.5776 185.839L24.9434 198.309L25.0416 212.426L25.3984 226.462L25.8713 240.56L25.7018 254.668L25.9605 266.727L37.2375 265.501L50.3525 263.64L63.6458 262.299L76.8946 260.626L90.1165 259.686L103.24 257.987L114.856 256.376L124.902 254.856L124.911 242.636L124.206 228.904L123.832 215.074Z" fill="white"/>
<path d="M127.668 228.769L127.293 215.046L127.436 201.243V201.18L126.615 187.413L126.249 171.883L109.923 173.198L95.3714 175.291L80.8201 176.615L66.3491 178.199L51.7621 179.263L37.2107 181.339L21 182.645L21.4729 198.38L21.571 212.488L21.9279 226.577L22.4007 240.604L22.2401 254.694L22.5791 270.6L37.6747 268.954L50.7807 267.102L64.0562 265.76L77.2068 264.105L90.4288 263.166L103.713 261.448L115.374 259.838L128.391 257.861L128.408 242.617L127.695 228.787L127.668 228.769ZM25.9605 266.726L25.7017 254.667L25.8713 240.551L25.3984 226.461L25.0415 212.425L24.9434 198.309L24.5687 185.838L37.5498 184.792L52.0832 182.725L66.6702 181.661L81.1769 180.077L95.7372 178.753L110.262 176.66L122.877 175.64L123.154 187.556L123.965 201.27L123.823 215.073L124.197 228.903L124.902 242.635V254.846L114.839 256.376L103.231 257.986L90.0987 259.686L76.8767 260.625L63.6279 262.289L50.3346 263.64L37.2197 265.492L25.9426 266.726H25.9605Z" fill="#36393D"/>
<path d="M206.054 332.559L186.105 336.621L165.192 320.813L185.159 318.863L206.054 332.559Z" fill="white"/>
<path d="M202.967 331.7L184.401 319.883L172.348 321.064L190.361 333.928L202.967 331.7Z" fill="#FFCB2E"/>
<path d="M171.705 321.279L169.609 321.548L171.893 323.158L173.891 322.89L171.705 321.279Z" fill="#FFD5B3"/>
<path d="M206.054 332.559L186.105 336.62L186.025 337.237L205.706 333.623L206.054 332.559Z" fill="#FFD5B3"/>
<path d="M186.105 336.62L165.193 320.812L165.085 322.253L186.025 337.237L186.105 336.62Z" fill="#FFD5B3"/>
<path d="M313.311 375.571L288.054 380.777L261.592 360.551L286.858 358.055L313.311 375.571Z" fill="white"/>
<path d="M309.403 374.489L285.904 359.361L270.647 360.873L293.451 377.333L309.403 374.489Z" fill="#FFCB2E"/>
<path d="M313.311 375.57L288.053 380.777L287.447 381.475L312.874 376.939L313.311 375.57Z" fill="#FFD5B3"/>
<path d="M288.054 380.777L261.592 360.551L261.458 362.394L287.474 381.752L288.054 380.777Z" fill="#FFD5B3"/>
<path d="M247.504 105.156V136.082H249.431V104.279L247.504 105.156Z" fill="#F18184"/>
<path d="M255.909 154.698L254.16 136.252L240.322 136.431L238.047 154.877C238.047 154.877 224.379 159.618 219.303 165.415C214.226 171.212 210.363 192.467 210.363 192.467L281.327 192.816C281.327 192.816 276.072 169.978 272.218 164.878C268.363 159.779 255.926 154.689 255.926 154.689L255.909 154.698Z" fill="#F18184"/>
<path d="M432.871 176.311C430.766 167.178 424.458 158.044 418.855 147.497C413.252 136.959 388.37 131.332 388.37 131.332L388.717 104.978H380.304L379.956 47L377.851 48.7534C376.539 50.3905 376.459 98.5815 376.45 104.969H367.689L365.236 130.616C365.236 130.616 335.446 146.075 327.738 156.971C320.029 167.867 315.47 191.054 315.47 191.054L436.011 192.11C436.011 192.11 434.959 185.436 432.853 176.303L432.871 176.311Z" fill="#F18184"/>
<path d="M157.966 174.908L157.44 166.472L154.656 166.543L154.808 148.732H153.407C153.407 148.732 153.407 160.666 153.327 166.579L150.606 166.651L150.427 175.785C150.427 175.785 144.646 176.312 141.845 180.356C139.043 184.399 137.812 193.533 137.812 193.533L172.856 193.184C172.856 192.477 168.824 181.411 165.496 178.075C162.168 174.738 157.966 174.917 157.966 174.917V174.908Z" fill="#F18184"/>
<path d="M237.566 371.553C237.566 371.553 242.294 363.824 248.959 363.475C252.929 363.269 257.773 364.101 261.137 365.326C264.251 366.462 262.85 368.377 261.422 369.719C258.068 372.859 253.286 376.67 248.923 376.759C243.695 376.858 240.867 375.891 238.092 374.845C237.057 374.451 236.629 373.234 237.173 372.268L237.575 371.562L237.566 371.553Z" fill="white"/>
<path d="M198.596 342.865C198.596 342.865 201.879 337.498 206.509 337.256C209.266 337.113 212.63 337.694 214.967 338.544C217.126 339.331 216.154 340.664 215.163 341.595C212.835 343.778 209.507 346.425 206.483 346.479C202.851 346.551 200.889 345.88 198.962 345.146C198.248 344.878 197.944 344.028 198.319 343.357L198.596 342.865Z" fill="white"/>
<path d="M325.498 292.034L282.397 276.396L263.465 330.903L301.499 355.629L325.498 292.034Z" fill="#E80537"/>
<path d="M262.716 332.622L263.341 330.824L263.127 330.689L261.904 332.783L262.154 332.971L262.627 333.293L262.832 332.702C262.77 332.658 262.725 332.631 262.707 332.622H262.716Z" fill="white"/>
<path d="M261.904 332.792L262.154 332.971L261.904 332.783V332.792Z" fill="white"/>
<path d="M262.627 333.32L262.636 333.293L262.154 332.971L262.627 333.32Z" fill="white"/>
<path d="M262.841 332.703L263.465 330.905L263.34 330.824L262.716 332.622C262.716 332.622 262.778 332.658 262.841 332.703Z" fill="white"/>
<path d="M327.256 355.63L322.001 326.127L322.402 324.856L322.92 323.219L330.762 298.538L328.309 290.63L281.88 273.588L261.119 332.174L261.913 332.773L263.135 330.68L263.35 330.814L263.474 330.895L282.415 276.388L325.516 292.025L301.517 355.621L263.483 330.895L262.859 332.693L262.654 333.283L302.391 360.362L312.026 357.553L316.229 344.331C316.737 349.198 317.763 357.097 317.638 357.732C317.46 358.609 314.837 359.664 310.983 365.282C307.128 370.9 337.792 369.675 337.792 365.103C337.792 360.532 327.283 355.621 327.283 355.621L327.256 355.63Z" fill="white"/>
<path d="M213.504 269.875L201.504 306.92L226.324 323.058L242.437 280.368L213.504 269.875Z" fill="#E80537"/>
<path d="M243.614 323.059L239.76 304.281L240.358 302.403L240.706 301.302L245.97 284.735L244.319 279.43L213.156 267.988L198.943 307.359L200.264 308.083L226.913 326.243L233.381 324.356L236.156 315.625C236.441 318.425 237.235 324.007 237.146 324.472C237.03 325.062 235.264 325.769 232.676 329.544C230.089 333.319 250.671 332.496 250.671 329.428C250.671 326.36 243.614 323.059 243.614 323.059ZM213.504 269.876L242.437 280.369L226.324 323.059L201.495 306.92L213.504 269.876Z" fill="white"/>
<path d="M280.827 245.918L304.943 252.538L298.965 268.98C298.965 268.98 286.296 264.284 279.435 262.468C279.195 263.72 278.65 266.368 278.65 266.368L275.215 261.358C274.609 261.233 280.827 245.918 280.827 245.918Z" fill="white"/>
<path d="M300.606 254.811L282.353 249.408L281.853 250.652L300.16 256.028L300.606 254.811Z" fill="#E80537"/>
<path d="M299.215 258.442L280.363 252.672L279.846 254.577L298.894 260.151L299.215 258.442Z" fill="#E80537"/>
<path d="M298.188 261.825L284.699 257.674L284.137 259.57L297.68 263.498L298.188 261.825Z" fill="#E80537"/>
<path d="M292.711 326.154L291.551 332.335L293.897 331.825L294.789 334.366L297.1 333.051L296.154 330.653L297.841 329.821L293.514 325.044C293.344 324.856 293.023 324.955 292.951 325.223L292.693 326.171L292.711 326.154Z" fill="white"/>
<path d="M320.859 292.885L323.054 293.43C323.054 293.43 317.54 308.245 317.54 307.144C317.54 306.044 320.859 292.885 320.859 292.885Z" fill="#36393D"/>
<path d="M317.129 291.48L319.324 292.025C319.324 292.025 316.567 301.606 316.567 300.506C316.567 299.406 317.129 291.471 317.129 291.471V291.48Z" fill="#36393D"/>
<path d="M35.7833 196.037L35.7119 211.45L52.7524 210.359L52.7345 194.561L35.7833 196.037Z" fill="#FFCB2E"/>
<path d="M71.8183 218.562L71.7559 233.976L88.7963 232.884L88.7785 217.086L71.8183 218.562Z" fill="#FFCB2E"/>
<path d="M37.1484 219.501L37.0859 234.915L54.1175 233.824L54.0996 218.025L37.1484 219.501Z" fill="#FFCB2E"/>
<path d="M70.2836 192.441L70.2212 207.855L87.2617 206.763L87.2349 190.965L70.2836 192.441Z" fill="#E80537"/>
<path d="M39.6196 222.82L39.7535 223.894L52.0297 222.713L51.7532 221.926L44.2768 222.525L39.6196 222.82Z" fill="#E80537"/>
<path d="M39.9229 227.463L51.9047 226.631L51.1999 225.861L39.9853 226.693L39.9229 227.463Z" fill="#E80537"/>
<path d="M75.5384 222.453L86.9404 221.174L86.5568 221.881L74.0039 223.482L74.3875 222.453H75.5384Z" fill="#E80537"/>
<path d="M74.5126 225.219L82.2656 224.771L82.1317 225.603L74.3877 226.185L74.5126 225.219Z" fill="#E80537"/>
<path d="M283.834 280.861L281.826 287.052L287.572 289.843L289.722 283.044L283.834 280.861Z" fill="#FFCB2E"/>
<path d="M292.8 284.367L290.801 290.558L296.538 293.358L298.688 286.559L292.8 284.367Z" fill="#FFCB2E"/>
<path d="M280.925 290.281L278.927 296.472L284.663 299.263L286.822 292.464L280.925 290.281Z" fill="#FFCB2E"/>
<path d="M277.428 300.211L275.429 306.401L281.166 309.201L283.316 302.403L277.428 300.211Z" fill="#FFCB2E"/>
<path d="M318.95 246.285L313.57 259.65L333.554 265.814L339.443 251.429L324.838 255.025L318.95 246.285Z" fill="white"/>
<path d="M320.395 244.746C320.395 245.175 325.605 253.137 325.605 253.137L339.104 249.8L320.404 244.746H320.395Z" fill="white"/>
<path d="M339.416 298.637L355.965 278.035L366.841 283.626L339.416 298.637Z" fill="white"/>
<path d="M347.285 304.864L368.831 294.219L375.665 303.021L347.285 304.864Z" fill="white"/>
<path d="M335.99 294.146L339.362 274.716L348.462 274.43L335.99 294.146Z" fill="white"/>
<path d="M121.86 281.604L120.138 251.761C120.103 251.171 120.272 250.58 120.602 250.097L126.276 241.93C128.855 238.217 132.7 235.587 137.089 234.54L147.046 232.161C147.153 232.134 147.26 232.116 147.376 232.098C149.464 231.892 154.986 232.662 157.208 233.467C157.458 233.556 157.681 233.682 157.895 233.834L164.14 238.521C167.307 240.892 169.591 244.256 170.635 248.075L171.724 252.047C171.75 252.164 171.777 252.271 171.795 252.387C171.982 253.792 172.955 260.564 171.028 264.106C170.153 265.717 170.921 283.438 169.395 283.894C167.869 284.351 163.177 283.751 163.426 283.814C163.533 283.841 163.391 284.297 163.194 284.825C163.15 284.941 163.096 285.057 163.034 285.165C162.873 285.147 162.695 285.165 162.507 285.263C161.312 285.836 161.071 287.884 160.661 288.993C159.956 290.881 157.779 292.831 158.1 294.969C158.127 295.157 158.198 295.309 158.296 295.434C158.314 296.893 157.431 299.236 156.28 299.236C155.495 299.236 151.668 298.181 149.241 296.714C144.111 293.61 142.523 296.58 142.13 298.127L141.434 307.162C141.256 307.86 141.158 308.254 140.533 308.603L137.313 309.846C136.982 310.034 135.492 310.526 135.109 310.562C133.574 310.687 132.789 311.277 130.916 309.64C129.113 308.066 127.133 306.751 125.554 305.651C125.081 305.32 123.332 302.967 123.154 302.421L121.013 298.315C120.736 297.456 119.514 296.356 120.085 295.658L121.36 294.128C121.762 293.645 121.976 293.037 121.976 292.411L121.878 281.586L121.86 281.604Z" fill="#DD8C62"/>
<path d="M131.415 263.515C131.459 262.629 131.433 261.833 131.04 261.028C130.844 260.625 130.549 260.24 130.121 259.927C129.702 259.614 129.086 259.373 128.381 259.444C128.15 259.471 127.837 259.525 127.454 259.713C127.07 259.901 126.606 260.214 126.169 260.795C125.848 261.225 125.562 261.86 125.393 262.54C125.223 263.219 125.152 263.926 125.098 264.579C125 265.885 125.098 266.968 125.098 266.968C125.098 266.968 125.116 267.191 125.152 267.567C125.196 267.934 125.259 268.453 125.375 269.016C125.598 270.152 126.044 271.503 126.481 272.416C127.204 273.919 127.855 274.733 128.176 275.162C128.542 275.574 128.819 275.94 129.274 276.262C129.497 276.414 129.764 276.549 130.059 276.602C130.344 276.656 130.639 276.629 130.888 276.54C131.397 276.37 131.709 276.021 131.95 275.681C132.191 275.332 132.361 274.947 132.503 274.527C132.173 274.831 131.861 275.082 131.549 275.269C131.236 275.457 130.924 275.583 130.674 275.574C130.425 275.565 130.255 275.484 130.032 275.269C129.809 275.064 129.532 274.679 129.22 274.312C128.935 273.928 128.346 273.194 127.695 271.834C127.293 271.011 126.883 269.786 126.686 268.739C126.57 268.22 126.517 267.755 126.472 267.415C126.437 267.075 126.419 266.869 126.419 266.869C126.419 266.869 126.338 265.876 126.419 264.678C126.472 264.078 126.535 263.416 126.677 262.871C126.811 262.316 127.025 261.869 127.231 261.591C127.507 261.225 127.793 261.028 128.007 260.92C128.221 260.813 128.373 260.786 128.489 260.777C129.14 260.706 129.747 261.108 130.193 261.573C130.648 262.065 131.013 262.701 131.388 263.515H131.415Z" fill="#36393D"/>
<path d="M130.514 263.962C130.514 263.962 129.908 262.414 128.346 262.951C126.776 263.488 127.517 265.51 127.49 266.18C127.472 266.851 127.74 267.433 127.74 267.433C127.74 267.433 127.757 264.463 128.667 263.908C129.577 263.354 130.505 263.962 130.505 263.962H130.514Z" fill="#36393D"/>
<path d="M123.377 246.716C123.377 246.716 127.052 238.781 134.226 235.82C141.399 232.868 148.411 232.036 152.908 233.082C157.404 234.129 159.831 234.666 163.31 238.459C166.79 242.252 170.778 249.131 170.778 249.131C170.778 249.131 169.966 243.316 167.164 239.997C164.372 236.679 164.086 234.684 157.886 232.304C151.685 229.925 146.475 230.748 142.674 231.508C138.874 232.268 136.42 232.787 131.826 234.889C125.527 237.77 120.914 245.651 121.369 245.964L123.377 246.716Z" fill="#36393D"/>
<path d="M144.2 291.203C144.521 291.686 145.101 292.679 146.395 293.895C146.957 294.432 147.822 295.031 148.643 295.443C149.054 295.658 149.428 295.837 149.705 295.971C149.981 296.105 150.151 296.185 150.151 296.185C150.151 296.185 150.356 296.284 150.686 296.454C151.007 296.624 151.445 296.856 151.935 297.116C152.408 297.366 152.908 297.617 153.372 297.805C153.836 297.993 154.264 298.1 154.585 298.162C155.798 298.35 156.298 298.073 156.566 297.966C156.967 297.769 157.288 297.474 157.511 297.178C157.734 296.874 157.85 296.561 157.895 296.23C157.931 295.881 157.832 295.425 157.815 294.915C157.806 294.647 157.832 294.378 157.913 294.11C157.922 294.074 157.94 294.038 157.957 294.003C157.904 293.743 157.895 293.421 157.904 293.385C157.966 292.867 158.216 292.455 158.439 291.999C158.609 291.659 158.751 291.292 158.948 290.97C159.269 290.424 159.242 290.406 159.519 289.834C159.162 289.736 158.68 289.252 158.341 289.056C157.761 288.716 157.244 288.304 156.682 287.929C155.504 287.123 154.478 286.3 153.523 285.236C152.631 284.243 151.9 283.116 151.427 281.863C151.186 281.237 151.052 280.423 150.909 279.761C150.766 279.09 150.936 278.482 150.99 277.793C150.811 277.811 150.642 277.838 150.463 277.9C150.365 277.936 150.258 277.963 150.169 278.017C150.088 278.07 150.017 278.151 149.955 278.213C149.848 278.33 149.758 278.187 149.74 278.079C149.705 277.9 149.74 277.712 149.821 277.551C149.955 277.292 150.142 277.113 150.419 277.024C150.677 276.943 150.954 276.889 151.23 276.889C151.507 276.889 151.775 276.943 152.042 277.033C152.274 277.113 152.631 277.229 152.756 277.453C152.827 277.578 152.81 277.748 152.765 277.873C152.747 277.936 152.667 278.124 152.569 278.043C152.542 278.026 152.479 278.017 152.444 278.008C152.381 277.99 152.319 277.972 152.256 277.954C152.14 277.918 152.033 277.882 151.917 277.856C151.784 277.82 151.641 277.793 151.498 277.775C151.712 278.929 151.953 280.083 152.417 281.174C152.926 282.364 153.728 283.277 154.585 284.225C155.45 285.182 156.441 285.943 157.485 286.694C157.993 287.061 158.475 287.445 159.001 287.785C159.367 288.027 159.831 288.188 160.223 288.429C160.75 287.553 161.258 286.676 161.704 285.764C161.981 285.191 162.284 284.583 162.659 284.055C162.516 283.992 162.374 283.93 162.24 283.858C161.74 283.608 161.267 283.295 160.893 282.865C160.518 282.454 160.268 281.881 160.259 281.327C160.241 280.781 160.464 280.181 160.928 279.886C160.661 280.36 160.759 280.834 160.928 281.183C161.107 281.55 161.357 281.774 161.687 281.971C162.008 282.167 163.783 282.803 164.354 282.937C170.243 284.288 169.725 281.81 169.761 281.461C169.823 280.745 169.698 279.859 169.761 279.171C170.02 276.415 168.387 270.565 168.779 266.342C168.967 264.437 171.402 260.17 171.393 259.579C171.393 258.389 170.894 257.066 170.769 256.207C170.653 255.357 168.672 249.971 171.349 249.703C172.259 250.258 172.758 253.058 172.848 254.74C173.276 255.661 173.472 257.969 173.481 259.275C173.499 259.919 171.277 264.142 171.09 266.038C170.698 270.261 171.947 277.158 171.688 279.913C171.625 280.602 171.563 281.318 171.492 282.042C171.456 282.409 171.438 282.731 171.376 283.169C171.34 283.384 171.295 283.617 171.197 283.858C171.108 284.1 170.947 284.377 170.715 284.592C170.483 284.815 170.189 284.958 169.939 285.039C169.68 285.111 169.457 285.137 169.261 285.155C168.869 285.173 168.565 285.173 168.226 285.164C167.575 285.146 166.986 285.093 166.487 285.03C165.006 284.824 164.898 284.762 164.47 284.645C164.327 284.601 163.052 286.3 162.65 287.168C162.204 288.125 161.446 289.548 160.902 290.451C160.438 291.238 160.223 291.865 159.768 292.652C159.581 292.974 159.26 293.484 159.082 293.842C158.903 294.191 159.189 295.479 159.322 296.06C159.447 296.651 159.251 297.581 158.939 298.162C158.627 298.744 157.975 299.021 157.261 299.388C157.012 299.504 156.69 299.639 156.209 299.737C155.727 299.826 155.085 299.871 154.282 299.737C153.853 299.665 153.3 299.522 152.747 299.29C152.194 299.066 151.641 298.789 151.15 298.529C150.677 298.279 150.24 298.046 149.928 297.876C149.616 297.715 149.419 297.617 149.419 297.617C149.419 297.617 149.25 297.536 148.982 297.402C148.706 297.268 148.313 297.08 147.876 296.856C147.439 296.624 146.939 296.355 146.475 296.033C146.163 295.819 145.877 295.595 145.619 295.38C144.914 295.649 143.781 296.203 143.156 297.331C142.237 299.003 141.202 302.081 141.202 302.081C141.202 302.081 140.997 299.665 141.461 298.324C141.88 297.125 143.611 294.325 143.995 293.725C143.852 293.555 143.727 293.385 143.611 293.233C143.228 292.715 142.969 292.321 142.799 292.044C142.121 290.925 141.747 289.986 141.47 289.074C141.202 288.161 141.051 287.275 140.89 286.211C141.524 287.079 142.05 287.803 142.55 288.582C143.058 289.351 143.54 290.174 144.164 291.185L144.2 291.203Z" fill="#36393D"/>
<path d="M120.076 294.861C120.745 293.725 121.36 292.321 121.459 292.097C121.414 291.408 121.325 290.022 121.325 290.022C121.325 290.022 121.378 286.238 121.396 286.041C121.414 285.862 121.441 277.506 121.958 277.363C122.476 277.515 122.288 278.607 122.297 278.777C122.306 278.965 122.654 290.997 122.654 290.997C122.654 290.997 122.654 291.954 122.636 292.151C122.636 292.169 122.618 292.178 122.618 292.186C122.565 292.822 122.36 293.815 121.655 294.682C120.897 295.604 120.281 296.803 120.281 296.803L119.978 296.006C119.978 296.006 119.335 296.096 120.067 294.852L120.076 294.861Z" fill="#36393D"/>
<path d="M143.272 293.644L142.157 292.293C142.157 292.293 140.506 297.043 140.524 297.213C140.542 297.392 142.175 294.851 142.505 294.467C142.835 294.073 143.272 293.644 143.272 293.644Z" fill="#36393D"/>
<path d="M141.728 291.587C141.639 291.453 141.309 290.531 141.309 290.531L140.453 293.564L141.728 291.596V291.587Z" fill="#36393D"/>
<path d="M159.01 263.748C159.135 263.721 159.349 263.676 159.715 263.641C160.259 263.578 161.089 263.614 161.722 263.712C162.409 263.81 162.962 263.998 162.971 263.998C162.989 263.998 163.462 264.141 164.015 264.437C164.559 264.714 165.184 265.17 165.585 265.591C165.987 265.993 166.192 266.297 166.317 266.485C166.522 266.789 166.656 267.094 166.754 267.425C166.799 267.568 166.825 267.72 166.843 267.89V267.943C166.843 267.943 166.852 268.015 166.861 268.06L166.754 268.435C166.692 268.516 166.103 268.471 166.049 268.31C166.031 268.266 166.031 268.212 166.031 268.158L165.728 267.675C165.621 267.514 165.514 267.335 165.353 267.103C165.255 266.959 165.095 266.727 164.773 266.405C164.443 266.065 163.926 265.68 163.489 265.457C163.034 265.215 162.641 265.099 162.623 265.099C162.623 265.099 162.15 264.938 161.553 264.857C160.928 264.759 160.214 264.75 159.822 264.795C159.527 264.821 159.358 264.857 159.251 264.875H159.188C158.876 264.956 158.644 265.009 158.377 265.081L158.323 265.099C158.1 265.161 157.895 265.215 157.645 265.304L156.369 265.788L157.27 264.759C157.493 264.508 157.716 264.311 157.984 264.15C158.278 263.972 158.582 263.855 158.956 263.775H159.019L159.01 263.748Z" fill="#36393D"/>
<path d="M124.885 232.581C131.683 232.107 130.291 228.063 135.716 223.993C141.131 219.923 147.983 224.619 157.467 224.476C166.95 224.333 166.79 218.974 166.79 218.974C166.79 218.974 168.485 224.163 169.556 225.174C172.553 228.01 169.725 215.924 169.725 215.924C169.725 215.924 172.625 219.27 177.166 225.299C181.707 231.328 185.338 238.038 175.899 248.2C170.796 253.702 163.31 253.228 155.566 251.528C152.319 252.396 148.706 253.434 145.993 254.176C140.56 255.67 139.641 259.105 138.687 262.657C137.732 266.208 139.177 268.006 139.177 268.006L133.771 269.84C133.771 269.84 133.012 258.577 129.122 257.522C127.258 257.021 125.473 257.96 124.233 259.57C122.636 266.602 124.108 276.254 124.108 276.254L121.896 285.281L118.729 274.805C118.729 274.805 111.386 255.661 111.984 246.277C112.582 236.893 118.086 233.037 124.894 232.563L124.885 232.581Z" fill="#36393D"/>
<path d="M200.817 429.326C200.683 428.888 201.843 424.424 201.843 424.424L202.459 427.94L206.232 425.855L202.967 430.605L200.817 429.317V429.326Z" fill="#36393D"/>
<path d="M155.789 385.062L164.336 384.409L169.484 383.211L178.557 381.985L186.257 380.947L189.022 383.264L180.868 383.864L172.785 385.447L167.396 386.172L160.098 387.156L156.191 387.862C156.191 387.862 156.012 385.098 155.798 385.053" fill="#36393D"/>
<path d="M102 414.618C102 414.618 102.411 409.581 97.9678 388.97C93.5248 368.359 92.133 364.96 92.5345 349.967C92.9984 332.63 109.352 304.817 109.352 304.817L122.315 289.887L142.799 311.5L151.864 366.892L156.771 390.437C156.771 390.437 143.924 411.165 128.507 417.49C113.09 423.814 101.992 414.618 101.992 414.618H102Z" fill="white"/>
<path d="M250.466 357.876C247.888 356.301 244.239 355.353 241.821 354.95C237.619 354.244 229.911 357.062 229.911 357.062L180.154 357.768L163.801 346.523L153.523 361.982C153.523 361.982 172.678 373.924 175.952 375.57C178.29 376.742 201.798 373.379 217.617 370.758C223.96 369.711 229.072 368.781 231.079 368.306C238.092 366.669 234.354 372.287 242.758 370.883C251.171 369.478 253.036 366.902 253.509 362.447C253.705 360.55 252.384 359.048 250.475 357.876H250.466Z" fill="#DD8C62"/>
<path d="M141.015 312.082C141.015 312.082 130.969 318.523 132.718 328.829C134.466 339.134 138.793 349.556 142.175 353.662C145.565 357.759 152.8 364.907 152.8 364.907L171.723 343.589L155.718 323.094L148.357 316.421L140.997 312.091L141.015 312.082Z" fill="white"/>
<path d="M153.398 320.044C149.892 316.528 139.703 308.799 139.703 308.799C139.703 308.799 131.513 318.308 131.629 328.497C131.745 338.687 135.492 345.969 138.758 351.703C142.032 357.446 151.873 365.488 152.693 366.186L172.785 344.403C172.785 344.403 156.895 323.559 153.398 320.044ZM144.637 354.243C144.637 354.243 137.625 344.994 136.108 340.771C134.591 336.558 133.538 331.754 134.002 326.127C134.466 320.509 140.658 313.129 140.658 313.129L150.204 320.527L159.34 331.915L169.27 342.793L152.122 362.178L144.628 354.235L144.637 354.243Z" fill="#36393D"/>
<path d="M153.862 374.156C153.746 373.1 151.061 363.618 151.061 363.618L147.599 361.158L153.514 383.692L154.781 388.961C151.801 392.289 140.819 409.116 135.18 412.256C128.872 415.772 125.214 417.57 115.579 417.48C105.944 417.391 104.721 415.503 104.721 415.503L102.794 413.92C102.794 413.92 102.357 405.574 101.483 402.675C100.608 399.777 97.2806 378.781 95.4338 372.725C93.5959 366.668 94.3721 351.568 95.2018 346.844C98.1817 329.83 107.79 309.46 109.164 307.25C110.743 304.701 121.958 292.427 121.958 292.427L121.102 291.121C121.102 291.121 108.103 304.298 106.622 307.286C105.346 309.836 98.6724 324.086 96.7453 328.192C96.5401 328.631 94.6397 335.448 93.0963 341.074C91.758 345.959 91.3119 351.049 91.7937 356.094C91.7937 356.094 95.1126 381.304 100.698 406.808C101.697 411.362 101.483 415.155 101.483 415.155C101.483 415.155 105.078 421.22 115.588 420.603C126.098 419.985 134.074 417.176 138.802 412.524C143.531 407.873 157.725 390.679 157.725 390.679C157.725 390.679 153.987 375.22 153.871 374.165L153.862 374.156Z" fill="#36393D"/>
<path d="M80.133 426.068C80.133 426.068 69.3913 408.767 67.9816 404.196C67.4017 402.308 67.4017 389.847 66.4382 376.5C65.0642 357.499 63.4405 334.499 66.9378 336.36C72.8975 339.518 79.2319 345.905 79.5799 346.961C79.9278 348.016 91.4903 427.804 91.4903 427.804L83.5143 431.141L80.1241 426.077L80.133 426.068Z" fill="#FFAC66"/>
<path d="M120.691 291.82C120.459 290.532 119.871 285.263 121.512 284.672C123.145 284.091 140.899 296.499 140.899 296.499C140.899 296.499 148.144 303.172 147.439 305.516C146.734 307.86 144.664 314.292 144.664 314.292L120.691 291.811V291.82Z" fill="#36393D"/>
<path d="M79.2231 345.395C79.2231 345.395 98.494 345.046 101.652 352.427C104.802 359.807 115.668 412.337 109.709 420.763C103.749 429.199 85.5308 439.031 83.4253 429.897C81.3197 420.764 79.2231 345.395 79.2231 345.395Z" fill="#FFAC66"/>
<path d="M66.9288 336.352C66.9288 336.352 80.3917 337.228 87.7789 341.182C94.0865 344.555 99.0202 349.09 99.0202 349.09C99.0202 349.09 92.5342 346.451 88.1536 346.451C83.773 346.451 78.8661 345.396 78.8661 345.396L66.9199 336.352H66.9288Z" fill="#FFAC66"/>
<path d="M190.022 438.934C186.489 434.595 160.348 429.094 160.348 429.094C160.348 429.094 158.127 428.306 157.351 428.172C153.291 427.474 149.312 426.893 145.717 426.446C140.676 425.819 134.02 425.936 134.02 425.936C134.02 425.936 128.194 425.426 124.742 425.712C117.908 426.276 109.807 427.457 103.579 429.049C106.648 426.821 109.361 424.245 111.127 421.749C113.331 418.627 112.305 401.782 112.305 401.782C112.305 401.782 112.109 394.643 111.609 391.047C110.958 386.342 110.155 381.547 109.307 376.993C108.781 374.166 107.246 368.906 107.246 368.906C107.246 368.906 106.55 363.691 106.015 361.463C104.873 356.704 103.856 353.171 103.24 351.73C102.678 350.406 102.072 349.029 100.867 348.107L99.5735 347.079C99.3683 346.891 95.0235 343.08 88.5998 339.636C81.4625 335.816 67.2234 333.696 65.2695 334.885C62.4949 336.567 65.3588 375.848 65.3588 375.848C65.3588 375.848 65.4123 389.285 65.6086 394.277C65.8584 400.682 65.9833 403.562 66.3312 404.698C67.7855 409.431 78.2239 426.267 78.661 426.982C78.661 426.982 83.7018 434.694 86.6906 435.132C87.2437 435.213 87.8326 435.293 88.4481 435.293C89.9827 435.293 91.7046 434.953 93.4889 434.381C93.4086 434.703 93.3819 434.998 93.4086 435.257C93.3373 436.465 93.2213 439.766 93.9975 441.296C94.2294 441.761 94.4346 442.208 94.6309 442.647C95.9156 445.536 97.2806 446.932 101.715 448.3C104.427 449.132 108.228 450.465 114.018 450.644C117.818 450.76 121.423 450.859 124.858 450.921C130.104 451.029 134.93 451.073 139.373 451.073C145.931 451.073 151.302 450.367 156.289 450.179C162.552 449.937 168.021 450.161 172.196 449.705C190.218 447.719 190.843 444.123 191.119 442.521C191.271 441.662 191.2 440.347 190.04 438.925L190.022 438.934ZM86.1553 341.282C87.2259 341.81 90.2325 344.636 91.196 345.245C86.4943 344.44 81.3465 344.484 79.9547 344.493L78.1168 342.65C76.9035 341.47 72.5407 338.777 70.9616 337.533C75.1994 338.213 79.2053 337.873 86.1464 341.291L86.1553 341.282ZM69.6412 403.679C69.4092 402.891 69.2397 398.445 69.0702 394.142C68.8739 389.124 68.633 382.88 68.1602 376.367C67.3037 364.577 65.7602 343.277 67.036 338.401C71.595 341.058 76.0737 345.352 77.528 347.052C77.6707 351.927 78.9554 382.11 78.9554 382.11C78.9554 382.11 78.9019 387.057 79.0001 389.419C79.116 392.183 79.7584 397.569 79.7584 397.569C79.7584 397.569 79.5711 402.095 79.6781 404.242C80.0707 412.123 80.4989 419.173 80.945 424.093C77.6172 418.681 70.6583 407.015 69.6323 403.679H69.6412ZM87.3597 431.715C86.1107 431.464 85.4148 430.784 85.1204 429.505C83.9159 424.281 82.1137 395.645 81.3019 373.343C81.0699 360.873 81.4357 351.033 81.3019 347.589C83.1754 347.875 85.727 348.179 88.1627 348.179C90.8302 348.179 94.4614 349.288 96.6026 350.031C98.2799 350.845 99.5289 351.865 100.064 353.099C101.046 355.407 104.944 369.801 104.944 369.801C104.944 369.801 105.587 376.161 106.131 379.194C106.827 383.112 107.487 387.156 108.049 391.119C108.772 396.236 109.325 401.219 109.593 405.584C110.012 412.392 109.735 417.706 108.299 419.745C103.731 426.213 92.3826 432.699 87.3597 431.706V431.715ZM159.536 447.119C143.272 447.889 124.099 447.477 114.116 447.164C100.234 446.726 99.2613 444.543 97.7803 441.224C97.5661 440.741 97.3431 440.24 97.0844 439.721C96.8524 439.229 96.7543 437.127 96.8702 435.311V435.284C99.2702 432.654 120.772 428.512 133.637 428.852C146.234 429.192 182.322 434.971 187.345 441.126C187.613 441.457 187.729 441.725 187.693 441.922C187.667 442.083 186.703 445.84 159.536 447.119Z" fill="#36393D"/>
<path d="M252.991 358.296C252.884 358.224 245.568 353.098 239.225 353.501C237.102 353.635 228.653 355.872 228.653 355.872L180.583 356.847L169.109 347.203L167.146 349.717L180.154 359.217L229.607 358.01L239.162 355.514C239.162 355.514 248.075 357.124 249.681 358.171C251.287 359.217 253.268 361.973 253.196 362.697C252.732 367.152 251.171 369.469 242.758 370.874C234.345 372.278 238.083 366.66 231.079 368.297C230.794 368.36 230.437 368.44 230.027 368.53C221.542 369.747 196.606 373.343 193.885 373.879C190.593 374.524 176.782 374.202 176.782 374.202L155.744 361.883L153.095 363.476L175.506 377.494C175.506 377.494 188.344 377.628 205.278 374.765C208.784 374.175 215.547 373.083 222.006 371.679C226.503 370.892 232.775 369.881 233.845 370.409C235.398 371.169 238.797 373.969 244.658 372.895C250.52 371.813 253.669 368.423 254.544 365.605C255.926 361.159 253 358.305 253 358.296H252.991Z" fill="#36393D"/>
<path d="M88.6531 430.096L86.387 429.559L82.5596 370.463L88.6531 430.096Z" fill="#36393D"/>
<path d="M159.947 360.381L158.421 361.642L169.912 368.844L159.947 360.381Z" fill="#36393D"/>
<path d="M161.365 359.647L167.78 364.612L162.659 358.037L161.365 359.647Z" fill="#36393D"/>
<path d="M89.7684 429.737L87.0562 402.166L92.4716 429.397L89.7684 429.737Z" fill="#36393D"/>
<path d="M169.163 261.502C169.02 261.708 168.931 261.806 167.619 261.269C166.308 260.733 162.712 259.552 162.712 259.552C162.712 259.552 160.134 259.409 158.519 259.185C156.913 258.961 155.218 258.264 155.218 258.264C155.031 257.852 155.343 257.324 155.343 257.324L161.026 257.423C161.026 257.423 165.924 257.915 167.361 258.46C168.797 258.997 170.144 258.845 169.903 259.659C169.662 260.473 169.297 261.287 169.154 261.493L169.163 261.502Z" fill="#36393D"/>
</svg>
