<svg width="457" height="367" viewBox="0 0 457 367" fill="none" xmlns="http://www.w3.org/2000/svg">
<path d="M154.578 135.038L154.431 134.843C154.331 134.711 153.609 133.827 152.236 133.242C156.22 131.536 161.653 129.471 168.412 127.207L172.839 150.583L170.075 180.832L168.27 181.864C161.774 159.425 155.178 137.044 154.657 135.28L154.589 135.043L154.578 135.038Z" fill="#E80537"/>
<path d="M152.393 192.011L152.809 193.733L166.643 185.844C171.102 201.264 175.365 216.214 177.413 223.95C176.776 223.524 176.081 223.118 175.36 222.692C174.823 222.376 174.265 222.049 173.697 221.696C173.233 221.407 172.754 221.07 172.254 220.712C171.386 220.09 170.396 219.39 169.28 218.826C168.317 218.342 167.269 217.999 166.253 217.668C165.616 217.462 164.964 217.246 164.337 216.999L164.021 216.873C162.558 216.299 161.047 215.698 159.394 215.224C157.81 214.771 156.11 214.297 154.283 213.971C153.099 213.755 151.893 213.702 150.725 213.65C150.167 213.623 149.603 213.597 149.04 213.555C148.603 213.523 148.166 213.481 147.724 213.439C147.182 213.386 146.624 213.339 146.066 213.302C143.555 203.291 140.939 191.563 139.023 182.306C138.617 169.288 139.191 150.209 141.986 141.762C142.455 145.78 143.681 152.931 146.466 165.917C149.282 179.035 152.372 191.885 152.404 192.011H152.393Z" fill="#E80537"/>
<path d="M144.407 137.702C146.555 136.022 148.545 135.233 150.171 135.422C151.24 135.549 151.914 136.07 152.177 136.317C153.009 139.135 159.515 161.247 165.874 183.212L154.562 189.663C149.04 166.561 143.786 141.315 144.402 137.702H144.407Z" fill="#E80537"/>
<path d="M166.259 184.528C166.385 184.965 166.511 185.407 166.638 185.844L152.804 193.733L152.388 192.011C152.356 191.885 149.266 179.035 146.45 165.917C143.66 152.931 142.439 145.785 141.971 141.762C142.307 140.745 142.676 139.892 143.076 139.213C143.634 149.935 153.683 191.7 153.683 191.7L166.259 184.533V184.528Z" fill="#E80537"/>
<path d="M144.091 137.943C144.196 137.859 144.302 137.785 144.407 137.701C143.791 141.314 149.044 166.56 154.566 189.662L165.879 183.211C166.005 183.648 166.131 184.091 166.258 184.528L153.682 191.695C153.682 191.695 143.633 149.929 143.075 139.207C143.391 138.67 143.728 138.238 144.091 137.943Z" fill="#E80537"/>
<path d="M179.124 225.241C177.266 218.032 172.654 201.838 167.832 185.166L169.022 184.486C174.412 203.128 179.571 221.249 180.935 227.021C180.792 226.873 180.671 226.742 180.55 226.61C180.219 226.247 179.882 225.868 179.118 225.241H179.124Z" fill="black"/>
<path d="M167.448 183.849L168.638 183.17C168.764 183.607 168.89 184.049 169.017 184.486L167.827 185.166C167.7 184.729 167.574 184.286 167.448 183.849Z" fill="black"/>
<path d="M168.259 181.857C168.385 182.295 168.511 182.737 168.638 183.174L167.448 183.853C167.322 183.416 167.195 182.979 167.069 182.537L168.259 181.857Z" fill="black"/>
<path d="M177.407 223.951C175.36 216.215 171.096 201.265 166.637 185.845L167.827 185.166C172.649 201.839 177.26 218.032 179.118 225.241C178.855 225.02 178.539 224.773 178.15 224.478C177.913 224.299 177.665 224.125 177.407 223.951Z" fill="black"/>
<path d="M166.258 184.529L167.448 183.85C167.574 184.287 167.701 184.729 167.827 185.166L166.637 185.845C166.511 185.408 166.385 184.971 166.258 184.529Z" fill="black"/>
<path d="M165.879 183.216L167.069 182.537C167.196 182.974 167.322 183.417 167.448 183.854L166.258 184.533C166.132 184.096 166.006 183.654 165.879 183.216Z" fill="black"/>
<path d="M142.965 219.522L143.044 218.995C143.402 216.63 143.802 216.03 143.928 215.898C143.939 215.898 143.949 215.898 143.96 215.898C146.418 225.504 148.955 233.961 150.698 236.068C155.109 241.418 171.112 245.094 171.791 245.247L172.343 245.373L172.817 245.062C172.923 244.994 175.439 243.314 177.729 240.428C180.271 237.221 181.529 233.766 181.429 230.333C181.487 230.333 181.534 230.333 181.608 230.343C182.435 230.38 184.161 230.459 186.498 230.428L191.773 230.359C192.62 230.349 193.457 230.254 194.342 230.154C195.221 230.054 196.132 229.954 197.042 229.943C197.848 229.933 198.679 229.943 199.527 229.964C200.427 229.98 201.359 229.996 202.317 229.985C203.154 229.975 204.001 229.954 204.864 229.927C205.759 229.901 206.665 229.875 207.586 229.864C208.439 229.854 209.302 229.864 210.176 229.875C211.06 229.885 211.955 229.896 212.861 229.885C213.724 229.875 214.587 229.885 215.461 229.891C216.345 229.901 217.24 229.906 218.135 229.896L220.535 229.869C221.493 229.859 222.452 229.848 223.41 229.838C224.299 229.827 225.189 229.838 226.078 229.838C226.952 229.843 227.821 229.848 228.689 229.838C229.653 229.833 230.584 229.722 231.49 229.611C232.353 229.511 233.169 229.411 233.959 229.406C234.822 229.406 235.727 229.443 236.596 229.48C237.459 229.517 238.349 229.559 239.238 229.554C240.175 229.554 241.097 229.501 241.986 229.453C242.865 229.406 243.692 229.364 244.513 229.359C245.429 229.359 246.355 229.396 247.25 229.432C248.087 229.469 248.966 229.517 249.788 229.501C250.746 229.501 251.667 229.475 252.556 229.448C253.435 229.422 254.267 229.396 255.057 229.401C256.52 229.406 257.873 229.427 259.105 229.448L260.321 229.469C261.863 229.49 263.137 229.659 264.158 229.796C264.674 229.864 265.122 229.922 265.506 229.954C266.332 230.012 267.132 230.017 267.912 230.022C268.922 230.027 269.875 230.033 270.759 230.154C272.123 230.338 273.439 230.649 274.713 230.944C275.107 231.033 275.497 231.128 275.876 231.212C277.066 231.481 278.197 231.902 279.292 232.313C279.798 232.503 280.298 232.692 280.787 232.855C282.488 233.435 284.13 234.019 285.53 234.741C285.972 234.967 286.414 235.183 286.846 235.394C288.025 235.968 289.141 236.515 289.973 237.189C291.352 238.316 292.389 239.722 293.226 240.949C294.274 242.498 294.963 243.977 295.269 245.347C295.663 247.095 295.742 248.78 295.505 250.218C295.337 251.239 294.737 252.277 294.105 253.377C293.863 253.799 293.616 254.225 293.389 254.662L293.289 254.852C292.568 256.226 291.821 257.648 290.742 258.838C289.715 259.971 288.483 261.066 286.967 262.188C285.604 263.194 284.146 264.094 282.635 264.858C282.245 265.052 281.856 265.258 281.466 265.468C280.35 266.064 279.198 266.674 277.992 267.08C276.639 267.533 274.844 268.102 272.997 268.465C271.928 268.676 270.149 269.044 267.769 269.618C267.096 269.781 266.338 269.918 265.537 270.066C264.59 270.24 263.616 270.419 262.563 270.671C261.789 270.856 261.021 271.082 260.205 271.319C259.315 271.582 258.394 271.851 257.447 272.072C256.499 272.288 255.52 272.499 254.509 272.709C253.772 272.867 253.025 273.025 252.267 273.194C251.451 273.373 250.598 273.505 249.698 273.647C248.84 273.778 247.95 273.921 247.045 274.105C246.213 274.279 245.382 274.505 244.576 274.726C243.702 274.963 242.797 275.211 241.902 275.385C241.07 275.548 240.207 275.648 239.296 275.759C238.438 275.859 237.549 275.964 236.654 276.127C235.906 276.264 235.154 276.417 234.401 276.575C233.438 276.77 232.443 276.975 231.464 277.138C229.832 277.412 228.195 277.665 226.236 277.96C225.394 278.086 224.526 278.128 223.604 278.17C222.741 278.213 221.851 278.255 220.957 278.371C220.109 278.481 219.277 278.644 218.467 278.797C217.53 278.976 216.64 279.145 215.745 279.245C214.908 279.339 214.077 279.476 213.271 279.613C212.318 279.771 211.418 279.924 210.513 280.003C209.107 280.124 207.67 280.208 206.286 280.293L205.243 280.356C204.385 280.409 203.506 280.34 202.58 280.266C201.732 280.198 200.853 280.129 199.964 280.156C199.174 280.177 198.395 280.235 197.642 280.287C196.626 280.361 195.668 280.43 194.715 280.419C194.663 280.419 194.615 280.419 194.563 280.419C193.784 280.419 193.015 280.461 192.273 280.503C191.283 280.561 190.352 280.614 189.446 280.566C188.53 280.519 187.62 280.335 186.651 280.14C185.872 279.982 185.072 279.824 184.256 279.734C182.714 279.571 181.198 279.297 179.729 279.034L179.118 278.923C177.113 278.565 175.507 278.218 174.07 277.828C172.38 277.37 170.733 276.901 169.19 276.275C168.796 276.111 168.401 275.959 168.006 275.806C166.748 275.316 165.558 274.853 164.532 274.226C163.2 273.41 161.905 272.399 160.584 271.13C159.405 270.003 158.189 268.781 157.325 267.37C156.873 266.627 156.53 265.811 156.167 264.947C155.851 264.194 155.525 263.42 155.114 262.677L154.946 262.372C154.135 260.913 153.372 259.534 152.677 258.133C152.403 257.585 152.124 257.048 151.851 256.516C151.319 255.484 150.814 254.51 150.371 253.52C150.145 253.014 149.919 252.519 149.692 252.024C149.182 250.908 148.703 249.854 148.287 248.796C148.018 248.111 147.734 247.443 147.45 246.784C147.034 245.821 146.645 244.915 146.345 244.009C146.008 243.003 145.765 241.961 145.534 240.955C145.381 240.296 145.229 239.643 145.055 239.011C144.897 238.443 144.739 237.885 144.576 237.332C144.244 236.184 143.928 235.093 143.707 234.046C143.46 232.866 143.334 231.686 143.212 230.549C143.155 230.006 143.097 229.475 143.028 228.958C142.781 227.094 142.633 225.393 142.586 223.898C142.533 222.228 142.76 220.78 142.96 219.5L142.965 219.522Z" fill="#E80537"/>
<path d="M171.801 242.518C167.021 241.375 155.804 238.079 152.751 234.376C151.387 232.723 149.15 225.356 146.744 216.029C146.987 216.05 147.224 216.071 147.466 216.098C147.924 216.14 148.376 216.182 148.829 216.219C149.424 216.266 150.013 216.293 150.598 216.319C151.73 216.372 152.798 216.419 153.804 216.603C155.509 216.914 157.136 217.362 158.657 217.799C160.184 218.236 161.636 218.81 163.037 219.363L163.358 219.489C164.058 219.763 164.753 219.989 165.426 220.211C166.384 220.521 167.295 220.816 168.074 221.216C169.017 221.69 169.875 222.301 170.706 222.896C171.217 223.26 171.749 223.639 172.285 223.971C172.875 224.339 173.454 224.682 174.007 225.003C174.954 225.561 175.849 226.082 176.544 226.609C177.749 227.525 178.144 227.931 178.502 228.326C178.523 228.42 178.544 228.526 178.565 228.61C180.034 235.751 173.591 241.186 171.801 242.534V242.518Z" fill="#E80537"/>
<path d="M172.085 243.951C172.085 243.951 180.718 238.242 180.071 229.822C180.149 229.885 180.228 229.953 180.318 230.022L180.686 230.317H181.155C181.208 230.317 181.308 230.317 181.434 230.327C181.534 233.766 180.276 237.215 177.733 240.422C175.443 243.308 172.927 244.988 172.822 245.057L172.348 245.367L171.796 245.241C171.116 245.088 155.114 241.412 150.703 236.062C148.966 233.956 146.428 225.498 143.965 215.893C144.428 215.882 144.891 215.893 145.354 215.919C147.734 225.203 150.139 233.292 151.729 235.214C155.903 240.275 172.09 243.945 172.09 243.945L172.085 243.951Z" fill="#E80537"/>
<path d="M171.802 242.52C173.586 241.172 180.029 235.737 178.566 228.596C178.55 228.512 178.524 228.412 178.503 228.312C178.529 228.338 178.555 228.37 178.582 228.396C178.903 228.754 179.271 229.154 180.077 229.823C180.724 238.244 172.091 243.952 172.091 243.952C172.091 243.952 155.904 240.282 151.73 235.221C150.146 233.299 147.735 225.21 145.355 215.926C145.824 215.952 146.287 215.984 146.75 216.026C149.151 225.352 151.393 232.725 152.756 234.373C155.81 238.075 167.022 241.377 171.807 242.514L171.802 242.52Z" fill="#E80537"/>
<path d="M144.676 213.239C144.786 213.686 144.902 214.134 145.013 214.581C144.618 214.566 144.223 214.56 143.823 214.571C143.754 214.571 143.691 214.581 143.628 214.592C143.518 214.16 143.412 213.728 143.302 213.296C143.454 213.265 143.612 213.244 143.781 213.239C144.081 213.228 144.376 213.233 144.665 213.239H144.676Z" fill="black"/>
<path d="M181.324 228.995C181.251 228.995 181.193 228.995 181.156 228.995C180.392 228.379 180.024 228.01 179.724 227.678C179.582 227.052 179.376 226.23 179.124 225.24C179.887 225.872 180.224 226.246 180.556 226.609C180.677 226.741 180.798 226.873 180.94 227.02C181.035 227.431 181.114 227.779 181.172 228.058C181.235 228.368 181.282 228.684 181.324 228.995Z" fill="black"/>
<path d="M177.944 226C177.792 225.389 177.613 224.704 177.413 223.951C177.67 224.125 177.923 224.299 178.155 224.478C178.539 224.773 178.855 225.02 179.123 225.241C179.376 226.231 179.581 227.048 179.724 227.68C179.308 227.227 179.002 226.848 177.944 226Z" fill="black"/>
<path d="M146.055 213.303C146.171 213.762 146.287 214.214 146.397 214.662C145.939 214.625 145.476 214.599 145.008 214.583C144.897 214.135 144.781 213.688 144.671 213.24C145.139 213.251 145.597 213.272 146.055 213.303Z" fill="black"/>
<path d="M181.155 230.323H180.686L180.318 230.028C180.228 229.96 180.149 229.891 180.07 229.828C180.033 229.339 179.97 228.838 179.865 228.327C179.828 228.143 179.775 227.922 179.723 227.68C180.023 228.006 180.386 228.375 181.155 228.996C181.191 228.996 181.255 228.996 181.323 228.996C181.381 229.439 181.418 229.886 181.434 230.334C181.307 230.334 181.207 230.323 181.155 230.323Z" fill="black"/>
<path d="M180.07 229.827C179.265 229.158 178.902 228.758 178.575 228.4C178.549 228.374 178.523 228.342 178.496 228.316C178.37 227.747 178.186 226.973 177.938 226.004C179.002 226.852 179.302 227.231 179.718 227.684C179.776 227.926 179.823 228.147 179.86 228.332C179.965 228.842 180.028 229.337 180.065 229.832L180.07 229.827Z" fill="black"/>
<path d="M142.234 136.043C143.513 134.237 149.182 130.803 168.212 124.468L170.454 123.736L175.513 150.457L172.586 182.459L169.017 184.492C168.891 184.055 168.764 183.617 168.638 183.175C168.512 182.738 168.385 182.296 168.259 181.859L170.064 180.826L172.828 150.578L168.401 127.201C161.642 129.466 156.21 131.53 152.225 133.236C153.599 133.816 154.32 134.706 154.42 134.837L154.567 135.032L154.636 135.269C155.157 137.039 161.753 159.42 168.248 181.853L167.059 182.533L165.869 183.212C159.51 161.247 152.999 139.134 152.172 136.317C151.904 136.064 151.235 135.543 150.166 135.422C148.54 135.232 146.55 136.027 144.402 137.702C144.297 137.786 144.192 137.86 144.087 137.944C143.723 138.239 143.392 138.676 143.071 139.208C142.671 139.888 142.302 140.746 141.965 141.757C139.17 150.204 138.601 169.283 139.002 182.301C140.918 191.559 143.529 203.286 146.045 213.297C145.592 213.266 145.129 213.245 144.66 213.234C144.366 213.234 144.071 213.229 143.776 213.234C143.608 213.234 143.444 213.261 143.297 213.292C139.975 200.006 136.938 185.455 136.375 182.727L136.348 182.501C136.217 178.378 135.285 142.315 142.223 136.038L142.234 136.043Z" fill="black"/>
<path d="M258.357 152.658C258.736 152.658 296.932 144.053 296.932 144.053C296.932 144.053 308.313 138.36 311.855 138.486C315.398 138.613 321.088 138.739 323.362 141.525C325.636 144.311 331.121 149.187 328.342 149.44C325.557 149.693 324.499 147.723 322.225 145.827C319.951 143.932 315.272 143.679 315.272 143.679L308.065 146.417C308.065 146.417 316.24 147.686 318.135 149.461C320.03 151.23 318.104 151.789 318.104 151.789C318.104 151.789 303.68 152.205 300.143 151.952C296.605 151.699 290.704 155.496 290.704 155.496L255.862 169.367L254.32 153.932L258.368 152.668L258.357 152.658Z" fill="#FCBC92"/>
<path d="M323.995 143.926C323.995 143.926 329.811 149.24 331.201 148.355C332.591 147.471 325.258 140.003 323.231 139.245C321.21 138.487 315.009 140.13 315.009 140.13L323.989 143.926H323.995Z" fill="#FCBC92"/>
<path d="M322.794 141.589C321.973 140.704 320.073 139.504 320.073 139.504L311.219 138.935L297.559 144.312L253.357 154.117L252.915 151.774L295.516 142.553L310.161 137.281L322.868 137.402L327.685 139.962C327.685 139.962 331.864 145.776 332.149 146.365C332.433 146.96 332.696 148.914 331.796 149.367C331.285 149.62 330.659 149.441 330.375 149.251C330.464 150.025 329.911 150.531 329.285 150.768C328.274 151.147 324.421 149.42 324.421 149.42C324.421 149.42 318.104 144.691 316.967 144.248C316.146 143.927 313.219 145.402 311.651 146.249C313.609 146.46 315.93 146.792 317.046 147.303C318.478 147.956 319.152 148.382 319.583 148.956C319.941 149.293 320.183 149.715 320.378 150.325C320.884 151.905 320.062 152.985 318.61 153.49C317.157 153.996 298.122 153.68 297.553 153.933C296.985 154.186 255.563 172.533 255.563 172.533L255.057 168.989C255.436 168.989 291.547 154.881 291.547 154.881C291.547 154.881 296.174 151.916 298.259 151.663C300.343 151.41 317.794 151.236 317.794 151.236C317.794 151.236 319.073 150.031 317.236 149.146C315.951 148.524 311.798 147.334 309.429 146.676L306.913 146.381L315.846 142.758C315.846 142.758 320.047 143.911 321.673 145.312C323.326 146.734 324.274 147.945 326.363 148.956C328.448 149.967 328.995 148.825 328.806 148.319C328.616 147.814 323.616 142.484 322.789 141.599L322.794 141.589ZM329.559 147.408C329.769 147.666 329.917 147.935 330.027 148.203C330.438 148.356 330.964 148.472 331.233 148.177C331.706 147.656 328.243 143.601 328.243 143.601C328.243 143.601 324.495 140.183 323.621 139.472C323.005 138.972 321.626 139.072 320.863 139.172C322.3 140.078 325.463 142.4 329.559 147.413V147.408Z" fill="black"/>
<path d="M223.452 85.957C222.594 84.8669 221.489 82.7025 222.199 80.5118C222.868 78.4685 222.263 76.4095 222.142 74.0871C222.02 71.7647 217.162 58.9207 216.709 57.9043L199.38 60.7533L190.515 64.2342C181.651 67.7151 182.514 76.004 182.514 76.004C182.514 76.004 185.625 93.1505 185.136 94.6619C185.072 94.8567 185.304 102.408 181.024 111.703C182.725 112.467 183.741 113.283 185.051 114.447C185.641 114.973 189.442 116.242 189.794 116.811C193.647 118.317 195.106 112.609 199.264 112.514C199.406 112.514 199.548 112.498 199.685 112.493C200.043 109.823 201.028 102.545 201.07 102.298C201.122 101.992 211.666 105.673 211.666 105.673C211.666 105.673 218.025 107.601 219.262 107.085C220.504 106.569 220.594 103.356 220.878 101.734C220.936 101.408 216.783 98.9906 216.783 98.9906C216.783 98.9906 221.22 98.7695 221.589 97.3792C221.847 96.405 222.605 95.6519 222.605 95.6519C222.605 95.6519 225.879 93.2979 227.295 91.7655C228.711 90.2331 224.305 87.0523 223.447 85.9622L223.452 85.957Z" fill="#FCBC92"/>
<path d="M221.336 101.444C221.031 101.444 220.284 101.302 220.015 101.176C219.931 101.997 220.11 103.108 220.015 103.993C219.878 105.231 218.662 106.452 217.641 106.352L200.68 102.187C200.68 102.187 214.04 108.232 217.752 108.111C221.463 107.985 222.115 105.626 221.299 102.782C221.242 102.582 221.299 101.723 221.336 101.45V101.444Z" fill="black"/>
<path d="M222.999 82.9656C222.241 79.9955 222.673 79.6479 222.926 77.4572C223.178 75.2612 220.078 64.6763 220.078 64.6763L220.157 64.2655C220.157 64.2655 219.383 61.98 219.32 61.7747C219.257 61.5693 219.841 63.0859 218.92 64.3761C217.714 66.056 221.157 73.297 221.431 76.5304C221.705 79.769 220.741 81.4911 221.047 83.2815C221.352 85.0773 224.747 89.306 225.758 90.2908C226.769 91.2755 224.184 93.561 222.999 94.4299C222.399 94.8723 221.884 96.0203 221.499 97.1789C221.857 97.142 222.236 97.2052 222.584 97.3526C222.626 97.3684 223.489 97.5159 223.526 97.5317C223.979 96.2731 224.447 95.5516 224.447 95.5516C224.447 95.5516 227.348 93.4557 228.006 91.7863C228.616 90.2381 223.768 85.9304 223.01 82.955L222.999 82.9656Z" fill="black"/>
<path d="M176.755 72.8542C176.755 72.8542 177.449 72.7226 177.818 73.8653C178.181 75.0081 179.813 84.9874 179.655 85.0084C179.503 85.0242 178.718 84.8557 178.718 84.8557L177.376 76.5352L176.749 72.8542H176.755Z" fill="white"/>
<path d="M199.047 98.8066C199.047 98.8066 200.037 101.972 200.679 102.187C201.321 102.403 203.838 103.388 203.838 103.388L205.78 103.546C205.78 103.546 200.932 101.54 200.01 100.465C199.094 99.3912 199.052 98.8066 199.052 98.8066H199.047Z" fill="black"/>
<path d="M182.845 94.1351L184.346 91.897L182.203 83.0078C182.203 83.0078 182.94 80.2641 181.334 79.3373C179.729 78.4104 177.691 76.6831 177.939 75.1296C178.181 73.5761 179.113 71.5645 179.113 71.5645C179.113 71.5645 176.686 73.3075 176.86 75.4456C177.033 77.5784 180.582 79.8691 180.734 81.5596C180.887 83.25 181.656 86.4834 181.656 86.4834L182.851 94.1298L182.845 94.1351Z" fill="white"/>
<path d="M213.887 81.2863C213.939 82.329 214.882 83.1084 215.987 83.0294C217.093 82.9504 217.946 82.0393 217.888 80.9966C217.835 79.954 216.893 79.1746 215.787 79.2536C214.682 79.3326 213.829 80.2436 213.887 81.2863Z" fill="black"/>
<path d="M215.903 80.4701C215.919 80.8124 216.229 81.0652 216.593 81.0388C216.956 81.0125 217.235 80.7123 217.219 80.3753C217.203 80.033 216.893 79.7802 216.529 79.8066C216.166 79.8329 215.887 80.1331 215.903 80.4701Z" fill="white"/>
<path d="M219.73 80.623C219.73 80.623 219.804 81.2708 219.767 81.2181C219.53 80.86 218.051 80.1228 216.251 79.6804C214.166 79.1643 211.597 81.2655 211.597 81.2655C211.597 81.2655 212.224 80.0016 214.287 79.3644C217.614 78.3375 219.73 80.6283 219.73 80.6283V80.623Z" fill="black"/>
<path d="M216.335 98.9125C216.335 98.9125 224.321 95.7318 224.242 97.2958C224.168 98.8651 222.241 99.0494 222.241 99.0494L216.33 98.9072L216.335 98.9125Z" fill="#E80537"/>
<path d="M216.335 98.9125C216.335 98.9125 222.742 98.2911 222.989 100.087C223.131 101.119 222.078 101.867 220.752 101.625C219.462 101.388 216.335 98.9178 216.335 98.9178V98.9125Z" fill="#E80537"/>
<path d="M244.566 138.245C244.566 138.245 241.223 131.883 235.78 125.069C230.337 118.249 227.416 113.436 224.605 112.062C223.489 111.514 221.02 110.634 220.388 110.866C219.425 111.224 220.599 112.967 220.599 112.967C220.599 112.967 223.631 114.168 225.542 116.085C227.453 117.997 242.229 138.434 242.229 138.434L245.166 138.197" fill="black"/>
<path d="M198.531 110.533C198.542 110.217 198.557 109.869 198.584 109.495C198.368 109.211 198.215 108.99 198.215 108.99L198.621 109.011C198.805 106.731 199.221 103.729 199.568 101.659C199.852 99.9796 200.568 100.838 201.148 101.412C201.148 101.412 201.232 105.14 200.974 108.579L205.838 109.359L206.049 110.865C206.049 110.865 201.885 110.807 200.363 110.791C200.321 111.428 200.289 111.992 200.279 112.434C199.942 112.471 198.868 111.734 198.531 111.744C198.521 111.744 198.542 110.533 198.531 110.533Z" fill="black"/>
<path d="M162.268 141.942C164.31 142.548 165.732 188.663 166.869 196.636C168.006 204.609 181.55 227.438 181.55 227.438L199.027 222.824L214.108 184.961L215.529 167.025L189.351 138.271L162.268 141.937V141.942Z" fill="white"/>
<path d="M187.651 145.828C188.094 146.413 198.801 169.162 198.801 169.162C198.801 169.162 208.523 176.024 206.618 182.775C204.712 189.526 191.536 183.818 191.536 183.818C191.536 183.818 180.245 173.27 173.644 164.902C167.043 156.534 161.542 142.742 161.542 142.742L187.657 145.823L187.651 145.828Z" fill="#FCBC92"/>
<path d="M187.43 143.627L197.553 164.249L201.001 170.558L202.396 175.771L197.284 169.563L184.593 143.911L187.43 143.627Z" fill="black"/>
<path d="M162.268 141.94L168.99 155.416L183.029 173.495C183.029 173.495 190.488 187.998 205.607 185.123C207.449 184.77 204.849 186.892 204.849 186.892C204.849 186.892 196.695 189.236 192.952 187.208C189.562 185.37 178.945 173.453 178.945 173.453C178.945 173.453 168.406 159.419 167.374 157.655C166.348 155.896 161.389 144.505 161.389 144.505L160.584 141.498L162.273 141.94H162.268Z" fill="black"/>
<path d="M180.309 110.681C180.309 110.681 161.337 118.565 158.931 124.763C156.531 130.961 162.221 151.331 162.221 151.331C162.221 151.331 173.729 145.385 178.282 144.88C182.835 144.374 189.631 148.898 189.631 148.898L204.997 180.115L216.662 160.852L235.444 140.64L242.234 138.429C242.234 138.429 230.29 118.428 222.7 113.873C215.109 109.317 180.303 110.676 180.303 110.676L180.309 110.681Z" fill="white"/>
<path d="M194.568 79.7587C194.568 79.7587 194.047 78.1631 192.031 77.2152C190.015 76.2673 187.782 79.3585 187.782 79.3585C187.782 79.3585 189.493 76.4411 190.667 76.0514C191.836 75.6617 194.005 76.5517 194.289 77.3942C194.579 78.2368 194.568 79.7587 194.568 79.7587Z" fill="black"/>
<path d="M185.482 91.3965L183.471 98.8902L182.565 103.545L181.202 107.358L180.07 111.592L182.102 112.793L187.54 92.4129L185.482 91.3965Z" fill="black"/>
<path d="M187.298 82.8438C187.298 82.8438 187.766 85.224 189.635 86.1719C191.504 87.1199 193.399 86.1456 193.399 86.1456L190.588 87.5095C190.588 87.5095 189.593 87.815 188.598 86.9039C187.598 85.9929 187.298 82.8438 187.298 82.8438Z" fill="black"/>
<path d="M221.915 72.8499C221.915 72.8499 221.272 67.8681 218.24 67.1572C215.208 66.4463 214.592 64.5294 211.187 68.3684C207.781 72.2074 210.192 72.1863 205.917 71.4122C201.643 70.6328 202.985 81.9445 199.664 80.6227C196.342 79.3009 195.852 75.5093 193.415 74.7667C189.994 73.724 188.078 72.971 186.546 77.2313C185.014 81.4916 185.303 84.3827 186.956 86.1153C189.262 88.5324 185.109 98.3327 185.109 98.3327C185.109 98.3327 177.802 87.6319 177.044 83.0556C176.286 78.4794 170.633 76.9522 173.686 70.5802C176.739 64.2082 173.333 62.4124 175.018 58.0836C176.702 53.7496 182.466 46.0769 185.198 46.9353C187.93 47.7936 200.99 43.4069 203.706 43.2437C206.423 43.0804 215.266 45.0605 218.819 49.2524C222.373 53.4442 228.821 56.5512 229.142 61.9859C229.468 67.4205 221.909 72.8604 221.909 72.8604L221.915 72.8499Z" fill="#E80537"/>
<path d="M184.435 101.093L186.046 98.2542C187.099 95.7633 190.626 88.0169 187.931 85.189C186.567 83.7618 186.525 81.2341 187.809 77.6742C188.862 74.7515 189.447 74.9305 192.689 75.9258L193.037 76.0312C193.747 76.2471 194.316 77.0738 194.984 78.027C195.906 79.3541 197.053 81.0076 199.18 81.8502C200.096 82.2136 200.817 82.0187 201.259 81.787C202.659 81.0603 203.117 79.1382 203.644 76.9106C204.212 74.5145 204.765 72.545 205.686 72.7135C206.097 72.7872 206.444 72.8557 206.744 72.9136C208.655 73.2875 209.466 73.3665 210.413 71.7077C210.703 71.2021 211.134 70.4385 212.192 69.2484C214.424 66.7312 214.888 66.8734 216.614 67.4052C217.051 67.5422 217.551 67.6949 218.135 67.8318C219.704 68.2004 220.478 71.4444 220.604 72.9557L220.799 75.2992L222.705 73.93C223.036 73.6877 230.848 67.9898 230.485 61.8969C230.232 57.6366 226.911 54.7876 223.699 52.0281C222.268 50.7959 220.915 49.6373 219.846 48.3787C215.94 43.7761 206.597 41.7223 203.638 41.9014C202.549 41.9646 200.448 42.5122 197.106 43.3917C193.558 44.3291 186.951 46.0774 185.604 45.6509C181.403 44.3396 175.181 54.0082 173.786 57.5892C172.928 59.8009 173.191 61.4598 173.449 63.0659C173.755 64.967 174.044 66.7628 172.497 69.9962C170.222 74.7462 172.228 77.4583 173.839 79.6332C174.702 80.797 175.518 81.8976 175.744 83.2668C176.545 88.0801 184.446 97.4696 184.751 97.9172L184.441 101.093H184.435ZM189.836 72.6187C188.046 72.6187 186.462 73.535 185.299 76.7737C183.651 81.3605 183.888 84.8098 185.999 87.0268C186.82 87.8852 186.083 91.7295 184.798 95.4316C182.409 91.7084 178.834 85.684 178.361 82.8297C178.029 80.8286 176.934 79.3541 175.971 78.0481C174.423 75.9574 173.307 74.4513 174.886 71.1442C176.797 67.1577 176.392 64.651 176.065 62.6394C175.834 61.2175 175.655 60.0906 176.255 58.5529C178.197 53.5606 183.535 47.7731 184.793 48.1891C186.73 48.7947 191.189 47.6994 197.769 45.9616C200.29 45.298 202.901 44.6082 203.78 44.5555C206.412 44.3923 214.651 46.3828 217.804 50.0955C219.009 51.5173 220.504 52.8023 221.952 54.0451C224.868 56.5517 227.626 58.9162 227.811 62.0496C227.99 65.0197 224.342 69.7013 222.11 71.7129C221.594 69.7223 220.199 66.905 217.751 66.3309C217.256 66.2151 214.861 66.0782 214.44 65.9465C211.84 65.1408 208.086 71.6866 208.076 71.7077C207.855 71.6708 205.807 71.397 205.381 71.318C201.901 70.6808 202.491 74.7831 201.843 77.5057C201.612 78.4852 200.433 78.8433 200.08 79.333C198.727 78.7537 197.964 77.6531 197.153 76.4946C196.285 75.2465 195.39 73.9563 193.795 73.4718L193.452 73.3665C192.194 72.9821 190.968 72.6082 189.826 72.6082L189.836 72.6187Z" fill="black"/>
<path d="M200.043 80.8747C200.043 80.8747 200.032 88.8161 195.026 90.338C190.02 91.8599 184.035 91.6071 183.114 88.6159C182.198 85.6248 182.561 79.3318 183.219 76.4354C183.882 73.539 185.04 71.1061 187.836 71.2588C190.631 71.4115 198.137 72.9703 199.106 75.0293C200.074 77.0884 200.043 80.8747 200.043 80.8747Z" fill="#FFCB2E"/>
<path d="M192.43 82.3757C192.43 82.3757 192.404 82.4547 192.351 82.581C192.072 83.2656 191.099 85.3774 189.946 84.8034C188.577 84.1188 187.235 84.6822 186.961 83.7291C186.687 82.7759 188.056 68.4099 188.946 64.2181C189.835 60.0262 193.925 46.1131 195.463 43.8171C197 41.521 199.463 39.4567 201.511 39.4357C203.559 39.4146 208.549 42.5374 208.549 42.5374C208.549 42.5374 203.39 42.7796 200.911 44.2647C198.431 45.7445 194.931 64.3339 194.152 67.4251C193.373 70.5163 192.43 82.3809 192.43 82.3809V82.3757Z" fill="#FFCB2E"/>
<path d="M193.162 72.2912L193.141 71.2064C193.141 71.2064 197.874 71.8647 199.069 73.0232C200.263 74.1818 200.685 76.799 200.685 76.799C200.685 76.799 200.406 83.0289 199.095 86.3255C197.784 89.6221 197.679 90.1856 195.994 90.907C194.31 91.6285 188.935 93.6349 186.266 92.2657C183.598 90.8912 182.255 89.7959 182.213 88.769C182.171 87.7421 182.345 81.2805 182.345 81.2805L183.345 73.4814C183.429 72.9969 183.608 72.5387 183.877 72.1227C184.282 71.4908 184.908 70.6008 185.351 70.3638C186.056 69.9847 188.319 70.2901 188.319 70.2901L188.061 71.7172C188.061 71.7172 186.151 71.3117 185.303 72.5282C184.55 73.6078 184.066 75.5246 183.966 75.9459C183.956 75.9986 183.945 76.0513 183.94 76.1039C183.85 77.0782 182.919 87.2049 183.392 88.4899C183.887 89.838 185.361 90.4015 186.988 90.5436C188.614 90.6858 194.863 90.907 196.163 89.2218C197.047 88.0791 198.121 85.425 198.726 83.8293C199.042 82.992 199.242 82.1231 199.316 81.2279C199.442 79.7428 199.584 77.4205 199.374 76.5094C199.326 76.304 199.247 76.0881 199.158 75.8775C198.547 74.4872 197.316 73.4709 195.857 73.0548L193.173 72.2807L193.162 72.2912Z" fill="black"/>
<path d="M195.047 88.7948C194.868 88.858 193.852 89.4742 193.852 89.4742C193.852 89.4742 193.136 87.0623 193.384 84.524C193.631 81.9857 197.601 75.9297 197.601 75.9297C197.601 75.9297 195.116 80.9062 194.842 83.3391C194.568 85.7721 195.047 88.7948 195.047 88.7948Z" fill="black"/>
<path d="M183.808 108.112C183.808 108.491 182.35 111.103 182.35 111.103L196.373 132.484L210.286 140.836C210.286 140.836 205.859 127.423 204.343 122.109C202.827 116.796 199.537 111.103 199.537 111.103C199.537 111.103 196.979 111.92 193.436 109.392C189.893 106.859 183.808 108.117 183.808 108.117V108.112Z" fill="#FCBC92"/>
<path d="M195.41 180.91C195.657 180.083 195.926 172.405 199.237 162.162C202.548 151.92 207.68 140.455 206.659 134.9C205.638 129.344 201.464 125.542 201.464 125.542L198.358 118.964C198.358 118.964 193.673 110.586 194.968 109.785C196.263 108.985 198.037 108.89 199.858 111.708C201.68 114.52 202.359 118.253 204.359 116.974C206.359 115.694 206.37 110.254 204.548 107C202.727 103.745 198.921 99.4058 199.184 98.0524C199.448 96.699 199.884 95.8196 202.58 97.747C205.275 99.6797 208.238 104.293 208.238 104.293C208.238 104.293 209.202 103.866 210.707 105.125C212.218 106.383 212.492 107.231 212.492 107.231C212.492 107.231 214.024 106.562 214.518 107.189C215.013 107.811 216.134 109.259 216.134 109.259C216.134 109.259 218.277 108.622 219.124 109.664C219.972 110.707 221.425 114.067 221.425 114.067L220.925 125.647C220.925 125.647 220.093 135.758 219.509 136.959C218.924 138.159 216.619 157.644 216.619 157.644L209.444 179.598L195.41 180.899V180.91Z" fill="#FCBC92"/>
<path d="M200.68 126.816L197.411 120.692C197.411 120.692 193.81 112.276 193.573 111.002C193.336 109.728 193.747 108.738 193.747 108.738C193.747 108.738 194.7 107.384 196.316 107.658C197.932 107.927 200.527 109.675 201.148 111.202C201.775 112.729 202.543 115.657 203.58 115.726C204.491 115.789 205.838 112.956 204.98 110.812C204.128 108.669 200.322 102.997 199.574 101.665C198.827 100.333 197.548 97.6049 198.216 96.636C198.89 95.667 200.195 95.1141 202.843 96.8624C205.486 98.6055 207.97 103.419 208.513 103.566C209.055 103.714 211.197 104.44 211.571 104.999C211.945 105.557 212.913 106.226 212.913 106.226C212.913 106.226 214.198 106.168 215.172 107.016C216.145 107.863 216.666 108.58 216.666 108.58C216.666 108.58 219.72 108.569 220.678 109.501C221.636 110.433 222.81 115.189 222.81 115.189V123.125L221.088 136.501L220.02 149.829L217.693 159.914L214.271 164.069C214.271 164.069 217.035 150.793 217.725 146.138C218.414 141.488 218.414 138.107 219.22 133.741C220.025 129.375 220.404 121.813 220.404 121.813C220.404 121.813 221.473 117.237 220.82 115.178C220.167 113.119 219.451 110.038 218.683 109.933C217.914 109.828 216.003 109.717 216.003 109.717C216.003 109.717 214.65 107.653 213.95 107.647C213.25 107.647 212.118 107.595 212.118 107.595C212.118 107.595 211.171 105.92 210.429 105.683C209.686 105.451 207.897 104.925 207.77 104.683C207.644 104.44 203.801 99.169 202.691 98.3369C201.58 97.5049 200.748 96.815 200.064 97.1678C199.379 97.5154 199.201 98.2263 200.032 99.5745C200.864 100.923 204.101 104.145 204.98 106.599C205.865 109.053 207.123 111.239 206.444 113.514C205.965 115.12 205.649 115.921 205.444 116.289C205.444 116.289 204.617 118.78 202.364 116.889C200.632 115.436 199.669 111.871 198.99 111.007C197.832 109.522 195.4 108.948 195.226 110.054C195.052 111.16 197.042 115.368 197.042 115.368L202.422 125.81C202.422 125.81 206.902 130.287 207.181 135.389C207.46 140.492 201.943 156.185 201.943 156.185C201.943 156.185 196.716 172.421 196.511 175.717C196.305 179.014 196.563 182.39 194.758 182.005C193.994 181.842 195.242 169.635 197.19 163.258C199.137 156.875 205.586 140.355 205.201 136.685C204.822 133.009 200.68 126.811 200.68 126.811V126.816Z" fill="black"/>
<path d="M144.976 140.861C145.871 140.861 151.256 142.657 152.509 146.064C153.767 149.471 158.968 175.133 158.968 175.133C158.968 175.133 155.741 143.91 151.972 140.324C148.203 136.738 145.876 138.349 145.876 138.349L144.981 140.861H144.976Z" fill="black"/>
<path d="M220.957 76.5981C220.957 76.5981 219.53 74.4758 215.477 74.2283C211.424 73.9808 207.644 76.9035 207.644 76.9035C207.644 76.9035 211.04 72.3483 215.577 72.7854C220.115 73.2225 220.789 75.2921 220.789 75.2921L220.957 76.5981Z" fill="black"/>
<path d="M206.797 137.659L196.753 131.556L181.924 110.502L180.072 111.592L195.795 134.305L206.255 139.629L206.797 137.659Z" fill="black"/>
<path d="M181.444 109.664L177.796 110.233L169.295 113.192C168.79 113.429 168.327 113.751 167.921 114.14L163.263 117.569C162.315 118.48 160.673 120.023 160.02 121.16L158.346 123.367C157.062 125.605 157.93 127.795 158.214 130.36L159.267 139.749L161.657 152.009L173.97 147.09C177.096 145.842 180.565 145.774 183.74 146.896L190.209 150.055L189.762 142.978L189.161 146.506C189.161 146.506 184.203 143.309 177.512 143.072C170.195 142.809 163.194 149.76 162.894 147.427C162.594 145.095 158.73 127.548 160.046 125.036C161.362 122.524 167.279 117.8 169.79 115.825C172.301 113.851 181.029 111.697 181.029 111.697L181.444 109.664Z" fill="black"/>
<path d="M180.114 227.305L172.376 209.99L168.575 195.693L165.917 153.574L165.085 150.625H163.185C163.185 150.625 164.548 164.343 164.448 167.003C164.348 169.657 165.954 196.877 165.954 196.877C165.954 196.877 170.249 211.043 170.544 211.828C170.839 212.613 177.034 223.045 177.329 223.356C177.624 223.666 180.119 227.305 180.119 227.305H180.114Z" fill="black"/>
<path d="M189.479 93.7617H188.026L185.646 103.852L189.479 93.7617Z" fill="black"/>
<path d="M191.847 93.4668L190.236 93.7617L188.714 99.2701L191.847 93.4668Z" fill="black"/>
<path d="M222.114 93.8347C222.114 93.8347 221.109 93.5029 220.751 93.05C220.393 92.5971 220.556 91.9336 220.556 91.9336C220.556 91.9336 219.929 92.5129 219.977 92.8868C220.024 93.2607 220.382 94.0242 220.946 94.1348C221.509 94.2454 222.114 93.8399 222.114 93.8399V93.8347Z" fill="black"/>
<path d="M149.95 211.597C149.566 210.828 141.217 185.461 141.217 185.461L147.339 211.386L149.95 211.597Z" fill="black"/>
<path d="M151.313 211.595C151.608 211.622 153.967 211.943 153.967 211.943L148.286 200.357L151.308 211.595H151.313Z" fill="black"/>
<path d="M155.788 212.112C156.057 212.064 158.615 212.507 158.615 212.286C158.615 212.064 153.035 204.713 153.035 204.713L155.788 212.112Z" fill="black"/>
<path d="M242.238 163.405C242.238 163.405 278.313 151.993 282.834 156.322C287.356 160.651 278.113 182 278.113 182L239.47 190.61L242.238 163.405Z" fill="#FCBC92"/>
<path d="M238.133 191.995L245.24 190.694L250.809 189.588L261.863 186.992L267.369 185.812L272.897 184.464L278.877 182.858L281.445 177.465L283.204 172.284L284.635 166.928L285.409 161.351L284.893 159.245C284.288 156.775 282.224 154.937 279.703 154.626L277.85 154.395L272.391 154.821L267.322 155.885L262.111 156.675L256.852 157.818L251.977 159.555L246.856 160.782L241.418 162.604L240.365 168.755L240.007 174.169L239.149 179.698L239.096 185.112L238.133 192V191.995ZM277.208 180.857L272.307 182.173L266.838 183.506L261.342 184.685L250.304 187.281L244.792 188.372L240.923 189.083L241.455 185.212L241.507 179.809L242.36 174.379L242.718 168.976L243.508 164.4L247.556 163.042L252.709 161.804L257.568 160.071L262.569 158.997L267.769 158.207L272.797 157.154L277.787 156.775C280.308 157.091 282.372 158.929 282.977 161.393L282.998 161.477L282.293 166.533L280.919 171.636L279.219 176.639L277.203 180.857H277.208Z" fill="black"/>
<path d="M190.204 227.912C190.204 227.912 205.727 170.469 215.845 157.82C225.962 145.165 235.069 135.17 238.106 134.285C241.144 133.4 250.756 132.137 252.272 135.802C253.788 139.472 258.12 190.996 258.12 190.996L250.982 228.517L190.204 227.906V227.912Z" fill="#FCBC92"/>
<path d="M230.326 227.531C230.326 227.531 225.584 191.474 226.089 186.54C226.594 181.605 236.459 162.879 236.459 162.879C236.459 162.879 230.011 177.429 228.868 183.754C227.731 190.078 232.6 227.91 232.6 227.91L230.326 227.531Z" fill="black"/>
<path d="M256.321 191.605C256.194 190.973 252.32 147.939 252.32 145.532C252.32 143.125 252.136 136.743 250.746 135.858C249.357 134.973 240.997 135.426 237.965 136.185C234.928 136.943 216.93 159.945 216.93 159.945C216.93 159.945 207.123 181.347 202.065 190.331C197.006 199.315 196.306 209.342 196.306 209.342L193.111 206.983C193.111 206.983 196.769 193.722 199.554 189.42C202.338 185.118 212.693 158.955 219.141 152.12C225.59 145.29 234.065 134.657 239.755 133.394C245.445 132.13 250.915 131.213 253.099 134.057C255 136.537 255.436 153.889 255.436 153.889C255.436 153.889 259.358 189.694 259.105 190.199C258.853 190.705 256.321 191.595 256.321 191.595V191.605Z" fill="black"/>
<path d="M184.593 208.952L307.634 225.093L457 156.37L351.651 152.441L184.593 208.952Z" fill="#FFAC66"/>
<path d="M307.771 226.079L312.893 223.92L317.799 221.934L322.684 219.786L327.584 217.542L332.233 215.062L346.809 208.621L351.472 206.183L356.405 204.098L361.048 201.644L366.017 199.627L370.665 197.194L375.545 195.261L380.43 193.049L385.404 190.885L389.926 188.263L394.885 186.43L399.833 184.276L404.497 181.812L409.298 179.642L419.015 175.429L428.674 170.969L433.475 168.667L438.281 166.487L443.056 164.028L447.799 161.695L452.605 159.541L457 156.366L451.741 155.149L446.546 154.981L441.261 154.396L435.997 154.17L430.664 154.027H430.622L425.448 154.28L420.152 153.554L409.603 153.517L404.376 153.317L399.075 153.232L393.869 152.906L388.573 152.711H383.257L378.035 152.532L372.797 152.221L367.465 151.868L362.237 151.858L357.021 151.431L351.462 151.168L346.156 153.059L340.992 154.644L335.938 156.518L330.859 158.156L325.747 159.947L320.641 161.516L315.446 163.222L310.455 165.165L305.36 166.782L300.28 168.599L295.148 170.121L289.973 171.564L284.804 173.233L279.624 174.955L274.66 176.925L269.443 178.457L264.469 180.395L259.215 181.927L254.33 183.976L248.993 185.187L243.95 187.088L233.843 190.811L228.832 192.523L223.447 193.718L218.44 195.598L213.203 197.152L208.202 199.185L203.254 201.049L197.906 202.334L192.884 204.303L187.83 206.004L183.43 209.58L188.088 210.617L193.305 211.244L198.485 212.092L208.892 213.214L214.013 214.014L219.304 214.893L224.457 215.141L229.632 216.21L240.065 217.221L245.166 217.879L250.451 219.043L255.625 219.27L260.8 220.175L266.017 220.681L271.165 221.36L281.551 222.682L286.715 223.282L291.937 224.383L297.153 224.867L302.354 225.405L307.781 226.073L307.771 226.079ZM326.505 215.431L321.715 217.621L316.877 219.754L311.987 221.734L307.434 223.656L302.612 223.061L297.374 222.519L292.21 222.04L287.03 220.944L281.83 220.339L266.269 218.337L261.063 217.832L255.794 216.916L250.646 216.689L245.513 215.546L240.323 214.878L229.921 213.872L224.663 212.792L219.488 212.545L214.392 211.686L209.207 210.881L198.774 209.754L193.642 208.916L188.488 208.295L188.573 208.269L193.7 206.541L198.7 204.582L204.028 203.308L209.071 201.407L214.045 199.385L219.241 197.847L224.205 195.983L229.542 194.803L234.643 193.06L244.782 189.326L249.756 187.452L255.157 186.219L260.074 184.155L265.285 182.638L270.259 180.7L275.487 179.168L280.466 177.188L285.541 175.503L290.657 173.849L295.806 172.417L301.054 170.858L306.123 169.046L311.287 167.403L316.283 165.46L321.368 163.791L326.495 162.216L331.622 160.421L336.723 158.778L341.792 156.898L346.909 155.323L351.825 153.575L356.879 153.812L362.195 154.243L367.433 154.254L372.66 154.601L377.935 154.912L383.23 155.102H388.547L393.769 155.291L399.001 155.618L404.328 155.702L409.571 155.902L420.078 155.939L425.358 156.676L430.706 156.413L435.928 156.55L441.134 156.771L446.435 157.361L451.373 157.524L446.804 159.573L442.003 161.932L437.26 164.375L432.48 166.54L427.674 168.846L418.057 173.286L408.345 177.499L403.433 179.721L398.775 182.18L393.979 184.26L388.836 186.177L384.288 188.816L379.482 190.896L374.634 193.092L369.639 195.077L364.985 197.515L360.011 199.532L355.363 201.991L350.435 204.071L345.766 206.515L340.944 208.621L331.169 212.966L326.516 215.446L326.505 215.431Z" fill="black"/>
<path d="M368.407 155.669C368.407 155.669 311.303 152.504 310.419 152.631C309.535 152.757 291.195 164.016 291.195 164.016L286.262 166.675L361.196 170.472L368.402 155.669H368.407Z" fill="white"/>
<path d="M361.858 156.907L355.694 167.724L313.293 165.918L326.574 156.049L361.858 156.907Z" fill="black"/>
<path d="M384.756 43.0003C384.756 57.124 396.664 67.4193 410.782 67.4193C424.9 67.4193 435.886 57.124 435.886 43.0003C435.886 28.8765 425.016 18.002 410.898 18.002C396.779 18.002 384.756 28.8765 384.756 43.0003Z" fill="#59D359"/>
<path d="M409.197 42.6534C409.197 43.5592 409.929 44.2912 410.834 44.2912C411.74 44.2912 412.472 43.5592 412.472 42.6534C412.472 41.7476 411.74 41.0156 410.834 41.0156C409.929 41.0156 409.197 41.7476 409.197 42.6534Z" fill="white"/>
<path d="M413.371 41.3846C413.429 40.9212 416.425 30.8418 416.425 30.8418L410.265 39.8258L413.377 41.3793L413.371 41.3846Z" fill="white"/>
<path d="M408.013 42.1328C408.013 42.1328 389.647 49.2737 389.821 49.2737C389.995 49.2737 409.624 45.5874 409.624 45.5874L408.013 42.1328Z" fill="white"/>
<path d="M381.251 304.412L391.863 305.934L399.17 304.412H381.251Z" fill="#9BE59B"/>
<path d="M338.918 304.117L339.792 306.961L351.004 305.787L338.918 304.117Z" fill="#9BE59B"/>
<path d="M395.074 270.082L395.948 272.926L407.155 271.751L395.074 270.082Z" fill="#9BE59B"/>
<path d="M357.458 265.016C356.363 265.222 355.642 265.364 354.358 265.38C354.142 265.38 353.784 265.39 353.047 265.406C352.699 265.417 351.873 265.432 351.873 265.432C351.873 265.432 351.183 265.453 350.799 265.464C349.809 265.49 349.194 265.496 348.872 265.501C347.572 265.501 346.825 265.353 345.761 265.022C346.856 264.816 347.577 264.674 348.862 264.658C349.178 264.658 349.788 264.642 350.778 264.616C351.162 264.606 351.852 264.59 351.852 264.59C351.852 264.59 352.678 264.563 353.026 264.558C353.768 264.542 354.126 264.537 354.347 264.537C355.647 264.537 356.395 264.685 357.458 265.016Z" fill="#9BE59B"/>
<path d="M121.925 305.239C120.83 305.444 120.109 305.587 118.824 305.602C118.608 305.602 118.251 305.613 117.514 305.629C117.166 305.639 116.34 305.655 116.34 305.655C116.34 305.655 115.65 305.676 115.266 305.687C114.276 305.713 113.66 305.718 113.339 305.723C112.039 305.723 111.291 305.576 110.228 305.244C111.323 305.039 112.044 304.897 113.329 304.881C113.645 304.881 114.255 304.865 115.245 304.839C115.629 304.828 116.319 304.812 116.319 304.812C116.319 304.812 117.145 304.786 117.492 304.781C118.235 304.765 118.593 304.76 118.814 304.76C120.114 304.76 120.861 304.907 121.925 305.239Z" fill="#9BE59B"/>
<path d="M88.6722 260.312C90.3145 259.986 91.4305 259.817 93.3782 259.907C93.7098 259.922 94.2467 259.954 95.3575 260.012C96.4945 260.075 98.4106 260.186 100.042 260.291C101.674 260.402 103.022 260.491 103.022 260.491C103.022 260.491 104.148 260.57 105.585 260.67C107.022 260.77 108.775 260.907 110.023 261.007C111.507 261.134 112.429 261.207 112.908 261.25C114.85 261.423 115.929 261.745 117.514 262.292C115.856 262.55 114.74 262.666 112.802 262.513C112.323 262.477 111.407 262.398 109.923 262.282C108.675 262.187 106.928 262.05 105.496 261.939C104.059 261.834 102.938 261.755 102.938 261.755C102.938 261.755 101.595 261.666 99.9687 261.56C98.3421 261.46 96.4313 261.35 95.2943 261.281C94.1836 261.218 93.6466 261.186 93.315 261.171C91.3726 261.06 90.2829 260.786 88.6774 260.307L88.6722 260.312Z" fill="#9BE59B"/>
<path d="M333.912 3.62097L333.612 76.1619L261.774 73.9817V0.0136719L333.912 3.62097ZM265.312 35.8233L265.08 69.4002L294.853 70.327L297.769 70.4165L330.459 71.4329L331.296 36.9134C330.691 36.1709 331.343 34.8596 331.343 34.8596L332.038 6.2593L297.775 4.74792L295.501 4.64787L265.538 3.32607L265.343 32.0633C265.343 32.0633 265.622 34.3699 265.317 35.8286L265.312 35.8233Z" fill="#59D359"/>
<path d="M295.216 33.3272L295.495 4.64258L297.77 4.74263V33.4325L295.216 33.3272Z" fill="#59D359"/>
<path d="M297.77 36.3605V70.4113L294.853 70.3218L295.185 36.3184C296.043 36.3342 296.906 36.3447 297.77 36.3605Z" fill="#59D359"/>
<path d="M295.217 33.3277L295.185 36.3189C282.125 36.103 269.618 35.8976 265.307 35.8239L265.333 32.0586L295.212 33.3225L295.217 33.3277Z" fill="#59D359"/>
<path d="M297.769 33.4316L331.343 34.8535L331.295 36.9073C327.421 36.8494 312.571 36.6018 297.774 36.3596V33.4316H297.769Z" fill="#59D359"/>
<path d="M132.626 197.857L-0.000428815 193.844L40.4271 201.569L136.574 200.016L132.626 197.857Z" fill="#9BE59B"/>
<path d="M125.694 180.378C123.909 193.422 119.388 236.22 119.388 236.22L113.186 238.679C102.253 241.886 95.6889 241.286 84.7451 238.095L81.7025 236.689L75.3593 181.605C75.054 177.044 78.0703 172.926 82.5079 171.842L93.5412 169.14C97.4418 168.187 101.516 168.161 105.427 169.072L120.24 172.516C123.809 173.342 126.189 176.75 125.694 180.378Z" fill="#FFAC66"/>
<path d="M122.647 178.436C122.647 178.436 114.967 188.21 100.485 187.862C90.9101 187.63 83.5458 182.67 79.6557 179.331C78.1923 178.078 78.7082 175.697 80.5506 175.144L91.4681 171.869C94.1686 171.058 97.0164 170.895 99.7905 171.379L120.057 174.944C121.71 175.234 122.847 176.766 122.652 178.431L122.647 178.436Z" fill="#FFCB2E"/>
<path d="M106.153 179.478L110.554 173.996L114.57 168.113L118.308 162.057L121.708 155.801L125.098 149.54L128.057 143.062L130.326 136.316L132.615 129.57L133.705 122.514L132.994 115.441L131.468 108.495L127.536 102.561L120.735 101.971L115.613 106.805L112.286 113.014L110.354 119.818L108.417 126.648L107.001 133.599L105.99 140.624L104.727 147.602L103.5 154.585L101.784 161.483L100.742 168.503L99.3206 175.449L98.2099 182.274L106.153 179.478Z" fill="#59D359"/>
<path d="M98.7429 160.109C98.7429 160.109 102.407 95.6936 96.6478 85.7406C90.889 75.7876 77.629 78.5839 75.3602 88.1841C73.0914 97.7842 94.7317 182.627 94.7317 182.627L98.3165 181.347L98.7429 160.104V160.109Z" fill="#59D359"/>
<path d="M102.753 176.166L110.781 161.5L117.24 157.308L112.355 158.008L118.114 142.121L128.062 134.437L119.861 138.45L124.92 111.74L118.114 136.881L111.307 128.85L115.845 141.067L110.086 156.255L105.722 153.464C105.722 153.464 108.338 159.572 108.512 160.099C108.686 160.62 102.753 176.161 102.753 176.161V176.166Z" fill="white"/>
<path d="M97.3419 171.98C96.8208 171.98 95.2468 156.966 95.2468 156.966L97.5156 151.205L95.0731 153.475L92.6306 132.7L96.8208 126.238L91.9358 129.03L88.7932 96.5586L90.3618 128.329C90.3618 128.329 83.7292 126.059 84.7767 126.76C85.8243 127.46 90.1881 132.173 90.1881 132.173L92.8043 153.822L88.7932 152.775L93.157 157.14L97.3472 171.98H97.3419Z" fill="white"/>
<path d="M284.778 288.107L289.521 293.426L262.485 289.155L284.778 288.107Z" fill="#9BE59B"/>
<path d="M241.996 354.914L197.889 349.506C197.889 349.506 226.346 348.368 228.052 349.222C229.757 350.075 241.996 354.914 241.996 354.914Z" fill="#9BE59B"/>
<path d="M317.12 342.107L284.968 340.68L299.196 337.268L317.12 342.107Z" fill="#9BE59B"/>
<path d="M324.205 275.805L298.022 276.658L304.001 272.672L325.626 275.521" fill="#9BE59B"/>
<path d="M163.973 221.587C165.647 221.824 179.281 234.025 179.281 234.025L242.654 235.7L180.313 238.112L161.104 223.978L149.624 220.865L163.973 221.581V221.587Z" fill="black"/>
<path d="M306.455 244.826L289.52 366.837L283.772 365.705L289.468 234.731C262.563 231.192 223.478 226.648 196.321 223.514L183.066 358.016L176.855 356.579L183.261 217.485C183.166 217.485 183.424 209.591 183.424 209.591L306.549 221.292L457 156.371L439.797 289.035L436.012 290.378L443.55 176.172L307.639 236.3L306.455 244.826Z" fill="black"/>
<path d="M140.339 219.111L140.418 218.6C140.681 216.873 141.154 213.761 143.307 213.303C143.418 213.735 143.523 214.166 143.634 214.598C143.697 214.588 143.76 214.577 143.829 214.577C144.229 214.567 144.623 214.577 145.018 214.588C145.487 214.603 145.95 214.63 146.408 214.667C146.292 214.219 146.182 213.766 146.066 213.308C146.629 213.345 147.182 213.398 147.724 213.445C148.166 213.487 148.603 213.529 149.04 213.561C149.608 213.603 150.166 213.629 150.724 213.656C151.893 213.708 153.098 213.766 154.283 213.977C156.109 214.309 157.81 214.777 159.394 215.23C161.042 215.704 162.558 216.299 164.021 216.878L164.337 217.005C164.964 217.252 165.622 217.468 166.253 217.674C167.264 218.005 168.311 218.342 169.28 218.832C170.401 219.396 171.386 220.096 172.254 220.717C172.754 221.076 173.233 221.413 173.697 221.702C174.265 222.06 174.823 222.387 175.36 222.698C176.086 223.124 176.776 223.53 177.413 223.956C177.613 224.709 177.792 225.394 177.945 226.005C178.192 226.974 178.381 227.748 178.503 228.316C178.145 227.927 177.755 227.516 176.544 226.6C175.849 226.073 174.955 225.546 174.007 224.994C173.454 224.667 172.875 224.33 172.286 223.961C171.754 223.63 171.222 223.25 170.707 222.887C169.875 222.297 169.017 221.681 168.075 221.207C167.29 220.812 166.385 220.517 165.427 220.201C164.753 219.98 164.058 219.754 163.358 219.48L163.037 219.354C161.631 218.801 160.184 218.227 158.657 217.789C157.136 217.352 155.509 216.905 153.804 216.594C152.793 216.41 151.725 216.362 150.598 216.31C150.014 216.283 149.424 216.257 148.829 216.21C148.377 216.173 147.924 216.131 147.466 216.089C147.229 216.067 146.987 216.046 146.745 216.02C146.282 215.978 145.818 215.946 145.35 215.92C144.887 215.894 144.423 215.883 143.96 215.894C143.95 215.894 143.939 215.894 143.929 215.894C143.808 216.025 143.402 216.626 143.044 218.99L142.965 219.517C142.765 220.796 142.539 222.245 142.592 223.914C142.639 225.41 142.786 227.111 143.034 228.975C143.102 229.491 143.16 230.023 143.218 230.565C143.339 231.703 143.471 232.877 143.713 234.062C143.934 235.115 144.244 236.2 144.581 237.348C144.739 237.901 144.902 238.459 145.06 239.028C145.234 239.66 145.387 240.307 145.539 240.971C145.776 241.977 146.018 243.019 146.35 244.025C146.65 244.931 147.045 245.837 147.455 246.801C147.74 247.459 148.029 248.128 148.292 248.812C148.703 249.871 149.187 250.924 149.698 252.04C149.924 252.535 150.151 253.03 150.377 253.536C150.819 254.526 151.319 255.5 151.856 256.532C152.13 257.064 152.409 257.601 152.683 258.149C153.377 259.545 154.141 260.924 154.951 262.388L155.12 262.694C155.53 263.436 155.857 264.21 156.173 264.963C156.536 265.827 156.878 266.643 157.331 267.386C158.189 268.797 159.41 270.019 160.589 271.146C161.91 272.415 163.205 273.426 164.537 274.242C165.564 274.869 166.748 275.332 168.011 275.822C168.406 275.975 168.801 276.128 169.196 276.291C170.743 276.918 172.386 277.381 174.076 277.844C175.513 278.234 177.118 278.582 179.124 278.94L179.734 279.05C181.203 279.314 182.724 279.588 184.261 279.751C185.077 279.84 185.883 279.998 186.657 280.156C187.62 280.351 188.536 280.535 189.452 280.583C190.357 280.63 191.289 280.583 192.278 280.52C193.021 280.477 193.789 280.435 194.568 280.435C194.616 280.435 194.668 280.435 194.721 280.435C195.674 280.446 196.632 280.372 197.648 280.304C198.401 280.251 199.185 280.193 199.969 280.172C200.859 280.146 201.738 280.214 202.585 280.283C203.517 280.356 204.391 280.43 205.249 280.372L206.291 280.309C207.681 280.225 209.118 280.14 210.518 280.019C211.424 279.94 212.324 279.788 213.277 279.63C214.082 279.498 214.914 279.356 215.751 279.261C216.646 279.161 217.535 278.992 218.472 278.813C219.278 278.661 220.115 278.497 220.962 278.387C221.857 278.271 222.747 278.224 223.61 278.187C224.531 278.145 225.4 278.102 226.242 277.976C228.2 277.681 229.837 277.428 231.469 277.155C232.453 276.991 233.448 276.786 234.406 276.591C235.164 276.438 235.912 276.28 236.659 276.143C237.554 275.98 238.444 275.875 239.302 275.775C240.213 275.67 241.071 275.564 241.908 275.401C242.802 275.227 243.708 274.98 244.582 274.743C245.387 274.521 246.219 274.3 247.05 274.121C247.951 273.932 248.84 273.795 249.704 273.663C250.604 273.521 251.451 273.389 252.272 273.21C253.03 273.042 253.783 272.884 254.515 272.726C255.526 272.51 256.505 272.304 257.452 272.089C258.4 271.873 259.321 271.599 260.21 271.335C261.026 271.098 261.795 270.872 262.569 270.688C263.622 270.435 264.595 270.256 265.543 270.082C266.343 269.935 267.101 269.798 267.775 269.635C270.159 269.061 271.933 268.692 273.002 268.481C274.85 268.118 276.645 267.549 277.998 267.096C279.203 266.691 280.356 266.08 281.472 265.485C281.867 265.274 282.251 265.069 282.64 264.874C284.151 264.11 285.609 263.21 286.973 262.204C288.489 261.082 289.72 259.992 290.747 258.855C291.826 257.659 292.574 256.237 293.295 254.868L293.395 254.679C293.621 254.247 293.869 253.82 294.111 253.394C294.742 252.298 295.342 251.261 295.511 250.234C295.748 248.791 295.669 247.106 295.274 245.363C294.969 243.994 294.279 242.514 293.232 240.966C292.4 239.739 291.363 238.327 289.978 237.206C289.147 236.526 288.031 235.984 286.852 235.41C286.42 235.199 285.978 234.983 285.536 234.757C284.135 234.035 282.493 233.451 280.793 232.872C280.303 232.703 279.803 232.519 279.298 232.329C278.203 231.919 277.076 231.497 275.881 231.229C275.497 231.144 275.108 231.055 274.718 230.96C273.444 230.66 272.128 230.354 270.765 230.17C269.88 230.049 268.928 230.044 267.917 230.038C267.143 230.038 266.343 230.028 265.511 229.97C265.127 229.944 264.68 229.886 264.164 229.812C263.143 229.675 261.869 229.507 260.326 229.486L259.11 229.464C257.879 229.443 256.526 229.422 255.062 229.417C254.273 229.417 253.441 229.438 252.562 229.464C251.672 229.491 250.746 229.517 249.793 229.517C248.972 229.528 248.093 229.48 247.256 229.449C246.361 229.412 245.434 229.375 244.518 229.375C243.703 229.375 242.871 229.422 241.992 229.47C241.102 229.517 240.181 229.57 239.244 229.57C238.354 229.57 237.465 229.533 236.601 229.496C235.733 229.459 234.833 229.417 233.964 229.422C233.169 229.422 232.353 229.522 231.495 229.628C230.59 229.733 229.653 229.844 228.695 229.854C227.826 229.859 226.958 229.854 226.084 229.854C225.194 229.854 224.305 229.844 223.415 229.854C222.457 229.865 221.499 229.875 220.541 229.886L218.141 229.912C217.246 229.923 216.351 229.912 215.466 229.907C214.593 229.896 213.729 229.891 212.866 229.902C211.966 229.912 211.071 229.902 210.181 229.891C209.308 229.881 208.444 229.875 207.591 229.881C206.67 229.891 205.765 229.917 204.87 229.944C204.007 229.97 203.154 229.991 202.322 230.002C201.364 230.012 200.432 230.002 199.532 229.981C198.685 229.965 197.853 229.949 197.048 229.96C196.137 229.97 195.226 230.075 194.347 230.17C193.463 230.27 192.626 230.365 191.778 230.376L186.504 230.444C184.167 230.476 182.44 230.397 181.614 230.36C181.545 230.36 181.493 230.36 181.435 230.349C181.424 229.902 181.387 229.459 181.324 229.012C181.282 228.701 181.235 228.385 181.171 228.074C181.114 227.795 181.035 227.448 180.94 227.037C181.119 227.221 181.335 227.427 181.656 227.695C181.682 227.695 181.708 227.695 181.735 227.695C182.54 227.732 184.214 227.811 186.472 227.779L191.747 227.711C192.463 227.7 193.231 227.616 194.052 227.521C194.995 227.416 195.974 227.305 197.021 227.295C197.853 227.284 198.711 227.295 199.585 227.316C200.469 227.332 201.38 227.348 202.296 227.337C203.117 227.326 203.954 227.305 204.802 227.279C205.712 227.253 206.633 227.226 207.57 227.216C208.444 227.205 209.329 227.216 210.218 227.226C211.087 227.237 211.961 227.242 212.845 227.237C213.724 227.226 214.608 227.237 215.498 227.242C216.367 227.253 217.24 227.258 218.119 227.247L220.515 227.221C221.473 227.211 222.436 227.2 223.394 227.19C224.299 227.184 225.2 227.19 226.105 227.19C226.963 227.19 227.821 227.2 228.679 227.19C229.495 227.184 230.316 227.084 231.19 226.984C232.085 226.879 233.011 226.768 233.954 226.763C234.891 226.763 235.828 226.8 236.728 226.842C237.596 226.879 238.417 226.916 239.233 226.916C240.107 226.916 240.997 226.863 241.855 226.816C242.729 226.768 243.629 226.721 244.513 226.716C245.498 226.71 246.445 226.752 247.366 226.789C248.209 226.826 249.003 226.858 249.782 226.858H249.793C250.709 226.858 251.614 226.831 252.483 226.805C253.383 226.779 254.236 226.758 255.073 226.758C256.547 226.763 257.915 226.789 259.152 226.805L260.363 226.826C262.058 226.852 263.479 227.042 264.516 227.179C264.99 227.242 265.396 227.295 265.696 227.316C266.438 227.369 267.196 227.374 267.933 227.379C268.986 227.384 270.07 227.39 271.123 227.537C272.612 227.742 273.992 228.064 275.323 228.374C275.708 228.464 276.087 228.553 276.466 228.638C277.84 228.943 279.056 229.401 280.235 229.844C280.714 230.023 281.188 230.202 281.656 230.36C283.456 230.976 285.199 231.592 286.762 232.398C287.189 232.619 287.61 232.824 288.025 233.024C289.347 233.672 290.594 234.278 291.663 235.152C293.311 236.495 294.495 238.096 295.437 239.486C296.674 241.313 297.495 243.099 297.874 244.794C298.348 246.901 298.438 248.881 298.143 250.682C297.895 252.183 297.148 253.483 296.422 254.737C296.195 255.132 295.964 255.527 295.753 255.927L295.653 256.116C294.853 257.638 294.032 259.208 292.726 260.651C291.584 261.92 290.221 263.131 288.557 264.358C287.078 265.453 285.488 266.427 283.846 267.26C283.472 267.449 283.098 267.649 282.725 267.849C281.514 268.492 280.261 269.155 278.845 269.635C277.413 270.114 275.513 270.714 273.518 271.104C272.47 271.309 270.733 271.673 268.401 272.231C267.654 272.41 266.864 272.557 266.027 272.71C265.117 272.878 264.174 273.052 263.19 273.284C262.485 273.452 261.748 273.668 260.963 273.9C260.037 274.174 259.079 274.453 258.052 274.69C257.089 274.911 256.094 275.122 255.073 275.338C254.346 275.49 253.604 275.648 252.851 275.817C251.951 276.017 251.02 276.159 250.119 276.301C249.293 276.428 248.44 276.565 247.603 276.739C246.85 276.897 246.087 277.102 245.287 277.323C244.366 277.571 243.418 277.829 242.429 278.023C241.497 278.208 240.544 278.318 239.623 278.429C238.807 278.524 237.96 278.624 237.149 278.771C236.417 278.903 235.685 279.056 234.949 279.208C233.964 279.408 232.943 279.619 231.916 279.793C230.269 280.067 228.616 280.325 226.647 280.62C225.668 280.767 224.689 280.815 223.747 280.857C222.904 280.899 222.11 280.936 221.32 281.036C221.162 281.057 221.004 281.088 220.846 281.109L220.241 299.788C220.178 301.168 221.062 302.416 222.389 302.811C231.406 305.486 264.443 315.376 265.764 317.03C267.296 318.947 264.995 327.767 257.331 326.235C249.667 324.702 207.886 313.58 207.886 313.58C207.886 313.58 186.862 323.096 176.107 327.815L176.492 314.549C180.456 312.68 195.49 305.755 197.674 304.681C198.537 304.254 198.527 303.017 197.648 302.611C195.958 301.832 185.314 299.309 178.913 297.419C176.939 296.834 176.355 294.317 177.871 292.927L178.15 292.669C179.008 291.879 180.14 291.463 181.303 291.505C186.251 291.679 196.732 292.532 200.217 293.643C208.092 296.149 206.823 284.511 206.623 282.968C206.565 282.968 206.507 282.974 206.454 282.979L205.417 283.042C204.375 283.105 203.359 283.026 202.38 282.947C201.564 282.884 200.801 282.821 200.048 282.842C199.316 282.863 198.564 282.916 197.837 282.968C196.816 283.042 195.758 283.116 194.7 283.111C193.952 283.095 193.179 283.147 192.431 283.19C191.699 283.232 190.952 283.274 190.194 283.274C189.899 283.274 189.61 283.269 189.315 283.253C188.204 283.195 187.151 282.984 186.135 282.779C185.383 282.626 184.677 282.484 183.982 282.41C182.351 282.236 180.782 281.952 179.266 281.683L178.66 281.573C176.571 281.204 174.891 280.836 173.381 280.425C171.68 279.961 169.88 279.451 168.196 278.771C167.811 278.613 167.427 278.466 167.048 278.318C165.737 277.808 164.379 277.281 163.153 276.533C161.653 275.617 160.21 274.49 158.747 273.084C157.441 271.836 156.083 270.472 155.057 268.781C154.504 267.87 154.104 266.922 153.72 266.006C153.42 265.29 153.135 264.611 152.793 263.994L152.625 263.689C151.804 262.204 151.024 260.798 150.303 259.35C150.035 258.813 149.766 258.291 149.493 257.765C148.966 256.743 148.419 255.69 147.945 254.626C147.724 254.131 147.503 253.641 147.282 253.157C146.776 252.056 146.261 250.919 145.818 249.786C145.566 249.133 145.287 248.491 145.013 247.864C144.597 246.895 144.16 245.89 143.823 244.878C143.45 243.757 143.192 242.651 142.944 241.587C142.797 240.96 142.655 240.344 142.492 239.744C142.339 239.186 142.181 238.643 142.023 238.101C141.676 236.9 141.344 235.768 141.107 234.615C140.833 233.303 140.702 232.066 140.57 230.865C140.512 230.344 140.46 229.833 140.391 229.338C140.133 227.384 139.981 225.594 139.928 224.009C139.87 222.092 140.128 220.444 140.333 219.117L140.339 219.111Z" fill="black"/>
<path d="M171.081 316.64C172.533 316.156 174.402 315.419 176.481 314.539L176.097 327.804C168.317 330.843 161.948 332.739 161.116 331.206C158.815 326.988 163.032 319.321 171.081 316.635V316.64Z" fill="black"/>
<path d="M348.277 183.522C348.13 183.079 348.114 182.605 348.23 182.153C348.767 180.025 350.298 173.679 349.625 173.274C348.819 172.789 347.687 173.558 346.556 174.043C345.756 174.385 342.945 175.839 341.36 176.66C340.665 177.023 339.844 177.029 339.139 176.686C338.581 176.413 338.144 175.944 337.928 175.365C337.486 174.185 336.48 172.273 334.77 172.874C332.574 173.643 329.058 177.919 328.416 178.719C328.342 178.809 328.268 178.888 328.19 178.967C327.384 179.725 324.052 185.454 322.731 186.26C322.073 186.66 321.309 188.256 320.667 188.456C319.857 188.709 317.851 185.67 317.209 185.112L312.103 181.768C311.95 181.637 310.487 181.41 310.308 181.321C308.923 180.631 303.386 178.04 294.974 180.736C285.409 183.806 279.355 187.887 276.771 194.949C274.607 200.863 276.013 207.235 276.523 209.152C276.623 209.521 276.802 209.858 277.06 210.147C278.081 211.295 280.961 214.071 281.519 214.334C282.114 214.613 285.33 216.351 285.583 217.241C285.62 217.367 285.798 217.394 285.899 217.483C286.367 217.91 288.067 219.321 289.889 219.221C290.926 219.163 293.031 219.089 294.274 218.847C295.574 218.594 296.216 217.341 296.032 216.03C295.9 215.108 295.421 214.065 295.584 213.849C295.795 213.57 296.806 213.628 297.627 213.723C298.295 213.802 298.895 214.144 299.301 214.681C300.332 216.051 303.228 220.3 306.549 221.29C310.034 222.328 320.873 223.355 326.684 222.549C332.495 221.743 331.874 220.353 333.085 220.069C334.296 219.784 337.107 219.811 338.049 216.719C338.991 213.628 339.702 211.348 339.702 211.348C339.702 211.348 341.355 205.129 342.044 204.486C342.592 203.97 346.871 201.769 348.593 200.895C349.072 200.652 349.24 200.073 349.693 199.773C353.209 197.445 351.446 195.908 351.33 194.312C351.193 192.49 349.003 185.702 348.288 183.527L348.277 183.522Z" fill="#FFE9A7"/>
<path d="M350.546 195.882C350.546 195.882 348.061 194.882 347.819 195.73C347.577 196.577 349.888 198.547 349.888 198.547L351.31 197.699L351.21 196.757L350.541 195.877L350.546 195.882Z" fill="black"/>
<path d="M345.766 193.645C345.766 193.645 344.449 192.66 342.607 192.265C340.764 191.87 338.401 192.792 338.401 192.792C338.401 192.792 340.633 191.106 341.954 191.212C345.176 191.475 345.766 193.645 345.766 193.645Z" fill="black"/>
<path d="M350.472 191.264C350.472 191.264 349.293 191.337 349.072 192.001C348.851 192.664 348.556 193.033 348.556 193.033C348.556 193.033 348.777 191.406 349.146 191.037C349.514 190.668 350.546 190.447 350.546 190.447L350.472 191.258V191.264Z" fill="black"/>
<path d="M339.67 214.597C340.034 211.448 336.628 210.616 334.206 210.679C331.785 210.737 327.632 213.581 327.632 213.581C327.632 213.581 329.421 214.897 329.485 214.718C329.548 214.539 332.843 212.47 336.328 212.68C339.523 212.875 338.628 215.082 337.844 216.593C337.054 218.11 336.207 219.2 334.817 219.5C333.422 219.805 331.969 219.742 331.969 219.742L331.469 221.238C331.469 221.238 334.601 220.964 335.417 220.743C338.47 219.921 339.391 217.077 339.676 214.597H339.67Z" fill="black"/>
<path d="M324.273 213.745C324.273 213.745 322.394 214.835 321.972 216.715C321.551 218.595 321.309 221.987 321.309 221.987C321.309 221.987 318.25 219.533 318.071 217.658C317.892 215.778 318.429 211.797 318.429 211.797L324.278 213.751L324.273 213.745Z" fill="#FFCB2E"/>
<path d="M317.108 211.312C316.561 211.618 315.74 212.908 315.313 214.304C314.887 215.699 314.355 220.765 314.355 220.765L312.102 217.99L311.796 214.962L312.16 212.597L312.191 211.512L313.039 211.086L317.103 211.312H317.108Z" fill="#FFCB2E"/>
<path d="M316.524 186.798C316.524 186.798 313.255 186.919 310.771 191.221C308.286 195.524 307.018 201.153 307.018 201.153L306.775 205.335L307.202 207.394L306.654 208.605C306.654 208.605 302.354 210.906 302.233 212.302C302.112 213.697 301.99 215.693 301.99 215.693L301.627 207.394L301.859 200.795L303.591 195.892L305.923 190.747L308.66 187.24L310.781 185.481L313.698 183.148L317.914 186.155L316.519 186.803L316.524 186.798Z" fill="#FFCB2E"/>
<path d="M310.887 182.174L306.476 185.165L302.223 193.433C302.223 193.433 300.917 195.366 300.012 198.878C299.101 202.391 298.696 204.023 298.696 204.023L297.454 208.426L297.938 210.969L297.332 210.242L296.422 204.85L296.796 199.636L297.948 192.611L300.786 187.287L302.786 184.259L306.492 180.562L310.893 182.179L310.887 182.174Z" fill="#FFCB2E"/>
<path d="M303.539 180.094C303.539 180.094 299.317 184.054 297.622 187.988C295.927 191.927 294.453 198.394 294.453 198.394L294.217 202.881L293.101 208.115C293.101 208.115 291.342 199.573 291.585 196.545C291.827 193.517 290.916 191.853 291.585 188.825C292.253 185.797 295.159 182.98 295.159 182.98L296.491 180.779L298.507 179.836L303.539 180.089V180.094Z" fill="#FFCB2E"/>
<path d="M341.418 204.418C340.813 204.54 338.502 205.451 335.475 204.966C332.448 204.482 327.363 201.575 327.363 201.575L324.699 199.273C324.699 199.273 327.921 205.203 328.89 205.93C329.858 206.657 332.222 207.905 333.554 207.905C334.885 207.905 337.559 209.042 337.559 209.042L339.77 209.4L341.418 204.418Z" fill="#FFCB2E"/>
<path d="M285.467 199.395C285.467 199.395 282.924 197.579 280.503 199.759C278.081 201.939 276.507 208.237 276.507 208.237L275.176 203.635C275.176 203.635 276.75 197.7 277.96 196.852C279.171 196.004 280.745 195.762 280.745 195.762L285.467 199.395Z" fill="#FFCB2E"/>
<path d="M280.345 213.203C280.345 213.203 280.751 209.448 282.082 207.51C283.414 205.572 289.468 204.361 289.468 204.361C289.468 204.361 286.925 202.302 284.867 203.028C282.809 203.755 280.872 205.572 280.872 205.572C280.872 205.572 278.692 208.115 278.45 209.327C278.208 210.538 277.845 211.022 278.45 211.386C279.056 211.749 280.345 213.203 280.345 213.203Z" fill="#FFCB2E"/>
<path d="M318.888 189.463C318.524 189.584 316.466 195.034 316.345 198.426C316.224 201.817 318.646 208.842 318.646 208.842L314.65 205.451C314.65 205.451 314.044 200.243 314.044 196.851C314.044 193.46 318.888 189.463 318.888 189.463Z" fill="#FFCB2E"/>
<path d="M347.824 188.009C347.824 188.009 346.492 184.376 346.008 182.801C345.929 182.543 345.792 182.264 345.618 181.974C344.729 180.468 342.797 178.988 342.797 178.988L347.219 188.862L347.824 188.014V188.009Z" fill="#FFCB2E"/>
<path d="M344.677 188.495C344.677 188.495 343.224 183.165 342.861 181.954C342.497 180.743 340.286 177.715 340.286 177.715L342.013 182.681L344.677 188.495Z" fill="#FFCB2E"/>
<path d="M332.99 173.122C333.659 171.242 335.643 171.311 337.033 172.522C337.607 173.022 338.528 175.155 338.97 176.514C339.081 176.551 339.402 176.656 339.876 176.83C340.681 176.466 345.203 173.417 345.203 173.417C349.867 171.479 350.214 172.791 350.214 172.791C351.062 172.669 351.198 175.302 351.198 175.302L349.556 182.401C350.577 184.181 351.662 186.119 352.12 188.057C352.588 190.042 352.83 192.138 352.83 192.138C352.83 192.138 354.746 196.341 354.625 197.067C354.504 197.794 352.667 200.664 349.398 202.892C343.492 206.915 341.771 204.293 341.771 204.293C341.771 204.293 347.582 201.928 348.914 200.111C350.246 198.294 351.825 198.3 351.825 196.362C351.825 195.74 350.751 194.213 350.498 192.618C349.956 189.221 348.972 184.466 347.161 182.612C344.64 180.031 339.523 176.861 338.975 176.524C339.602 178.457 340.018 180.49 340.018 180.49L338.017 175.824C338.017 175.824 336.807 173.459 335.291 173.222C333.775 172.98 333.354 176.308 333.29 178.009C333.227 179.705 333.411 183.402 333.711 184.065C334.011 184.729 333.59 186.066 333.59 186.066C333.59 186.066 331.558 183.581 331.501 182.117C331.322 177.304 332.316 174.992 332.98 173.117L332.99 173.122ZM347.614 181.469C347.714 181.59 347.814 181.722 347.914 181.854C348.545 179.705 350.13 173.765 349.577 174.018C348.909 174.323 346.429 179.773 346.429 179.773C346.429 179.773 348.503 174.065 349.482 173.122L342.071 177.741C343.976 178.604 346.282 179.889 347.608 181.469H347.614Z" fill="black"/>
<path d="M335.654 174.565C336.985 174.808 338.196 179.352 338.196 179.352C338.196 179.352 337.286 179.289 336.196 180.079C335.106 180.869 334.743 183.592 334.743 183.592C334.743 183.592 334.501 180.685 334.38 179.473C334.258 178.262 334.316 174.323 335.648 174.565H335.654Z" fill="black"/>
<path d="M348.994 175.614C349.278 175.656 347.862 180.659 347.862 180.659L347.135 179.853C347.093 179.732 348.709 175.571 348.994 175.614Z" fill="black"/>
<path d="M339.712 212.597C339.712 212.597 340.26 211.443 341.044 209.811C341.834 208.173 342.497 204.165 342.497 204.165C342.497 204.165 341.27 203.976 341.06 204.645C340.934 205.04 340.439 206.909 339.717 208.815C339.001 210.722 337.706 212.412 337.706 212.412L339.123 213.587L339.712 212.602V212.597Z" fill="black"/>
<path d="M292.668 183.611C292.668 183.611 288.515 184.633 286.535 186.039C284.556 187.445 280.592 191.663 280.592 191.663C280.592 191.663 284.809 188.019 286.088 187.319C287.367 186.618 292.668 183.611 292.668 183.611Z" fill="black"/>
<path d="M340.539 193.417C340.539 194.333 341.239 195.075 342.097 195.075C342.955 195.075 343.655 194.333 343.655 193.417C343.655 192.5 342.955 191.758 342.097 191.758C341.239 191.758 340.539 192.5 340.539 193.417Z" fill="black"/>
<path d="M353.746 197.426L353.346 198.142H358.458L353.746 197.426Z" fill="black"/>
<path d="M352.894 198.904L352.494 199.531L356.753 200.516L352.894 198.904Z" fill="black"/>
<path d="M351.998 200.338L351.461 200.922L354.193 202.897L351.998 200.338Z" fill="black"/>
<path d="M343.203 197.072L337.486 197.967L343.34 197.657L343.203 197.072Z" fill="black"/>
<path d="M343.229 198.416L337.864 200.459L343.455 198.969L343.229 198.416Z" fill="black"/>
<path d="M343.629 199.873L338.786 202.611L344.113 200.542L343.629 199.873Z" fill="black"/>
<path d="M346.671 198.442L346.809 198.094L346.492 198.025L346.671 198.442Z" fill="black"/>
<path d="M345.256 197.962L345.487 197.525L344.913 197.309L345.256 197.962Z" fill="black"/>
<path d="M348.414 199.126L348.604 198.499L348.156 198.441L348.414 199.126Z" fill="black"/>
<path d="M346.303 200.321L346.43 199.631H345.998L346.303 200.321Z" fill="black"/>
<path d="M351.146 196.067L351.193 195.588L350.809 195.551L351.146 196.067Z" fill="black"/>
<path d="M347.177 197.209L347.393 196.761L346.945 196.604L347.177 197.209Z" fill="black"/>
<path d="M282.077 193.218C282.077 193.218 286.767 192.58 287.767 193.581C290.189 196.003 290.068 196.851 290.673 198.426C291.278 200 291.278 207.389 291.278 207.389C291.278 207.389 290.068 198.668 287.767 196.003C285.467 193.339 282.077 193.218 282.077 193.218Z" fill="black"/>
<path d="M280.092 187.24C284.514 181.484 294.484 179.335 302.775 179.514C307.076 179.609 310.292 180.615 312.103 181.768C312.229 181.837 315.793 183.385 316.461 184.186C316.909 184.717 318.793 185.191 319.267 185.671C319.504 185.75 320.767 185.534 321.036 185.465C322.431 185.102 324.273 181.194 324.273 181.194C324.273 181.194 327 176.924 328.395 175.891C329.79 174.859 334.138 172.621 334.138 172.621L334.201 172.8L330.022 178.251C330.022 178.251 327.005 180.926 325.852 182.922C324.705 184.923 321.904 190.252 321.904 190.252C321.904 190.252 318.309 188.33 318.272 188.219C318.004 187.424 315.072 185.834 314.64 185.302C314.272 184.849 311.045 183.796 310.155 182.927C307.197 181.895 303.544 180.547 297.464 181.853C292.984 182.816 287.146 183.917 283.03 187.429C278.913 190.942 276.802 196.424 275.65 199.51C274.497 202.601 276.071 206.235 276.86 208.836C277.508 210.985 282.988 214.95 284.877 216.272C284.767 215.229 284.956 214.071 285.52 213.623C286.43 212.896 291.089 213.565 291.089 213.565C291.089 213.565 286.572 213.634 286.151 214.482C285.725 215.329 286.472 216.893 287.257 217.92C288.046 218.947 290.605 218.652 291.152 218.41C291.7 218.168 293.152 218.895 294.484 218.594C295.816 218.289 296.363 216.778 295.937 215.324C295.511 213.871 292.305 210.237 289.399 210.116C286.493 209.995 283.888 211.633 283.888 211.633C283.888 211.633 286.372 209.331 288.731 209.268C291.094 209.205 294.205 210.727 295.6 212.122C295.942 212.465 296.295 212.933 296.616 213.481L297.332 213.37C297.695 213.312 298.069 213.402 298.369 213.618L299.169 213.976C299.169 213.976 299.29 211.87 299.169 210.658C299.048 209.447 300.412 207.214 300.412 207.214C300.412 207.214 300.348 213.634 300.775 215.208C300.806 215.324 300.838 215.424 300.869 215.53H300.88C300.88 215.53 302.143 218.268 303.175 218.921L307.792 221.117C309.476 221.522 312.356 221.38 314.698 221.744C321.657 222.834 329.437 221.728 329.437 221.728C329.437 221.728 331.89 216.467 327.232 214.719C323.347 213.26 316.63 211.438 312.814 211.738C308.997 212.038 307.371 212.112 307.371 212.112C307.371 212.112 309.202 211.085 312.229 210.843C315.256 210.6 320.346 210.427 321.862 211.09C323.378 211.759 329.637 212.538 331.696 215.993C333.754 219.448 331.743 221.986 329.743 222.834C327.742 223.681 318.736 223.239 312.945 223.271C304.66 223.313 301.233 220.68 300.943 219.832C299.785 219.01 299.322 216.688 299.196 216.288L298.532 214.697C298.332 214.513 298.09 214.381 297.827 214.308L296.932 214.066C297.748 215.677 299.438 218.505 298.611 219.658C297.764 220.838 292.647 221.306 290.105 221.243C287.562 221.18 285.472 219.637 284.746 218.668C284.504 218.347 284.993 217.078 284.909 216.535C283.672 216.082 279.908 215.972 276.008 211.332C270.859 205.213 275.665 193.001 280.082 187.245L280.092 187.24Z" fill="black"/>
<path d="M376.997 198.783C376.997 200.453 367.564 264.289 367.564 264.289L364.148 264.536L361.858 204.139L376.997 198.788V198.783Z" fill="black"/>
<path d="M286.262 166.249L290.184 163.379C290.184 163.379 292.505 161.915 292.674 161.889L309.318 152.162L366.712 154.669L367.812 152.004L388.426 90.6382L390.447 87.5996L395.127 88.6107L372.865 154.532C372.865 154.532 368.817 163.237 366.896 167.413C366.175 169.388 365.691 170.583 365.533 170.731C365.069 171.152 364.364 171.147 363.638 170.962C364.054 171.773 364.401 172.732 363.917 173.011C363.032 173.516 297.39 170.862 293.342 170.61C289.294 170.357 286.767 167.824 286.262 166.686C286.262 166.686 286.188 166.281 286.262 166.26V166.249ZM291.71 164.453C291.036 164.975 288.541 166.481 288.541 166.481C299.848 166.391 349.92 169.019 360.811 169.604C360.685 169.52 360.606 169.462 360.606 169.462L366.08 156.207L309.892 153.774L292.679 163.843L291.721 164.459L291.71 164.453Z" fill="black"/>
<path d="M404.375 139.351L406.734 131.736L410.076 126.112L410.124 118.75C410.124 118.75 410.334 110.519 410.434 109.977C410.534 109.434 417.204 108.618 417.746 108.713C418.288 108.813 420.009 109.597 420.009 109.845C420.009 110.092 420.436 118.123 420.536 119.155C420.636 120.188 420.767 125.454 420.767 125.454L422.273 128.634L425.094 133.358L427.932 138.64C427.932 138.64 427.637 149.541 427.637 149.836C427.637 150.131 428.605 165.492 428.605 165.492C428.605 165.492 426.721 167.261 424.968 168.246C423.215 169.231 413.314 169.473 409.434 169.031C405.549 168.589 403.475 166.524 403.475 166.524V156.408L404.386 139.346L404.375 139.351ZM415.424 167.562C421.241 167.562 425.921 165.034 425.921 165.034L425.289 138.972L418.588 126.444C418.588 126.444 418.335 112.778 418.083 111.641C417.83 110.503 413.15 111.641 412.519 111.767C411.887 111.893 412.266 126.065 412.266 126.065C412.266 126.065 408.092 134.543 406.955 138.719C405.818 142.895 405.565 165.924 405.565 165.924C405.565 165.924 409.613 167.567 415.43 167.567L415.424 167.562Z" fill="black"/>
<path d="M412.261 126.064C412.261 126.064 411.882 111.892 412.514 111.766C413.146 111.64 417.825 110.502 418.078 111.64C418.331 112.777 418.583 126.443 418.583 126.443L425.284 138.971L425.916 165.033C425.916 165.033 421.236 167.561 415.42 167.561C409.603 167.561 405.555 165.918 405.555 165.918C405.555 165.918 405.808 142.889 406.945 138.713C408.082 134.537 412.256 126.058 412.256 126.058L412.261 126.064Z" fill="#59D359"/>
<path d="M420.989 133.625L424.021 139.318L424.405 161.899L421.557 141.213L420.989 133.625Z" fill="white"/>
<path d="M417.814 112.592C417.814 112.592 418.078 112.123 416.998 112.055C415.919 111.987 412.424 112.503 412.592 112.913C412.766 113.324 415.356 113.35 416.388 113.108C417.42 112.866 417.809 112.592 417.809 112.592H417.814Z" fill="white"/>
<path d="M257.205 161.658L257.379 163.143L268.317 159.52L257.205 161.658Z" fill="black"/>
<path d="M257.53 163.769L257.667 164.954L264.29 162.205L257.53 163.769Z" fill="black"/>
<path d="M257.746 165.534C257.778 165.697 257.92 166.656 257.92 166.656L260.91 164.707L257.746 165.534Z" fill="black"/>
<path d="M386.468 135.18C387.942 134.933 395.464 134.69 398.123 135.18C400.776 135.67 402.618 136.807 402.618 136.807L400.865 151.105L399.06 162.969C399.06 162.969 395.812 164.744 392.269 164.697C388.726 164.649 384.431 162.011 384.431 162.011L384.205 158.567L383.92 154.328L383.81 147.087L383.32 136.465C383.32 136.465 384.994 135.433 386.468 135.185V135.18ZM385.736 137.76L386.179 160.979C386.179 160.979 388.469 162.669 391.806 163.064C395.538 163.507 397.117 161.99 397.117 161.99L400.407 138.329L400.334 138.345C400.36 138.087 400.16 137.818 399.46 137.634C397.565 137.129 385.726 136.318 385.736 137.76Z" fill="black"/>
<path d="M388.452 140.862C390.284 141.936 399.58 139.219 399.58 139.219C399.58 139.219 400.28 138.793 400.328 138.35L400.401 138.334L397.111 161.995C397.111 161.995 395.532 163.512 391.8 163.069C388.463 162.674 386.173 160.984 386.173 160.984L385.731 137.766C385.736 138.566 386.615 139.788 388.452 140.867V140.862ZM398.569 142.284L396.674 144.943L396.106 158.988L398.575 142.289L398.569 142.284Z" fill="#59D359"/>
<path d="M398.569 142.283L396.106 158.987L396.674 144.943L398.569 142.283Z" fill="white"/>
<path d="M385.736 137.76C385.725 136.317 397.559 137.128 399.459 137.634C400.159 137.818 400.359 138.087 400.333 138.345C400.291 138.787 399.585 139.214 399.585 139.214C399.585 139.214 390.289 141.936 388.457 140.857C386.625 139.782 385.746 138.555 385.736 137.755V137.76Z" fill="white"/>
<path d="M194.568 72.2391C194.568 72.2391 197.548 54.924 198.569 52.2383C199.585 49.5473 202.369 44.8921 204.601 43.9442C206.833 42.9963 209.392 42.754 209.392 42.754C209.392 42.754 207.918 41.6639 204.312 42.754C200.706 43.8441 199.295 44.9289 197.916 49.8106C196.537 54.6923 193.152 71.2122 193.152 71.2122L194.573 72.2391H194.568Z" fill="black"/>
<path d="M188.056 71.7164C188.056 71.7164 189.583 62.8219 190.351 60.0361C191.125 57.2503 193.741 46.1388 195.926 43.2161C198.11 40.2934 201.216 39.2875 203.506 40.167C205.796 41.0464 208.549 42.5367 208.549 42.5367C208.549 42.5367 206.854 40.3618 203.38 39.4403C199.905 38.5239 197.742 38.7504 195.463 41.3729C193.183 43.9955 192.036 47.9292 190.599 52.3897C189.156 56.8501 187.777 66.229 187.777 66.229L186.924 71.016L188.051 71.7111L188.056 71.7164Z" fill="black"/>
<path d="M223.958 77.1629L221.968 78.2056C221.968 78.2056 224.169 85.0674 218.989 87.2054C213.809 89.3435 210.166 88.285 209.156 86.484C208.145 84.6829 208.234 78.727 208.234 78.727L200.08 80.2383L200.402 77.5842L209.045 76.1571C209.045 76.1571 214.372 74.3613 217.862 74.3613C221.352 74.3613 222.868 75.4198 222.868 75.4198L223.958 77.1629ZM219.852 76.7258C218.089 76.4994 210.093 78.7006 210.093 78.7006C209.756 78.9797 209.192 85.9837 212.009 86.4313C214.825 86.8842 219.452 86.4313 220.615 83.161C221.779 79.896 221.616 76.947 219.852 76.7258Z" fill="black"/>
<path d="M221.889 74.8819C221.889 74.8819 224.31 74.1657 226.111 75.4033C227.911 76.6408 228.048 84.6295 226.584 85.509C225.121 86.3884 221.789 85.0455 221.336 84.0344C220.883 83.0181 221.699 82.1281 221.699 82.1281C221.699 82.1281 225.51 84.9455 226.295 83.0286C227.084 81.1117 226.374 77.6782 225.021 77.5676C223.668 77.4571 221.989 77.2833 221.989 77.2833L219.215 74.8819H221.884H221.889Z" fill="black"/>
</svg>
