<svg width="418" height="423" viewBox="0 0 418 423" fill="none" xmlns="http://www.w3.org/2000/svg">
<path d="M175.481 48.8985C160.555 57.1823 148.118 69.2591 138.501 83.3934C131.042 94.3431 115.394 110.777 84.9349 120.697C33.2782 137.516 -4.45172 174.569 11.4646 229.577C26.7029 282.241 92.786 304.444 120.764 340.12C148.752 375.805 202.238 452.873 304.614 385.573C406.991 318.274 359.188 234.515 352.274 225.703C345.351 216.892 319.353 173.889 306.274 133.454C293.194 93.0102 257.356 33.4222 194.172 41.9386C188.213 42.7438 181.727 45.4364 175.472 48.9074L175.481 48.8985Z" fill="#FFCB2E"/>
<path d="M180.228 148.474L183.645 254.669L186.375 255.009L180.567 131.012L180.228 148.474Z" fill="#F18184"/>
<path d="M72.248 282.195L79.885 286.292L87.1562 290.729L94.704 294.674L102.02 299.022L109.514 303.074L117.035 307.073L124.413 311.305L131.693 315.742L139.277 319.606L146.521 324.106L154.069 328.042L161.447 332.3L168.942 336.335L176.248 340.7L183.814 344.619L191.183 348.886L198.642 352.992L205.931 357.402L213.452 361.383L220.857 365.588L228.191 369.926L235.587 374.14L243.099 378.148L250.477 382.406L257.998 386.405L265.412 390.511L273.281 388.399L281.23 386.109L289.081 383.542L297.022 381.234L304.891 378.693L312.76 376.153L320.655 373.71L328.471 371.009L336.366 368.549L344.289 365.301L352.069 361.732L359.545 357.563L367.048 353.43L374.435 349.092L381.528 344.288L388.469 339.278L395.482 334.358L402.467 329.393L409.132 324.017L415.689 318.667L407.49 316.753L399.238 314.91L391.074 312.664L382.857 310.669L374.551 309.014L366.388 306.805L358.135 304.953L349.892 303.074L341.621 301.267L333.467 298.995L325.232 297.063L316.944 295.363L308.691 293.502L300.501 291.382L292.231 289.611L284.094 287.258L275.842 285.398L267.58 283.608L259.372 281.56L251.137 279.619L242.849 277.892L234.686 275.682L226.415 273.893L218.225 271.737L209.973 269.868L201.675 268.213L193.503 266.003L185.233 264.268L177.185 265.439L169.102 266.585L161.064 267.971L153.034 269.465L144.942 270.548L136.868 271.755L128.812 273.034L120.809 274.663L112.735 275.888L104.643 276.944L96.5954 278.312L88.5748 279.842L80.4739 280.943L72.248 282.195Z" fill="#FFAC66"/>
<path d="M265.278 391.638L257.498 387.326L249.995 383.336L242.59 379.06L235.105 375.07L227.682 370.839L220.34 366.5L212.952 362.295L205.396 358.306L198.107 353.895L190.684 349.807L183.315 345.549L175.722 341.613L168.433 337.256L160.957 333.23L153.561 328.963L145.977 325.009L138.777 320.536L131.158 316.645L123.887 312.208L116.527 307.985L109.041 304.005L101.547 299.952L94.2134 295.596L86.6299 291.633L79.3855 287.213L68.9917 281.631L80.3401 279.905L88.4232 278.804L96.417 277.283L104.482 275.915L112.619 274.85L120.639 273.634L128.615 272.005L136.725 270.717L144.808 269.51L152.891 268.436L160.885 266.942L168.942 265.556L177.051 264.41L185.286 263.221L193.789 265.001L201.925 267.202L210.196 268.848L218.475 270.726L226.692 272.882L234.971 274.671L243.108 276.881L251.36 278.599L259.622 280.54L267.848 282.588L276.082 284.369L284.397 286.256L292.498 288.591L300.733 290.353L308.968 292.491L317.185 294.343L325.455 296.034L333.717 297.975L341.88 300.256L350.115 302.054L358.367 303.933L366.665 305.794L374.792 308.003L383.054 309.64L391.315 311.644L399.479 313.899L407.704 315.741L418 318.148L409.783 324.848L403.065 330.269L396.079 335.234L389.058 340.155L382.126 345.164L374.944 350.022L367.557 354.36L360.036 358.502L352.488 362.707L344.708 366.267L336.661 369.568L328.765 372.028L320.985 374.721L313.054 377.172L297.334 382.244L289.367 384.561L281.543 387.129L273.567 389.428L265.269 391.655L265.278 391.638ZM206.448 356.49L213.952 360.453L221.383 364.675L228.735 369.014L236.113 373.227L243.607 377.217L251.012 381.493L258.507 385.474L265.564 389.383L273.022 387.379L280.945 385.098L288.769 382.54L296.745 380.223L312.456 375.15L320.37 372.708L328.15 370.016L336.036 367.564L343.914 364.326L351.623 360.792L359.063 356.642L366.566 352.509L373.9 348.197L380.966 343.411L387.88 338.41L394.902 333.49L401.852 328.543L408.49 323.184L413.379 319.203L407.267 317.772L398.97 315.92L390.807 313.666L382.617 311.68L374.293 310.025L366.147 307.815L357.912 305.973L349.66 304.094L341.345 302.278L333.19 299.997L325 298.074L316.739 296.383L308.468 294.522L300.242 292.393L291.945 290.613L283.835 288.278L275.619 286.417L267.357 284.628L259.113 282.57L250.896 280.638L242.581 278.903L234.436 276.693L226.192 274.913L217.966 272.757L209.75 270.896L201.408 269.232L193.262 267.032L185.206 265.341L177.337 266.486L169.254 267.631L161.242 269.009L153.177 270.512L145.085 271.585L137.029 272.793L128.981 274.072L120.97 275.709L112.895 276.935L104.777 277.99L96.765 279.35L88.7087 280.88L80.6167 281.98L75.5224 282.758L80.4293 285.397L87.6738 289.817L95.2394 293.771L102.564 298.118L110.023 302.144L117.535 306.134L124.949 310.383L132.211 314.811L139.839 318.703L147.048 323.175L154.569 327.094L161.983 331.37L169.495 335.413L176.775 339.77L184.349 343.697L191.719 347.964L199.159 352.061L206.457 356.472L206.448 356.49Z" fill="#36393D"/>
<path d="M114.644 341.326C116.161 340.619 166.158 334.697 166.158 334.697L193.878 357.912L135.316 356.552L114.644 341.326Z" fill="#E80537"/>
<path d="M78.0292 394.144C78.0292 394.144 77.4761 393.58 76.6999 392.614C73.5505 388.705 66.654 378.211 77.3244 372.012C90.6445 364.283 134.557 367.208 138.411 370.724C142.266 374.239 171.234 389.402 167.728 393.974C164.222 398.545 155.113 399.073 155.113 399.073" fill="#FFAC66"/>
<path d="M80.5004 343.636C80.5004 343.636 75.1027 365.92 88.753 375.823C102.412 385.717 180.548 383.624 180.548 383.624L187.891 397.32C189.229 399.824 198.793 416.777 198.793 416.777C198.793 416.777 205.003 421.822 227.129 421.196L201.764 371.913C201.764 371.913 182.948 361.501 175.356 358.736C158.985 352.769 138.607 345.04 136.564 344.343C133.585 343.314 80.5004 343.627 80.5004 343.627V343.636Z" fill="#E80537"/>
<path d="M159.172 384.543C159.351 384.66 163.232 387.12 164.285 388.229C165.337 389.338 168.558 393.918 168.558 393.918C168.558 393.918 169.352 391.288 164.971 385.814C164.186 384.838 162.063 384.248 162.063 384.248L159.172 384.543Z" fill="#36393D"/>
<path d="M181.914 381.924C181.914 381.924 131.542 385.001 121.737 382.541C111.923 380.081 98.8436 380.546 94.9894 378.086C91.1352 375.626 88.9137 372.934 88.9137 372.934L86.4424 375.608C86.4424 375.608 91.1352 379.491 101.297 381.486C111.459 383.481 133.888 386.173 138.911 386.173C143.934 386.173 180.611 385.824 180.611 385.824L185.072 395.656L187.971 400.701C187.971 400.701 193.458 415.131 195.243 417.215C196.046 417.341 198.446 417.287 198.802 416.786C198.231 415.954 190.782 401.059 190.309 400.111C187.035 393.554 181.923 381.924 181.923 381.924H181.914Z" fill="#36393D"/>
<path d="M228.084 418.744C228.084 418.744 219.251 399.43 219.073 399.037C218.894 398.643 212.56 387.684 212.56 387.684L208.715 379.982C208.715 379.982 203.585 370.33 203.272 370.088C199.365 367.127 183.538 361.679 177.105 358.655L182.119 358.727L185.447 358.45L189.631 358.834L195.047 358.906C195.047 358.906 191.032 355.542 190.916 355.444C190.8 355.345 167.487 355.05 167.479 355.05C166.47 354.674 164.686 353.977 162.456 353.109C160.27 352.259 157.647 351.23 154.908 350.166C152.642 349.28 148.627 347.151 148.627 347.151C148.627 347.151 143.8 345.809 141.98 345.093C138.09 343.564 135.369 342.49 135.369 342.49L133.781 345.451L146.111 349.03L151.027 351.749L157.816 354.227L172.377 359.55C172.555 359.612 198.258 371.036 198.258 371.036L203.049 375.026L223.81 414.862L227.093 422.018L229.458 421.804L228.066 418.753L228.084 418.744Z" fill="#36393D"/>
<path d="M74.9158 393.122C77.1462 397.569 76.6198 400.995 93.4462 401.523C115.875 402.229 167.38 402.927 168.79 394.849C170.191 386.771 126.037 380.088 113.074 379.74C100.111 379.391 73.8273 383.953 74.5322 387.818C74.5322 387.818 74.2734 391.816 74.9247 393.122H74.9158Z" fill="#FFAC66"/>
<path d="M102.832 168.074L102.974 154.27L102.154 140.556L101.877 128.641L89.2618 129.66L74.7461 131.745L60.177 133.078L45.6703 134.661L31.0833 135.726L16.5498 137.792L3.57764 138.839L3.94343 151.309L4.04157 165.426L4.39843 179.462L4.87128 193.56L4.70177 207.668L4.9605 219.727L16.2375 218.501L29.3525 216.64L42.6458 215.299L55.8946 213.626L69.1165 212.686L82.2404 210.987L93.8564 209.376L103.902 207.856L103.911 195.636L103.206 181.904L102.832 168.074Z" fill="white"/>
<path d="M106.668 181.769L106.293 168.046L106.436 154.243V154.18L105.615 140.413L105.249 124.883L88.9227 126.198L74.3714 128.291L59.8201 129.615L45.3491 131.199L30.7621 132.263L16.2107 134.339L0 135.645L0.472851 151.38L0.570989 165.488L0.927858 179.577L1.40071 193.604L1.24012 207.694L1.57914 223.6L16.6747 221.954L29.7807 220.102L43.0562 218.76L56.2068 217.105L69.4288 216.166L82.7132 214.448L94.3739 212.838L107.391 210.861L107.408 195.617L106.695 181.787L106.668 181.769ZM4.96047 219.726L4.70174 207.667L4.87125 193.551L4.3984 179.461L4.04154 165.425L3.9434 151.309L3.56868 138.838L16.5498 137.792L31.0832 135.725L45.6702 134.661L60.1769 133.077L74.7372 131.753L89.2617 129.66L101.877 128.64L102.154 140.556L102.965 154.27L102.823 168.073L103.197 181.903L103.902 195.635V207.846L93.8386 209.376L82.2314 210.986L69.0987 212.686L55.8767 213.625L42.6279 215.289L29.3346 216.64L16.2197 218.492L4.94263 219.726H4.96047Z" fill="#36393D"/>
<path d="M185.054 285.559L165.105 289.621L144.192 273.813L164.159 271.863L185.054 285.559Z" fill="white"/>
<path d="M181.967 284.7L163.401 272.883L151.348 274.064L169.361 286.928L181.967 284.7Z" fill="#FFCB2E"/>
<path d="M150.705 274.279L148.609 274.548L150.893 276.158L152.891 275.89L150.705 274.279Z" fill="#FFD5B3"/>
<path d="M185.054 285.559L165.105 289.62L165.025 290.237L184.706 286.623L185.054 285.559Z" fill="#FFD5B3"/>
<path d="M165.105 289.62L144.193 273.812L144.085 275.253L165.025 290.237L165.105 289.62Z" fill="#FFD5B3"/>
<path d="M292.311 328.571L267.054 333.777L240.592 313.551L265.858 311.055L292.311 328.571Z" fill="white"/>
<path d="M288.403 327.489L264.904 312.361L249.647 313.873L272.451 330.333L288.403 327.489Z" fill="#FFCB2E"/>
<path d="M292.311 328.57L267.053 333.777L266.447 334.475L291.874 329.939L292.311 328.57Z" fill="#FFD5B3"/>
<path d="M267.054 333.777L240.592 313.551L240.458 315.394L266.474 334.752L267.054 333.777Z" fill="#FFD5B3"/>
<path d="M226.504 58.156V89.0816H228.431V57.2793L226.504 58.156Z" fill="#F18184"/>
<path d="M234.909 107.698L233.16 89.252L219.322 89.4309L217.047 107.877C217.047 107.877 203.379 112.618 198.303 118.415C193.226 124.212 189.363 145.467 189.363 145.467L260.327 145.816C260.327 145.816 255.072 122.978 251.218 117.878C247.363 112.779 234.926 107.689 234.926 107.689L234.909 107.698Z" fill="#F18184"/>
<path d="M411.871 129.311C409.766 120.178 403.458 111.044 397.855 100.497C392.252 89.9589 367.37 84.332 367.37 84.332L367.717 57.9777H359.304L358.956 0L356.851 1.75338C355.539 3.39046 355.459 51.5815 355.45 57.9688H346.689L344.236 83.6163C344.236 83.6163 314.446 99.0747 306.738 109.971C299.029 120.867 294.47 144.054 294.47 144.054L415.011 145.11C415.011 145.11 413.959 138.436 411.853 129.303L411.871 129.311Z" fill="#F18184"/>
<path d="M136.966 127.908L136.44 119.472L133.656 119.543L133.808 101.732H132.407C132.407 101.732 132.407 113.666 132.327 119.579L129.606 119.651L129.427 128.785C129.427 128.785 123.646 129.312 120.845 133.356C118.043 137.399 116.812 146.533 116.812 146.533L151.856 146.184C151.856 145.477 147.824 134.411 144.496 131.075C141.168 127.738 136.966 127.917 136.966 127.917V127.908Z" fill="#F18184"/>
<path d="M216.566 324.553C216.566 324.553 221.294 316.824 227.959 316.475C231.929 316.269 236.773 317.101 240.137 318.326C243.251 319.462 241.85 321.377 240.422 322.719C237.068 325.859 232.286 329.67 227.923 329.759C222.695 329.858 219.867 328.891 217.092 327.845C216.057 327.451 215.629 326.234 216.173 325.268L216.575 324.562L216.566 324.553Z" fill="white"/>
<path d="M177.596 295.865C177.596 295.865 180.879 290.498 185.509 290.256C188.266 290.113 191.63 290.694 193.967 291.544C196.126 292.331 195.154 293.664 194.163 294.595C191.835 296.778 188.507 299.425 185.483 299.479C181.851 299.551 179.889 298.88 177.962 298.146C177.248 297.878 176.944 297.028 177.319 296.357L177.596 295.865Z" fill="white"/>
<path d="M304.498 245.034L261.397 229.396L242.465 283.903L280.499 308.629L304.498 245.034Z" fill="#E80537"/>
<path d="M241.716 285.622L242.341 283.824L242.127 283.689L240.904 285.783L241.154 285.971L241.627 286.293L241.832 285.702C241.77 285.658 241.725 285.631 241.707 285.622H241.716Z" fill="white"/>
<path d="M240.904 285.792L241.154 285.971L240.904 285.783V285.792Z" fill="white"/>
<path d="M241.627 286.32L241.636 286.293L241.154 285.971L241.627 286.32Z" fill="white"/>
<path d="M241.841 285.703L242.465 283.905L242.34 283.824L241.716 285.622C241.716 285.622 241.778 285.658 241.841 285.703Z" fill="white"/>
<path d="M306.256 308.63L301.001 279.127L301.402 277.856L301.92 276.219L309.762 251.538L307.309 243.63L260.88 226.588L240.119 285.174L240.913 285.773L242.135 283.68L242.35 283.814L242.474 283.895L261.415 229.388L304.516 245.025L280.517 308.621L242.483 283.895L241.859 285.693L241.654 286.283L281.391 313.362L291.026 310.553L295.229 297.331C295.737 302.198 296.763 310.097 296.638 310.732C296.46 311.609 293.837 312.664 289.983 318.282C286.128 323.9 316.792 322.675 316.792 318.103C316.792 313.532 306.283 308.621 306.283 308.621L306.256 308.63Z" fill="white"/>
<path d="M192.504 222.875L180.504 259.92L205.324 276.058L221.437 233.368L192.504 222.875Z" fill="#E80537"/>
<path d="M222.614 276.059L218.76 257.281L219.358 255.403L219.706 254.302L224.97 237.735L223.319 232.43L192.156 220.988L177.943 260.359L179.264 261.083L205.913 279.243L212.381 277.356L215.156 268.625C215.441 271.425 216.235 277.007 216.146 277.472C216.03 278.062 214.264 278.769 211.676 282.544C209.089 286.319 229.671 285.496 229.671 282.428C229.671 279.36 222.614 276.059 222.614 276.059ZM192.504 222.876L221.437 233.369L205.324 276.059L180.495 259.92L192.504 222.876Z" fill="white"/>
<path d="M259.827 198.918L283.943 205.538L277.965 221.98C277.965 221.98 265.296 217.284 258.435 215.468C258.195 216.72 257.65 219.368 257.65 219.368L254.215 214.358C253.609 214.233 259.827 198.918 259.827 198.918Z" fill="white"/>
<path d="M279.606 207.811L261.353 202.408L260.853 203.652L279.16 209.028L279.606 207.811Z" fill="#E80537"/>
<path d="M278.215 211.442L259.363 205.672L258.846 207.577L277.894 213.151L278.215 211.442Z" fill="#E80537"/>
<path d="M277.188 214.825L263.699 210.674L263.137 212.57L276.68 216.498L277.188 214.825Z" fill="#E80537"/>
<path d="M271.711 279.154L270.551 285.335L272.897 284.825L273.789 287.366L276.1 286.051L275.154 283.653L276.841 282.821L272.514 278.044C272.344 277.856 272.023 277.955 271.951 278.223L271.693 279.171L271.711 279.154Z" fill="white"/>
<path d="M299.859 245.885L302.054 246.43C302.054 246.43 296.54 261.245 296.54 260.144C296.54 259.044 299.859 245.885 299.859 245.885Z" fill="#36393D"/>
<path d="M296.129 244.48L298.324 245.025C298.324 245.025 295.567 254.606 295.567 253.506C295.567 252.406 296.129 244.471 296.129 244.471V244.48Z" fill="#36393D"/>
<path d="M14.7833 149.037L14.7119 164.45L31.7524 163.359L31.7345 147.561L14.7833 149.037Z" fill="#FFCB2E"/>
<path d="M50.8183 171.562L50.7559 186.976L67.7963 185.884L67.7785 170.086L50.8183 171.562Z" fill="#FFCB2E"/>
<path d="M16.1484 172.501L16.0859 187.915L33.1175 186.824L33.0996 171.025L16.1484 172.501Z" fill="#FFCB2E"/>
<path d="M49.2836 145.441L49.2212 160.855L66.2617 159.763L66.2349 143.965L49.2836 145.441Z" fill="#E80537"/>
<path d="M18.6196 175.82L18.7535 176.894L31.0297 175.713L30.7532 174.926L23.2768 175.525L18.6196 175.82Z" fill="#E80537"/>
<path d="M18.9229 180.463L30.9047 179.631L30.1999 178.861L18.9853 179.693L18.9229 180.463Z" fill="#E80537"/>
<path d="M54.5384 175.453L65.9404 174.174L65.5568 174.881L53.0039 176.482L53.3875 175.453H54.5384Z" fill="#E80537"/>
<path d="M53.5126 178.219L61.2656 177.771L61.1317 178.603L53.3877 179.185L53.5126 178.219Z" fill="#E80537"/>
<path d="M262.834 233.861L260.826 240.052L266.572 242.843L268.722 236.044L262.834 233.861Z" fill="#FFCB2E"/>
<path d="M271.8 237.367L269.801 243.558L275.538 246.358L277.688 239.559L271.8 237.367Z" fill="#FFCB2E"/>
<path d="M259.925 243.281L257.927 249.472L263.663 252.263L265.822 245.464L259.925 243.281Z" fill="#FFCB2E"/>
<path d="M256.428 253.211L254.429 259.401L260.166 262.201L262.316 255.403L256.428 253.211Z" fill="#FFCB2E"/>
<path d="M297.95 199.285L292.57 212.65L312.554 218.814L318.443 204.429L303.838 208.025L297.95 199.285Z" fill="white"/>
<path d="M299.395 197.746C299.395 198.175 304.605 206.137 304.605 206.137L318.104 202.8L299.404 197.746H299.395Z" fill="white"/>
<path d="M318.416 251.637L334.965 231.035L345.841 236.626L318.416 251.637Z" fill="white"/>
<path d="M326.285 257.864L347.831 247.219L354.665 256.021L326.285 257.864Z" fill="white"/>
<path d="M314.99 247.146L318.362 227.716L327.462 227.43L314.99 247.146Z" fill="white"/>
<path d="M100.86 234.604L99.1382 204.761C99.1025 204.171 99.272 203.58 99.6021 203.097L105.276 194.93C107.855 191.217 111.7 188.587 116.089 187.54L126.046 185.161C126.153 185.134 126.26 185.116 126.376 185.098C128.464 184.892 133.986 185.662 136.208 186.467C136.458 186.556 136.681 186.682 136.895 186.834L143.14 191.521C146.307 193.892 148.591 197.256 149.635 201.075L150.724 205.047C150.75 205.164 150.777 205.271 150.795 205.387C150.982 206.792 151.955 213.564 150.028 217.106C149.153 218.717 149.921 236.438 148.395 236.894C146.869 237.351 142.177 236.751 142.426 236.814C142.533 236.841 142.391 237.297 142.194 237.825C142.15 237.941 142.096 238.057 142.034 238.165C141.873 238.147 141.695 238.165 141.507 238.263C140.312 238.836 140.071 240.884 139.661 241.993C138.956 243.881 136.779 245.831 137.1 247.969C137.127 248.157 137.198 248.309 137.296 248.434C137.314 249.893 136.431 252.236 135.28 252.236C134.495 252.236 130.668 251.181 128.241 249.714C123.111 246.61 121.523 249.58 121.13 251.127L120.434 260.162C120.256 260.86 120.158 261.254 119.533 261.603L116.313 262.846C115.982 263.034 114.492 263.526 114.109 263.562C112.574 263.687 111.789 264.277 109.916 262.64C108.113 261.066 106.133 259.751 104.554 258.651C104.081 258.32 102.332 255.967 102.154 255.421L100.013 251.315C99.736 250.456 98.5137 249.356 99.0847 248.658L100.36 247.128C100.762 246.645 100.976 246.037 100.976 245.411L100.878 234.586L100.86 234.604Z" fill="#DD8C62"/>
<path d="M110.415 216.515C110.459 215.629 110.433 214.833 110.04 214.028C109.844 213.625 109.549 213.24 109.121 212.927C108.702 212.614 108.086 212.373 107.381 212.444C107.15 212.471 106.837 212.525 106.454 212.713C106.07 212.901 105.606 213.214 105.169 213.795C104.848 214.225 104.562 214.86 104.393 215.54C104.223 216.219 104.152 216.926 104.098 217.579C104 218.885 104.098 219.968 104.098 219.968C104.098 219.968 104.116 220.191 104.152 220.567C104.196 220.934 104.259 221.453 104.375 222.016C104.598 223.152 105.044 224.503 105.481 225.416C106.204 226.919 106.855 227.733 107.176 228.162C107.542 228.574 107.819 228.94 108.274 229.262C108.497 229.414 108.764 229.549 109.059 229.602C109.344 229.656 109.639 229.629 109.888 229.54C110.397 229.37 110.709 229.021 110.95 228.681C111.191 228.332 111.361 227.947 111.503 227.527C111.173 227.831 110.861 228.082 110.549 228.269C110.236 228.457 109.924 228.583 109.674 228.574C109.425 228.565 109.255 228.484 109.032 228.269C108.809 228.064 108.532 227.679 108.22 227.312C107.935 226.928 107.346 226.194 106.695 224.834C106.293 224.011 105.883 222.786 105.686 221.739C105.57 221.22 105.517 220.755 105.472 220.415C105.437 220.075 105.419 219.869 105.419 219.869C105.419 219.869 105.338 218.876 105.419 217.678C105.472 217.078 105.535 216.416 105.677 215.871C105.811 215.316 106.025 214.869 106.231 214.591C106.507 214.225 106.793 214.028 107.007 213.92C107.221 213.813 107.373 213.786 107.489 213.777C108.14 213.706 108.747 214.108 109.193 214.573C109.648 215.065 110.013 215.701 110.388 216.515H110.415Z" fill="#36393D"/>
<path d="M109.514 216.962C109.514 216.962 108.908 215.414 107.346 215.951C105.776 216.488 106.517 218.51 106.49 219.18C106.472 219.851 106.74 220.433 106.74 220.433C106.74 220.433 106.757 217.463 107.667 216.908C108.577 216.354 109.505 216.962 109.505 216.962H109.514Z" fill="#36393D"/>
<path d="M102.377 199.716C102.377 199.716 106.052 191.781 113.226 188.82C120.399 185.868 127.411 185.036 131.908 186.082C136.404 187.129 138.831 187.666 142.31 191.459C145.79 195.252 149.778 202.131 149.778 202.131C149.778 202.131 148.966 196.316 146.164 192.997C143.372 189.679 143.086 187.684 136.886 185.304C130.685 182.925 125.475 183.748 121.674 184.508C117.874 185.268 115.42 185.787 110.826 187.889C104.527 190.77 99.9143 198.651 100.369 198.964L102.377 199.716Z" fill="#36393D"/>
<path d="M123.2 244.203C123.521 244.686 124.101 245.679 125.395 246.895C125.957 247.432 126.822 248.031 127.643 248.443C128.054 248.658 128.428 248.837 128.705 248.971C128.981 249.105 129.151 249.185 129.151 249.185C129.151 249.185 129.356 249.284 129.686 249.454C130.007 249.624 130.445 249.856 130.935 250.116C131.408 250.366 131.908 250.617 132.372 250.805C132.836 250.993 133.264 251.1 133.585 251.162C134.798 251.35 135.298 251.073 135.566 250.966C135.967 250.769 136.288 250.474 136.511 250.178C136.734 249.874 136.85 249.561 136.895 249.23C136.931 248.881 136.832 248.425 136.815 247.915C136.806 247.647 136.832 247.378 136.913 247.11C136.922 247.074 136.94 247.038 136.957 247.003C136.904 246.743 136.895 246.421 136.904 246.385C136.966 245.867 137.216 245.455 137.439 244.999C137.609 244.659 137.751 244.292 137.948 243.97C138.269 243.424 138.242 243.406 138.519 242.834C138.162 242.736 137.68 242.252 137.341 242.056C136.761 241.716 136.244 241.304 135.682 240.929C134.504 240.123 133.478 239.3 132.523 238.236C131.631 237.243 130.9 236.116 130.427 234.863C130.186 234.237 130.052 233.423 129.909 232.761C129.766 232.09 129.936 231.482 129.99 230.793C129.811 230.811 129.642 230.838 129.463 230.9C129.365 230.936 129.258 230.963 129.169 231.017C129.088 231.07 129.017 231.151 128.955 231.213C128.848 231.33 128.758 231.187 128.74 231.079C128.705 230.9 128.74 230.712 128.821 230.551C128.955 230.292 129.142 230.113 129.419 230.024C129.677 229.943 129.954 229.889 130.23 229.889C130.507 229.889 130.775 229.943 131.042 230.033C131.274 230.113 131.631 230.229 131.756 230.453C131.827 230.578 131.81 230.748 131.765 230.873C131.747 230.936 131.667 231.124 131.569 231.043C131.542 231.026 131.479 231.017 131.444 231.008C131.381 230.99 131.319 230.972 131.256 230.954C131.14 230.918 131.033 230.882 130.917 230.856C130.784 230.82 130.641 230.793 130.498 230.775C130.712 231.929 130.953 233.083 131.417 234.174C131.926 235.364 132.728 236.277 133.585 237.225C134.45 238.182 135.441 238.943 136.485 239.694C136.993 240.061 137.475 240.445 138.001 240.785C138.367 241.027 138.831 241.188 139.223 241.429C139.75 240.553 140.258 239.676 140.704 238.764C140.981 238.191 141.284 237.583 141.659 237.055C141.516 236.992 141.374 236.93 141.24 236.858C140.74 236.608 140.267 236.295 139.893 235.865C139.518 235.454 139.268 234.881 139.259 234.327C139.241 233.781 139.464 233.181 139.928 232.886C139.661 233.36 139.759 233.834 139.928 234.183C140.107 234.55 140.357 234.774 140.687 234.971C141.008 235.167 142.783 235.803 143.354 235.937C149.243 237.288 148.725 234.81 148.761 234.461C148.823 233.745 148.698 232.859 148.761 232.171C149.02 229.415 147.387 223.565 147.779 219.342C147.967 217.437 150.402 213.17 150.393 212.579C150.393 211.389 149.894 210.066 149.769 209.207C149.653 208.357 147.672 202.971 150.349 202.703C151.259 203.258 151.758 206.058 151.848 207.74C152.276 208.661 152.472 210.969 152.481 212.275C152.499 212.919 150.277 217.142 150.09 219.038C149.698 223.261 150.947 230.158 150.688 232.913C150.625 233.602 150.563 234.318 150.492 235.042C150.456 235.409 150.438 235.731 150.376 236.169C150.34 236.384 150.295 236.617 150.197 236.858C150.108 237.1 149.947 237.377 149.715 237.592C149.483 237.815 149.189 237.958 148.939 238.039C148.68 238.111 148.457 238.137 148.261 238.155C147.869 238.173 147.565 238.173 147.226 238.164C146.575 238.146 145.986 238.093 145.487 238.03C144.006 237.824 143.898 237.762 143.47 237.645C143.327 237.601 142.052 239.3 141.65 240.168C141.204 241.125 140.446 242.548 139.902 243.451C139.438 244.238 139.223 244.865 138.768 245.652C138.581 245.974 138.26 246.484 138.082 246.842C137.903 247.191 138.189 248.479 138.322 249.06C138.447 249.651 138.251 250.581 137.939 251.162C137.627 251.744 136.975 252.021 136.261 252.388C136.012 252.504 135.69 252.639 135.209 252.737C134.727 252.826 134.085 252.871 133.282 252.737C132.853 252.665 132.3 252.522 131.747 252.29C131.194 252.066 130.641 251.789 130.15 251.529C129.677 251.279 129.24 251.046 128.928 250.876C128.616 250.715 128.419 250.617 128.419 250.617C128.419 250.617 128.25 250.536 127.982 250.402C127.706 250.268 127.313 250.08 126.876 249.856C126.439 249.624 125.939 249.355 125.475 249.033C125.163 248.819 124.877 248.595 124.619 248.38C123.914 248.649 122.781 249.203 122.156 250.331C121.237 252.003 120.202 255.081 120.202 255.081C120.202 255.081 119.997 252.665 120.461 251.324C120.88 250.125 122.611 247.325 122.995 246.725C122.852 246.555 122.727 246.385 122.611 246.233C122.228 245.715 121.969 245.321 121.799 245.044C121.121 243.925 120.747 242.986 120.47 242.074C120.202 241.161 120.051 240.275 119.89 239.211C120.524 240.079 121.05 240.803 121.55 241.582C122.058 242.351 122.54 243.174 123.164 244.185L123.2 244.203Z" fill="#36393D"/>
<path d="M99.0757 247.861C99.7449 246.725 100.36 245.321 100.459 245.097C100.414 244.408 100.325 243.022 100.325 243.022C100.325 243.022 100.378 239.238 100.396 239.041C100.414 238.862 100.441 230.506 100.958 230.363C101.476 230.515 101.288 231.607 101.297 231.777C101.306 231.965 101.654 243.997 101.654 243.997C101.654 243.997 101.654 244.954 101.636 245.151C101.636 245.169 101.618 245.178 101.618 245.186C101.565 245.822 101.36 246.815 100.655 247.682C99.8965 248.604 99.2809 249.803 99.2809 249.803L98.9776 249.006C98.9776 249.006 98.3352 249.096 99.0668 247.852L99.0757 247.861Z" fill="#36393D"/>
<path d="M122.272 246.644L121.157 245.293C121.157 245.293 119.506 250.043 119.524 250.213C119.542 250.392 121.175 247.851 121.505 247.467C121.835 247.073 122.272 246.644 122.272 246.644Z" fill="#36393D"/>
<path d="M120.728 244.587C120.639 244.453 120.309 243.531 120.309 243.531L119.453 246.564L120.728 244.596V244.587Z" fill="#36393D"/>
<path d="M138.01 216.748C138.135 216.721 138.349 216.676 138.715 216.641C139.259 216.578 140.089 216.614 140.722 216.712C141.409 216.81 141.962 216.998 141.971 216.998C141.989 216.998 142.462 217.141 143.015 217.437C143.559 217.714 144.184 218.17 144.585 218.591C144.987 218.993 145.192 219.297 145.317 219.485C145.522 219.789 145.656 220.094 145.754 220.425C145.799 220.568 145.825 220.72 145.843 220.89V220.943C145.843 220.943 145.852 221.015 145.861 221.06L145.754 221.435C145.692 221.516 145.103 221.471 145.049 221.31C145.031 221.266 145.031 221.212 145.031 221.158L144.728 220.675C144.621 220.514 144.514 220.335 144.353 220.103C144.255 219.959 144.095 219.727 143.773 219.405C143.443 219.065 142.926 218.68 142.489 218.457C142.034 218.215 141.641 218.099 141.623 218.099C141.623 218.099 141.15 217.938 140.553 217.857C139.928 217.759 139.214 217.75 138.822 217.795C138.527 217.821 138.358 217.857 138.251 217.875H138.188C137.876 217.956 137.644 218.009 137.377 218.081L137.323 218.099C137.1 218.161 136.895 218.215 136.645 218.304L135.369 218.788L136.27 217.759C136.493 217.508 136.716 217.311 136.984 217.15C137.278 216.972 137.582 216.855 137.956 216.775H138.019L138.01 216.748Z" fill="#36393D"/>
<path d="M103.885 185.581C110.683 185.107 109.291 181.063 114.716 176.993C120.131 172.923 126.983 177.619 136.467 177.476C145.95 177.333 145.79 171.974 145.79 171.974C145.79 171.974 147.485 177.163 148.556 178.174C151.553 181.01 148.725 168.924 148.725 168.924C148.725 168.924 151.625 172.27 156.166 178.299C160.707 184.328 164.338 191.038 154.899 201.2C149.796 206.702 142.31 206.228 134.566 204.528C131.319 205.396 127.706 206.434 124.993 207.176C119.56 208.67 118.641 212.105 117.687 215.657C116.732 219.208 118.177 221.006 118.177 221.006L112.771 222.84C112.771 222.84 112.012 211.577 108.122 210.522C106.258 210.021 104.473 210.96 103.233 212.57C101.636 219.602 103.108 229.254 103.108 229.254L100.896 238.281L97.7286 227.805C97.7286 227.805 90.3861 208.661 90.9838 199.277C91.5816 189.893 97.0863 186.037 103.894 185.563L103.885 185.581Z" fill="#36393D"/>
<path d="M179.817 382.326C179.683 381.888 180.843 377.424 180.843 377.424L181.459 380.94L185.232 378.855L181.967 383.605L179.817 382.317V382.326Z" fill="#36393D"/>
<path d="M134.789 338.062L143.336 337.409L148.484 336.211L157.557 334.985L165.257 333.947L168.022 336.264L159.868 336.864L151.785 338.447L146.396 339.172L139.098 340.156L135.191 340.862C135.191 340.862 135.012 338.098 134.798 338.053" fill="#36393D"/>
<path d="M81.0004 367.618C81.0004 367.618 81.4108 362.581 76.9678 341.97C72.5248 321.359 71.133 317.96 71.5345 302.967C71.9984 285.63 88.3519 257.817 88.3519 257.817L101.315 242.887L121.799 264.5L130.864 319.892L135.771 343.437C135.771 343.437 122.924 364.165 107.507 370.49C92.0901 376.814 80.9915 367.618 80.9915 367.618H81.0004Z" fill="white"/>
<path d="M229.466 310.876C226.888 309.301 223.239 308.353 220.821 307.95C216.619 307.244 208.911 310.062 208.911 310.062L159.154 310.768L142.801 299.523L132.523 314.982C132.523 314.982 151.678 326.924 154.952 328.57C157.29 329.742 180.798 326.379 196.617 323.758C202.96 322.711 208.072 321.781 210.079 321.306C217.092 319.669 213.354 325.287 221.758 323.883C230.171 322.478 232.036 319.902 232.509 315.447C232.705 313.55 231.384 312.048 229.475 310.876H229.466Z" fill="#DD8C62"/>
<path d="M120.015 265.082C120.015 265.082 109.969 271.523 111.718 281.829C113.466 292.134 117.793 302.556 121.175 306.662C124.565 310.759 131.8 317.907 131.8 317.907L150.723 296.589L134.718 276.094L127.357 269.421L119.997 265.091L120.015 265.082Z" fill="white"/>
<path d="M132.398 273.044C128.892 269.528 118.703 261.799 118.703 261.799C118.703 261.799 110.513 271.308 110.629 281.497C110.745 291.687 114.492 298.969 117.758 304.703C121.032 310.446 130.873 318.488 131.693 319.186L151.785 297.403C151.785 297.403 135.895 276.559 132.398 273.044ZM123.637 307.243C123.637 307.243 116.625 297.994 115.108 293.771C113.591 289.558 112.538 284.754 113.002 279.127C113.466 273.509 119.658 266.129 119.658 266.129L129.204 273.527L138.34 284.915L148.27 295.793L131.122 315.178L123.628 307.235L123.637 307.243Z" fill="#36393D"/>
<path d="M132.862 327.156C132.746 326.1 130.061 316.618 130.061 316.618L126.599 314.158L132.514 336.692L133.781 341.961C130.801 345.289 119.819 362.116 114.18 365.256C107.872 368.772 104.214 370.57 94.579 370.48C84.9435 370.391 83.7213 368.503 83.7213 368.503L81.7942 366.92C81.7942 366.92 81.357 358.574 80.4827 355.675C79.6084 352.777 76.2806 331.781 74.4338 325.725C72.5959 319.668 73.3721 304.568 74.2018 299.844C77.1817 282.83 86.7903 262.46 88.1643 260.25C89.7434 257.701 100.958 245.427 100.958 245.427L100.102 244.121C100.102 244.121 87.1026 257.298 85.6216 260.286C84.3458 262.836 77.6724 277.086 75.7453 281.192C75.5401 281.631 73.6397 288.448 72.0963 294.074C70.758 298.959 70.3119 304.049 70.7937 309.094C70.7937 309.094 74.1126 334.304 79.6976 359.808C80.6968 364.362 80.4827 368.155 80.4827 368.155C80.4827 368.155 84.0781 374.22 94.5879 373.603C105.098 372.985 113.074 370.176 117.802 365.524C122.531 360.873 136.725 343.679 136.725 343.679C136.725 343.679 132.987 328.22 132.871 327.165L132.862 327.156Z" fill="#36393D"/>
<path d="M59.133 379.068C59.133 379.068 48.3913 361.767 46.9816 357.196C46.4017 355.308 46.4017 342.847 45.4382 329.5C44.0642 310.499 42.4405 287.499 45.9378 289.36C51.8975 292.518 58.2319 298.905 58.5799 299.961C58.9278 301.016 70.4903 380.804 70.4903 380.804L62.5143 384.141L59.1241 379.077L59.133 379.068Z" fill="#FFAC66"/>
<path d="M99.6914 244.82C99.4595 243.532 98.8706 238.263 100.512 237.672C102.145 237.091 119.899 249.499 119.899 249.499C119.899 249.499 127.144 256.172 126.439 258.516C125.734 260.86 123.664 267.292 123.664 267.292L99.6914 244.811V244.82Z" fill="#36393D"/>
<path d="M58.2231 298.395C58.2231 298.395 77.494 298.046 80.6523 305.427C83.8017 312.807 94.6683 365.337 88.7086 373.763C82.7489 382.199 64.5308 392.031 62.4253 382.897C60.3197 373.764 58.2231 298.395 58.2231 298.395Z" fill="#FFAC66"/>
<path d="M45.9288 289.352C45.9288 289.352 59.3917 290.228 66.7789 294.182C73.0865 297.555 78.0202 302.09 78.0202 302.09C78.0202 302.09 71.5342 299.451 67.1536 299.451C62.773 299.451 57.8661 298.396 57.8661 298.396L45.9199 289.352H45.9288Z" fill="#FFAC66"/>
<path d="M169.022 391.934C165.489 387.595 139.348 382.094 139.348 382.094C139.348 382.094 137.127 381.306 136.351 381.172C132.291 380.474 128.312 379.893 124.717 379.446C119.676 378.819 113.02 378.936 113.02 378.936C113.02 378.936 107.194 378.426 103.742 378.712C96.9076 379.276 88.8067 380.457 82.5794 382.049C85.6484 379.821 88.3606 377.245 90.1271 374.749C92.3308 371.627 91.3048 354.782 91.3048 354.782C91.3048 354.782 91.1085 347.643 90.6089 344.047C89.9576 339.342 89.1547 334.547 88.3071 329.993C87.7807 327.166 86.2462 321.906 86.2462 321.906C86.2462 321.906 85.5503 316.691 85.015 314.463C83.873 309.704 82.8559 306.171 82.2403 304.73C81.6783 303.406 81.0716 302.029 79.8672 301.107L78.5735 300.079C78.3683 299.891 74.0235 296.08 67.5998 292.636C60.4625 288.816 46.2234 286.696 44.2695 287.885C41.4949 289.567 44.3588 328.848 44.3588 328.848C44.3588 328.848 44.4123 342.285 44.6086 347.277C44.8584 353.682 44.9833 356.562 45.3312 357.698C46.7855 362.431 57.2239 379.267 57.661 379.982C57.661 379.982 62.7018 387.694 65.6906 388.132C66.2437 388.213 66.8326 388.293 67.4481 388.293C68.9827 388.293 70.7046 387.953 72.4889 387.381C72.4086 387.703 72.3819 387.998 72.4086 388.257C72.3373 389.465 72.2213 392.766 72.9975 394.296C73.2294 394.761 73.4346 395.208 73.6309 395.647C74.9156 398.536 76.2806 399.932 80.7147 401.3C83.4269 402.132 87.2276 403.465 93.0178 403.644C96.8184 403.76 100.423 403.859 103.858 403.921C109.104 404.029 113.93 404.073 118.373 404.073C124.931 404.073 130.302 403.367 135.289 403.179C141.552 402.937 147.021 403.161 151.196 402.705C169.218 400.719 169.843 397.123 170.119 395.521C170.271 394.662 170.2 393.347 169.04 391.925L169.022 391.934ZM65.1553 294.282C66.2259 294.81 69.2325 297.636 70.196 298.245C65.4943 297.44 60.3465 297.484 58.9547 297.493L57.1168 295.65C55.9035 294.47 51.5407 291.777 49.9616 290.533C54.1994 291.213 58.2053 290.873 65.1464 294.291L65.1553 294.282ZM48.6412 356.679C48.4092 355.891 48.2397 351.445 48.0702 347.142C47.8739 342.124 47.633 335.88 47.1602 329.367C46.3037 317.577 44.7602 296.277 46.036 291.401C50.595 294.058 55.0737 298.352 56.528 300.052C56.6707 304.927 57.9554 335.11 57.9554 335.11C57.9554 335.11 57.9019 340.057 58.0001 342.419C58.116 345.183 58.7584 350.569 58.7584 350.569C58.7584 350.569 58.5711 355.095 58.6781 357.242C59.0707 365.123 59.4989 372.173 59.945 377.093C56.6172 371.681 49.6583 360.015 48.6323 356.679H48.6412ZM66.3597 384.715C65.1107 384.464 64.4148 383.784 64.1204 382.505C62.9159 377.281 61.1137 348.645 60.3019 326.343C60.0699 313.873 60.4357 304.033 60.3019 300.589C62.1754 300.875 64.727 301.179 67.1627 301.179C69.8302 301.179 73.4614 302.288 75.6026 303.031C77.2799 303.845 78.5289 304.865 79.0642 306.099C80.0456 308.407 83.9444 322.801 83.9444 322.801C83.9444 322.801 84.5868 329.161 85.131 332.194C85.8269 336.112 86.4871 340.156 87.0491 344.119C87.7718 349.236 88.325 354.219 88.5926 358.584C89.0119 365.392 88.7354 370.706 87.299 372.745C82.731 379.213 71.3826 385.699 66.3597 384.706V384.715ZM138.536 400.119C122.272 400.889 103.099 400.477 93.1159 400.164C79.2337 399.726 78.2613 397.543 76.7803 394.224C76.5661 393.741 76.3431 393.24 76.0844 392.721C75.8524 392.229 75.7543 390.127 75.8702 388.311V388.284C78.2702 385.654 99.7715 381.512 112.637 381.852C125.234 382.192 161.322 387.971 166.345 394.126C166.613 394.457 166.729 394.725 166.693 394.922C166.667 395.083 165.703 398.84 138.536 400.119Z" fill="#36393D"/>
<path d="M231.991 311.296C231.884 311.224 224.568 306.098 218.225 306.501C216.102 306.635 207.653 308.872 207.653 308.872L159.583 309.847L148.109 300.203L146.146 302.717L159.154 312.217L208.607 311.01L218.162 308.514C218.162 308.514 227.075 310.124 228.681 311.171C230.287 312.217 232.268 314.973 232.196 315.697C231.732 320.152 230.171 322.469 221.758 323.874C213.345 325.278 217.083 319.66 210.079 321.297C209.794 321.36 209.437 321.44 209.027 321.53C200.542 322.747 175.606 326.343 172.885 326.879C169.593 327.524 155.782 327.202 155.782 327.202L134.744 314.883L132.095 316.476L154.506 330.494C154.506 330.494 167.344 330.628 184.278 327.765C187.784 327.175 194.547 326.083 201.006 324.679C205.503 323.892 211.775 322.881 212.845 323.409C214.398 324.169 217.797 326.969 223.658 325.895C229.52 324.813 232.669 321.423 233.544 318.605C234.926 314.159 232 311.305 232 311.296H231.991Z" fill="#36393D"/>
<path d="M67.6531 383.096L65.387 382.559L61.5596 323.463L67.6531 383.096Z" fill="#36393D"/>
<path d="M138.947 313.381L137.421 314.642L148.912 321.844L138.947 313.381Z" fill="#36393D"/>
<path d="M140.365 312.647L146.78 317.612L141.659 311.037L140.365 312.647Z" fill="#36393D"/>
<path d="M68.7684 382.737L66.0562 355.166L71.4716 382.397L68.7684 382.737Z" fill="#36393D"/>
<path d="M148.163 214.502C148.02 214.708 147.931 214.806 146.619 214.269C145.308 213.733 141.712 212.552 141.712 212.552C141.712 212.552 139.134 212.409 137.519 212.185C135.913 211.961 134.218 211.264 134.218 211.264C134.031 210.852 134.343 210.324 134.343 210.324L140.026 210.423C140.026 210.423 144.924 210.915 146.361 211.46C147.797 211.997 149.144 211.845 148.903 212.659C148.662 213.473 148.297 214.287 148.154 214.493L148.163 214.502Z" fill="#36393D"/>
</svg>
