<svg width="454" height="343" viewBox="0 0 454 343" fill="none" xmlns="http://www.w3.org/2000/svg">
<path d="M445.215 271.831C446.672 271.826 276.54 243.627 276.54 243.627C276.54 243.627 276.143 240.812 271.775 241.506C233.143 247.166 39.1275 281.194 41.2639 281.188C43.6916 281.18 213.259 315.207 213.259 315.207C213.259 315.207 443.176 271.838 445.215 271.831Z" fill="white"/>
<path d="M209.335 333.283L209.681 320.172L46.2422 289.523L47.7278 298.55L209.335 333.283Z" fill="white"/>
<path d="M444.686 287.857L445.526 277.172L320.233 301.366L219.879 319.751L221.283 333.439L444.686 287.857Z" fill="white"/>
<path d="M35.324 245.179L29.9619 208.391L22.7825 180.252L17.0339 144.048L4.01716 82.3273C3.62218 80.2892 4.10118 78.2484 5.45574 76.6902C6.71318 75.1324 8.65259 74.2522 10.5948 74.246L235.615 78.6707L275.657 240.135L224.507 248.651L116.176 262.691L75.7999 269.424L41.738 276.914L35.324 245.179Z" fill="#E80537"/>
<path d="M443.941 267.951C442.678 267.76 440.928 267.378 438.597 266.997C434.03 266.234 427.423 265.09 419.455 263.756C403.618 261.088 382.533 257.562 361.449 254.037C324.721 247.94 288.091 241.842 279.152 240.317L278.069 235.854L239.601 80.5994L238.321 75.3596L232.98 75.2796L10.7763 70.9429L10.6792 70.9432L10.485 70.9439C7.4746 70.9535 4.56566 72.3224 2.63094 74.6593C0.696223 76.9961 -0.0706666 80.1062 0.521654 83.1147L0.521966 83.2118L0.522277 83.3089L13.5387 144.933L19.2867 180.942L19.3847 181.233L19.4827 181.524L26.5641 209.372L31.9255 245.966L31.9262 246.16L31.9268 246.355L36.5676 270.229L37.8659 281.393L41.6299 304.396L216.064 341.903L451.307 293.661L453.074 269.572C453.074 269.475 446.078 268.332 443.941 267.951ZM38.7204 245.07L33.3578 208.088L26.1783 179.949L20.43 143.842L7.31592 82.0247C6.92094 79.9866 8.46876 78.1365 10.5081 78.13L10.6052 78.1297L232.809 82.4664L271.278 237.72L246.139 241.88C237.501 243.267 227.6 244.755 216.924 246.538L165.671 253.209L140.922 257.852L117.823 261.908L76.3777 268.547L44.3508 274.671L38.7204 245.07ZM209.336 333.282L47.7292 298.549L46.2435 289.523L209.78 320.171L209.336 333.282ZM214.52 314.426C167.096 304.09 78.6729 287.768 44.9524 280.593C78.1469 275.145 165.697 261.56 217.82 253.333L224.809 252.436L224.906 252.436L225.003 252.436L247.23 248.771C258.101 247.085 266.739 245.698 272.272 244.903C272.66 244.805 272.951 244.804 273.146 244.901C273.146 244.901 404.606 266.523 439.002 272.239C396.201 280.145 281.486 301.781 214.52 314.426ZM444.684 287.856L221.281 333.438L219.878 319.847L320.329 301.462L445.524 277.268L444.684 287.856Z" fill="black"/>
<path d="M103.021 279.728L193.496 300.122L354.303 266.88L279.769 251.581L103.021 279.728Z" fill="black"/>
<path d="M60.6478 298.508C61.9112 298.796 73.7673 301.477 73.7673 301.477L74.528 296.425L60.8268 293.749L60.6478 298.508Z" fill="black"/>
<path d="M81.0541 302.618L95.1435 305.194L95.9039 300.045L81.6203 297.469L81.0541 302.618Z" fill="black"/>
<path d="M291.543 137.631L218.619 139.516L208.909 139.936L217.344 196.233C217.344 196.233 261.328 193.858 284.922 192.617C284.838 196.89 284.867 205.922 284.867 205.922L299.486 191.891C301.525 191.884 291.543 137.631 291.543 137.631Z" fill="#FFAC66"/>
<path d="M218.754 150.975L284.197 148.046L284.988 152.413L219.447 155.246L218.754 150.975Z" fill="#FFCB2E"/>
<path d="M220.931 163.689L288.508 159.976L288.918 166.578L220.756 169.516L220.931 163.689Z" fill="#FFCB2E"/>
<path d="M221.943 175.436L271.074 173.336L271.581 179.938L222.544 181.261L221.943 175.436Z" fill="#FFCB2E"/>
<path d="M179.381 45.7348L106.456 47.6197L96.7465 48.0393L105.182 104.337C105.182 104.337 149.165 101.962 172.759 100.721C172.676 104.994 172.705 114.025 172.705 114.025L187.324 99.9943C189.363 99.9878 179.381 45.7348 179.381 45.7348Z" fill="#FFAC66"/>
<path d="M106.584 59.0804L172.027 56.1513L172.818 60.5187L107.277 63.3511L106.584 59.0804Z" fill="#FFCB2E"/>
<path d="M108.761 71.7922L176.338 68.0794L176.748 74.6816L108.586 77.6194L108.761 71.7922Z" fill="#FFCB2E"/>
<path d="M109.773 83.5418L158.807 81.4422L159.411 88.0439L110.374 89.3665L109.773 83.5418Z" fill="#FFCB2E"/>
<path d="M14.8016 83.6523C15.8689 83.3575 24.1276 84.6905 24.1276 84.6905L41.4235 178.638L14.8016 83.6523Z" fill="black"/>
<path d="M54.7114 112.852L59.4556 138.668L83.2394 136.067L78.5002 111.805L54.7114 112.852Z" fill="#FFCB2E"/>
<path d="M63.0964 153.612L67.8406 179.428L91.6244 176.827L86.8852 152.564L63.0964 153.612Z" fill="#FFCB2E"/>
<path d="M250.297 54.8304L258.966 2.36266L283.532 1.31272L250.297 54.8304Z" fill="#59D359"/>
<path d="M270.312 57.9712L297.472 17.8743L318.184 26.4507L270.312 57.9712Z" fill="#59D359"/>
<path d="M239.892 50.3974L226.566 13.1496L242.17 3.58264L239.892 50.3974Z" fill="#59D359"/>
<path d="M28.7878 84.6758L37.1409 85.1345L40.83 145.331L28.7878 84.6758Z" fill="black"/>
</svg>
